<svg width="300" height="311" viewBox="0 0 300 311" fill="none" xmlns="http://www.w3.org/2000/svg">
<path fill-rule="evenodd" clip-rule="evenodd" d="M214.001 16.1817C229.111 43.54 228.085 42.7153 241.445 38.2707C248.017 36.0819 256.9 35.2395 261.186 36.3956C272.713 39.5043 300 59.8486 300 65.3295C300 74.772 293.769 73.778 277.038 61.6744C267.66 54.8929 257.113 49.3451 253.598 49.3451C240.769 49.3451 227.544 60.12 221.372 75.5897C209.652 104.975 200.385 97.499 209.99 66.415C215.634 48.1503 215.617 47.8225 208.003 32.3986L200.316 16.8232L194.41 24.662C187.573 33.738 187.212 38.9122 192.095 57.8184C195.512 71.0429 195.236 71.9311 185.061 80.489C178.627 85.9029 170.281 99.2754 163.801 114.562C153.363 139.182 139.669 155.776 125.922 160.467C121.006 162.141 115.464 159.709 106.42 151.898C99.4744 145.896 93.1093 140.986 92.2763 140.986C88.433 140.986 84.3438 161.56 87.5116 164.964C91.8697 169.649 88.0035 176.24 80.9136 176.212C57.8766 176.13 35.0428 159.614 23.0734 134.37L15.3441 118.076L12.9732 131.561C7.08688 165.01 22.047 204.469 48.3142 224.771C65.0287 237.692 67.8194 244.801 57.3322 247.748C52.164 249.2 50.7736 252.556 50.7736 263.588C50.7736 282.61 55.2236 285.673 78.018 282.349C92.0993 280.295 99.3039 277.066 106.623 269.534C114.169 261.762 117.291 260.415 120.295 263.644C123.295 266.869 122.436 270.366 116.537 278.941L108.889 290.058L126.197 287.591C160.637 282.681 189.488 263.429 208.688 232.543C213.112 225.423 214.912 224.644 218.444 228.309C221.9 231.898 221.963 234.199 218.755 239.715C212.584 250.339 213.866 255.227 224.616 262.051C236.437 269.558 249.364 266.975 245.57 257.864C239.018 242.119 240.582 222.913 250.719 194.667C262.364 162.205 270.031 150.154 276.284 154.471C279.465 156.667 277.717 163.685 268.86 184.29C247.443 234.107 249.778 251.022 282.675 284.358C298.751 300.646 302.578 310.169 293.051 310.169C291.248 310.169 281.852 302.119 272.172 292.282C257.071 276.932 253.644 274.934 247.99 278.183C237.825 284.031 229.846 282.755 216.722 273.185L204.677 264.398L188.071 276.675C169.855 290.142 135.209 303.12 117.465 303.12C111.241 303.12 99.5859 301.344 91.5648 299.173C80.3201 296.131 74.6764 296.254 66.911 299.712C57.6142 303.85 56.1681 303.469 48.0682 294.76C40.2733 286.371 39.2961 282.645 39.2961 261.261C39.2961 238.457 38.6599 236.441 27.1397 222.733C5.94238 197.515 0.0658848 181.717 0.000302952 149.798C-0.0587176 120.293 8.20514 93.4033 17.3281 93.4033C19.6761 93.4033 25.1689 102.92 29.5369 114.551C37.9548 136.982 57.2634 159.832 66.1994 157.95C69.082 157.344 73.4762 150.506 75.9717 142.756C83.7994 118.435 87.5575 116.927 103.593 131.678C111.263 138.737 119.95 144.511 122.895 144.511C131.139 144.511 144.011 127.522 155.285 101.753C160.909 88.8953 169.114 75.84 173.518 72.7418C180.601 67.7544 181.168 65.7771 178.456 55.6049C172.852 34.6015 174.678 24.729 186.536 11.9838C192.669 5.39272 199.345 0 201.375 0C203.402 0 209.085 7.28193 214.001 16.1817ZM147.69 187.113C151.068 192.992 143.469 199.732 138.944 194.868C135.16 190.8 137.527 183.282 142.594 183.282C144.184 183.282 146.477 185.006 147.69 187.113ZM98.4775 254.046C101.875 259.95 93.2109 267.874 83.3599 267.874C73.6631 267.874 67.7145 262.15 72.5383 257.458C77.3523 252.778 96.3132 250.282 98.4775 254.046Z" fill="#0098FF"/>
</svg>
