<svg width="22" height="22" viewBox="0 0 22 22" fill="none" xmlns="http://www.w3.org/2000/svg">
<path d="M4.84597 11.0005V6.95453C4.85798 6.15923 5.02681 5.37412 5.34277 4.64418C5.65873 3.91424 6.11562 3.25383 6.68726 2.70077C7.2589 2.14771 7.93404 1.71288 8.67402 1.4212C9.414 1.12952 10.2043 0.986714 10.9995 1.00097C11.7948 0.986714 12.585 1.12952 13.325 1.4212C14.065 1.71288 14.7401 2.14771 15.3118 2.70077C15.8834 3.25383 16.3403 3.91424 16.6563 4.64418C16.9722 5.37412 17.141 6.15923 17.1531 6.95453V11.0005M14.0763 19.077C14.8923 19.077 15.6749 18.7529 16.2519 18.1758C16.8289 17.5988 17.1531 16.8163 17.1531 16.0002V12.5389M14.0763 19.077C14.0763 19.587 13.8737 20.0761 13.5131 20.4368C13.1524 20.7974 12.6633 21 12.1533 21H9.84572C9.33572 21 8.8466 20.7974 8.48597 20.4368C8.12534 20.0761 7.92274 19.587 7.92274 19.077C7.92274 18.567 8.12534 18.0779 8.48597 17.7173C8.8466 17.3566 9.33572 17.154 9.84572 17.154H12.1533C12.6633 17.154 13.1524 17.3566 13.5131 17.7173C13.8737 18.0779 14.0763 18.567 14.0763 19.077ZM2.53839 8.69291H4.07677C4.28078 8.69291 4.47642 8.77395 4.62068 8.9182C4.76493 9.06245 4.84597 9.2581 4.84597 9.4621V14.0773C4.84597 14.2813 4.76493 14.4769 4.62068 14.6212C4.47642 14.7654 4.28078 14.8465 4.07677 14.8465H2.53839C2.13038 14.8465 1.73909 14.6844 1.45058 14.3959C1.16208 14.1074 1 13.7161 1 13.3081V10.2313C1 9.82329 1.16208 9.43199 1.45058 9.14349C1.73909 8.85499 2.13038 8.69291 2.53839 8.69291ZM19.4606 14.8465H17.9223C17.7183 14.8465 17.5226 14.7654 17.3784 14.6212C17.2341 14.4769 17.1531 14.2813 17.1531 14.0773V9.4621C17.1531 9.2581 17.2341 9.06245 17.3784 8.9182C17.5226 8.77395 17.7183 8.69291 17.9223 8.69291H19.4606C19.8686 8.69291 20.2599 8.85499 20.5484 9.14349C20.8369 9.43199 20.999 9.82329 20.999 10.2313V13.3081C20.999 13.7161 20.8369 14.1074 20.5484 14.3959C20.2599 14.6844 19.8686 14.8465 19.4606 14.8465Z" stroke="white" stroke-width="1.5" stroke-linecap="round" stroke-linejoin="round"/>
</svg>
