<svg width="33" height="23" viewBox="0 0 33 23" fill="none" xmlns="http://www.w3.org/2000/svg">
<path d="M12.9879 11.5122H9.84389L9.33989 13.0002H7.19189L10.2399 4.57617H12.6159L15.6639 13.0002H13.4919L12.9879 11.5122ZM12.4599 9.92817L11.4159 6.84417L10.3839 9.92817H12.4599ZM16.1836 9.64017C16.1836 8.95217 16.3116 8.34817 16.5676 7.82817C16.8316 7.30817 17.1876 6.90817 17.6356 6.62817C18.0836 6.34817 18.5836 6.20817 19.1356 6.20817C19.6076 6.20817 20.0196 6.30417 20.3716 6.49617C20.7316 6.68817 21.0076 6.94017 21.1996 7.25217V6.30417H23.2516V13.0002H21.1996V12.0522C20.9996 12.3642 20.7196 12.6162 20.3596 12.8082C20.0076 13.0002 19.5956 13.0962 19.1236 13.0962C18.5796 13.0962 18.0836 12.9562 17.6356 12.6762C17.1876 12.3882 16.8316 11.9842 16.5676 11.4642C16.3116 10.9362 16.1836 10.3282 16.1836 9.64017ZM21.1996 9.65217C21.1996 9.14017 21.0556 8.73617 20.7676 8.44017C20.4876 8.14417 20.1436 7.99617 19.7356 7.99617C19.3276 7.99617 18.9796 8.14417 18.6916 8.44017C18.4116 8.72817 18.2716 9.12817 18.2716 9.64017C18.2716 10.1522 18.4116 10.5602 18.6916 10.8642C18.9796 11.1602 19.3276 11.3082 19.7356 11.3082C20.1436 11.3082 20.4876 11.1602 20.7676 10.8642C21.0556 10.5682 21.1996 10.1642 21.1996 9.65217Z" fill="#EA4D6D"/>
<path d="M19.3369 17.5726H31.244M31.244 17.5726L27.6719 21.1447M31.244 17.5726L27.6719 14.0005" stroke="#EA4D6D" stroke-width="2" stroke-linecap="round" stroke-linejoin="round"/>
<path d="M19.0501 17.5721H1M1 17.5721L4.57212 14M1 17.5721L4.57212 21.1443" stroke="#EA4D6D" stroke-width="2" stroke-linecap="round" stroke-linejoin="round"/>
</svg>
