<svg width="21" height="18" viewBox="0 0 21 18" fill="none" xmlns="http://www.w3.org/2000/svg">
<path d="M8.0025 1.11734C6.45004 0.376134 4.28012 0.0130479 1.375 0.00015723C1.10102 -0.00356511 0.832414 0.0763273 0.605002 0.229181C0.418341 0.355349 0.265543 0.525453 0.160048 0.724531C0.0545523 0.923608 -0.000407499 1.14556 2.27471e-06 1.37086V13.6642C2.27471e-06 14.4952 0.591252 15.1221 1.375 15.1221C4.42879 15.1221 7.49203 15.4075 9.3268 17.1417C9.3519 17.1655 9.38345 17.1814 9.41752 17.1875C9.4516 17.1935 9.48671 17.1895 9.51848 17.1757C9.55025 17.162 9.57728 17.1392 9.59622 17.1103C9.61516 17.0813 9.62517 17.0474 9.625 17.0128V2.52758C9.62505 2.42985 9.60413 2.33326 9.56366 2.2443C9.52319 2.15535 9.4641 2.07612 9.39039 2.01195C8.97012 1.65266 8.50328 1.35174 8.0025 1.11734ZM20.02 0.227892C19.7925 0.0754186 19.5239 -0.00402774 19.25 0.00015723C16.3449 0.0130479 14.175 0.374415 12.6225 1.11734C12.1218 1.35132 11.6548 1.65164 11.2342 2.01024C11.1606 2.0745 11.1017 2.15376 11.0613 2.24269C11.0209 2.33163 11 2.42818 11 2.52586V17.0119C11 17.0452 11.0098 17.0777 11.0282 17.1054C11.0466 17.1331 11.0727 17.1548 11.1034 17.1677C11.1341 17.1806 11.1678 17.1841 11.2005 17.1779C11.2332 17.1717 11.2633 17.1559 11.287 17.1327C12.39 16.037 14.3258 15.1209 19.2517 15.1213C19.6164 15.1213 19.9661 14.9764 20.224 14.7186C20.4819 14.4607 20.6267 14.111 20.6267 13.7463V1.37129C20.6272 1.14554 20.5721 0.923145 20.4663 0.723732C20.3605 0.52432 20.2072 0.354027 20.02 0.227892Z" fill="#0076AC"/>
</svg>
