<svg width="150" height="40" viewBox="0 0 150 40" fill="none" xmlns="http://www.w3.org/2000/svg">
<path fill-rule="evenodd" clip-rule="evenodd" d="M125.051 2.91016C122.972 5.8824 123.101 5.79972 121.61 5.12493C120.876 4.79271 119.859 4.58773 119.349 4.66906C117.978 4.88775 114.576 6.90319 114.509 7.53537C114.395 8.62451 115.128 8.58548 117.209 7.39244C118.376 6.72407 119.663 6.21215 120.07 6.25481C121.554 6.4105 122.953 7.81382 123.48 9.67306C124.48 13.2047 125.642 12.4549 124.907 8.75296C124.475 6.57773 124.481 6.54012 125.549 4.85348L126.626 3.15023L127.215 4.12607C127.896 5.25591 127.875 5.8571 127.081 7.97856C126.526 9.46246 126.547 9.56826 127.62 10.6788C128.299 11.3814 129.103 13.0251 129.667 14.867C130.576 17.8334 131.96 19.9136 133.493 20.6215C134.041 20.8743 134.712 20.6611 135.852 19.8699C136.728 19.2618 137.524 18.7728 137.62 18.7829C138.065 18.8295 138.289 21.2522 137.881 21.6065C137.32 22.0939 137.688 22.901 138.508 22.9838C141.174 23.2541 144.015 21.6261 145.705 18.8596L146.796 17.074L146.907 18.6582C147.183 22.5878 144.975 26.9575 141.691 28.9805C139.602 30.268 139.193 31.0542 140.37 31.5213C140.95 31.7515 141.071 32.1554 140.937 33.4279C140.707 35.6221 140.155 35.9214 137.559 35.2613C135.955 34.8534 135.161 34.3936 134.405 33.436C133.626 32.448 133.282 32.2548 132.895 32.5907C132.509 32.9263 132.566 33.34 133.145 34.4007L133.895 35.7758L131.923 35.2812C127.998 34.2969 124.894 31.7262 123.047 27.9306C122.622 27.0557 122.423 26.944 121.97 27.3239C121.527 27.6958 121.492 27.9606 121.796 28.6357C122.381 29.936 122.174 30.4843 120.848 31.1409C119.39 31.8634 117.926 31.4085 118.475 30.4036C119.423 28.6671 119.475 26.4328 118.644 23.0517C117.69 19.1661 116.949 17.6831 116.173 18.1052C115.779 18.3199 115.896 19.1505 116.671 21.6347C118.546 27.6408 118.071 29.5635 113.862 33.0093C111.806 34.6929 111.248 35.745 112.35 35.8606C112.558 35.8825 113.743 35.0679 114.981 34.0507C116.914 32.4635 117.334 32.2746 117.949 32.718C119.054 33.5158 119.992 33.4655 121.626 32.521L123.126 31.6536L124.898 33.2712C126.842 35.0457 130.692 36.9631 132.745 37.1784C133.465 37.2539 134.834 37.1905 135.788 37.0374C137.126 36.823 137.777 36.9057 138.633 37.3988C139.659 37.9889 139.83 37.9626 140.873 37.0563C141.876 36.1833 142.034 35.7654 142.293 33.2989C142.569 30.6685 142.667 30.4437 144.165 29.0025C146.922 26.3509 147.793 24.6 148.187 20.9191C148.551 17.5166 147.92 14.3148 146.865 14.2041C146.594 14.1756 145.843 15.2066 145.197 16.4952C143.952 18.9803 141.442 21.3816 140.431 21.0561C140.105 20.9512 139.68 20.1091 139.485 19.1848C138.874 16.2847 138.457 16.0651 136.424 17.5718C135.451 18.2931 134.377 18.8536 134.036 18.8178C133.082 18.7178 131.799 16.602 130.807 13.4929C130.312 11.9416 129.521 10.3361 129.049 9.92534C128.29 9.26411 128.249 9.02916 128.685 7.88877C129.588 5.53416 129.496 4.37326 128.279 2.75927C127.649 1.9246 126.942 1.22156 126.707 1.19692C126.473 1.17233 125.728 1.94328 125.051 2.91016ZM130.653 23.4309C130.191 24.068 130.988 24.9375 131.57 24.4314C132.057 24.0082 131.874 23.1123 131.288 23.0508C131.104 23.0315 130.818 23.2025 130.653 23.4309ZM135.535 31.7485C135.07 32.3882 135.977 33.4073 137.116 33.5268C138.238 33.6445 138.995 33.0565 138.494 32.4568C137.994 31.8585 135.831 31.3405 135.535 31.7485Z" fill="#0098FF"/>
<path fill-rule="evenodd" clip-rule="evenodd" d="M23.4565 1.65651C22.1522 1.83476 20.8777 2.24454 19.6221 2.88946C19.0316 3.19274 18.7527 3.38765 18.3712 3.76357C17.5959 4.52744 17.6078 4.45549 17.7477 7.52679C17.8109 8.91629 17.8798 10.2242 17.9009 10.4332L17.939 10.8134L17.6072 10.4332C16.5641 9.23823 15.1668 8.29701 13.4583 7.63875C10.6157 6.54348 6.5417 6.34021 3.60283 7.147C1.8086 7.63958 0.584098 8.3803 0.169757 9.22372L0 9.5693V21.5609V33.5525L0.149306 33.8757C0.360725 34.3333 0.813619 34.7963 1.26838 35.0198C1.63235 35.1985 1.71091 35.2104 2.45274 35.1985C3.78724 35.177 7.77532 34.8996 8.3255 34.7901C8.98338 34.659 9.65847 34.3351 9.86927 34.0494C10.3484 33.4 10.4241 32.6743 10.2956 29.9655C10.2414 28.8212 10.1809 27.6206 10.1612 27.2975L10.1253 26.71L10.3217 26.9382C10.7787 27.4695 11.1569 28.5107 11.337 29.733C11.456 30.5401 11.4557 30.5999 11.3224 35.0425C11.2579 37.1897 11.4177 37.9354 12.0843 38.5981C12.4914 39.0029 12.7934 39.1163 13.4639 39.1163C14.1989 39.1163 19.9433 38.7041 20.2102 38.6322C20.8424 38.4619 21.3898 37.9224 21.658 37.2052C21.7689 36.9087 22.0054 35.8167 22.0056 35.5996C22.0056 35.5761 22.6819 35.5568 23.5084 35.5568C25.3333 35.5568 27.2929 35.378 28.0576 35.1418C28.1952 35.0993 28.2046 35.1283 28.2476 35.7355C28.3012 36.4909 28.4878 36.9614 28.8957 37.3694C29.2927 37.7665 29.7528 37.968 30.3311 37.9979C30.9413 38.0294 36.488 37.6865 36.9984 37.5857C37.9039 37.4068 38.5774 36.9823 38.8721 36.4047C39.0467 36.0622 39.187 35.3953 39.2489 34.613L39.2963 34.0148L39.6712 34.3202C41.7903 36.0468 46.7814 36.1913 48.4447 34.5742C49.0585 33.9775 49.0183 34.3052 49.2008 28.4064C49.3483 23.6418 49.4023 22.4263 49.4281 23.2888C49.4332 23.4598 49.5428 26.052 49.6716 29.0491L49.9058 34.4985L50.1256 34.9451C50.4771 35.6594 51.1165 36.0393 52.3207 36.2493C53.0828 36.3823 54.4439 36.3798 55.3591 36.2439C57.3512 35.9479 59.2623 34.9299 59.7686 33.8948C60.0102 33.4008 60.0067 33.09 59.7366 31.0643C59.3776 28.3715 59.2812 27.3199 59.1773 24.9622C59.0014 20.9708 59.4776 18.2739 60.5361 17.266C60.8411 16.9757 61.2213 16.7663 61.3524 16.8166C61.4579 16.8571 61.6927 17.8083 61.8361 18.7763C62.0802 20.4241 62.0948 20.9802 62.0818 28.0819L62.069 35.1213L62.2512 35.4938C62.4737 35.9488 62.8551 36.273 63.536 36.5858C64.4064 36.9857 64.9646 37.0777 66.5003 37.0747C67.9956 37.0719 68.602 36.9851 69.702 36.6167C71.2392 36.1019 72.1994 35.3898 72.4748 34.5604C72.5763 34.2548 72.5712 33.7598 72.41 28.1542C72.0991 17.3483 72.1161 17.6346 71.688 15.9974C71.0195 13.4398 69.5555 10.889 67.9544 9.49216C66.4284 8.16085 64.7147 7.46244 62.4512 7.24956C61.0554 7.11824 59.4058 7.30603 58.1973 7.73386L57.6415 7.93063L57.3971 7.76475C56.6674 7.26933 54.8717 7.13476 53.0275 7.43728C51.9171 7.6194 50.6606 8.08006 49.961 8.56159L49.6528 8.7737L49.5078 8.53885C48.986 7.69425 47.7944 7.20346 45.9721 7.08272C43.0418 6.8885 39.6174 8.09298 38.8938 9.57241L38.7081 9.95213L38.7541 16.223C38.7794 19.672 38.818 22.6184 38.8399 22.7704C38.8617 22.9225 38.8556 23.0239 38.8263 22.9957C38.797 22.9676 38.657 22.3767 38.5153 21.6825C37.9084 18.7123 36.9739 16.18 35.8845 14.5538C35.4243 13.8668 34.6129 13.0005 34.0674 12.6136C32.5629 11.5464 30.7068 11.2297 28.8207 11.7184C28.598 11.7761 28.4011 11.8086 28.3832 11.7907C28.3653 11.7728 28.4467 10.1149 28.5641 8.10646C28.8086 3.92295 28.8157 3.59216 28.6691 3.16192C28.4456 2.50573 27.8087 2.02407 26.8074 1.7541C26.319 1.62236 24.1652 1.55968 23.4565 1.65651ZM26.258 9.5798C26.0851 12.4339 25.9438 14.9117 25.9438 15.0859V15.4028L26.4792 15.0843C27.8351 14.2779 28.9572 13.895 30.1238 13.8408C31.5966 13.7723 32.6577 14.2345 33.7249 15.4096C35.5273 17.3941 36.7188 21.7449 37.0657 27.6085C37.1815 29.5652 37.1323 35.2063 36.9984 35.3375C36.9659 35.3693 31.0223 35.7987 30.6144 35.7987H30.4252L30.4712 34.0881C30.4965 33.1472 30.4834 30.9157 30.4422 29.1291C30.311 23.4458 30.1478 21.8419 29.6044 20.89C28.9917 19.8167 27.6574 20.1989 26.9486 21.6506C26.6003 22.3641 26.5382 22.89 26.5921 24.6711C26.6492 26.5575 27.0099 31.7143 27.1607 32.8L27.2003 33.0843L24.5986 33.1354C23.1675 33.1636 21.9853 33.1752 21.9714 33.1611C21.9574 33.1472 21.8786 32.7184 21.7963 32.2082C21.7139 31.6982 21.5216 30.7967 21.3687 30.2049C21.216 29.6132 21.062 28.9891 21.0265 28.818C20.9634 28.5132 19.8403 5.45684 19.8789 5.25675C19.8938 5.17906 20.6841 5.01346 23.2147 4.55792L26.531 3.9609L26.5516 4.17571C26.5629 4.2939 26.4308 6.72573 26.258 9.5798ZM111.479 6.88449C110.923 6.99632 107.413 7.78321 106.539 7.99194C104.942 8.37311 104.414 8.71489 104.087 9.57752C103.949 9.9419 103.937 10.0663 103.973 10.7788C103.994 11.216 104.168 12.7217 104.357 14.1249C104.547 15.528 104.688 16.6997 104.67 16.7286C104.625 16.8012 103.837 17.055 103.49 17.1084L103.205 17.1523L103.123 16.713C102.916 15.6054 102.967 13.1295 103.227 11.6486C103.513 10.0279 103.215 9.34059 101.954 8.70867C101.216 8.33876 100.595 8.21089 99.3532 8.1733C97.642 8.12146 96.282 8.38514 95.0005 9.01741C93.7834 9.61775 93.3515 10.1853 93.2654 11.2972C93.186 12.3208 93.1834 12.3231 92.8008 11.7189C91.3482 9.42498 89.2802 7.96118 86.7344 7.42477C85.8281 7.23387 84.4736 7.15992 83.5218 7.24942C82.6812 7.32849 81.3854 7.61249 80.8728 7.83007C80.6515 7.92399 80.6176 7.92137 80.4437 7.79751C79.461 7.09751 76.5879 7.10456 74.5083 7.81196C73.7789 8.06008 72.8714 8.56179 72.5033 8.92044C72.0054 9.40556 71.8928 9.70096 71.891 10.5269C71.8892 11.3219 72.8339 33.8947 72.8871 34.3296C72.9358 34.7275 73.2099 35.2467 73.5106 35.5108C73.8398 35.8 74.1869 35.9711 74.8015 36.1473C75.4503 36.3333 77.1674 36.4076 78.0606 36.2883C80.2127 36.001 82.1897 35.0053 82.7364 33.9334C82.9788 33.458 82.9752 33.0734 82.7093 31.0643C81.9865 25.6031 81.9256 21.5772 82.5298 19.2097C82.8598 17.917 83.5046 16.9943 84.196 16.8256C84.3718 16.7827 84.3813 16.7973 84.5271 17.3378C84.6096 17.6439 84.7354 18.2916 84.8065 18.7772C85.0848 20.6779 85.1075 21.5451 85.057 28.391C85.0028 35.7477 84.9742 35.2983 85.538 35.9258C85.9003 36.3288 86.6015 36.6984 87.4044 36.9095C88.1217 37.098 89.7696 37.1655 90.7254 37.0455C93.031 36.7561 94.9064 35.8155 95.399 34.7017C95.5339 34.3965 95.5383 34.2961 95.4977 32.4124L95.4552 30.4423L95.7822 31.0643C96.9712 33.3261 98.8203 35.1957 100.804 36.1422C102.146 36.7823 103.31 37.0053 105.019 36.9496C107.562 36.8668 109.443 36.1191 111.122 34.524C112.632 33.0893 114.041 30.3928 114.579 27.9109C115.059 25.6937 115.077 22.8995 114.654 16.1007C114.454 12.8841 114.185 9.28979 114.103 8.75124C113.981 7.94072 113.585 7.39395 112.885 7.06945C112.53 6.90509 111.832 6.8133 111.479 6.88449ZM112.128 11.5737C112.732 19.619 112.901 24.6085 112.631 26.4198C112.101 29.9745 110.352 32.8386 107.99 34.02C106.865 34.5824 105.694 34.8044 104.173 34.7431C102.305 34.6678 100.947 34.0974 99.7347 32.8787C98.5273 31.665 97.716 29.9284 97.2352 27.529C97.1176 26.9424 97.0331 26.4512 97.0473 26.4376C97.0762 26.4099 101.899 25.178 102.117 25.1427C102.243 25.1223 102.259 25.171 102.3 25.7155C102.418 27.2595 102.992 28.3767 103.868 28.7681C104.075 28.8605 104.386 28.9218 104.742 28.9406C106.211 29.0178 107.048 28.0771 107.434 25.9152C107.597 25.0081 107.672 22.2807 107.533 22.3396C107.48 22.3621 107.123 22.5204 106.739 22.6915C105.845 23.0906 104.796 23.4403 103.879 23.6451C102.92 23.8593 101.065 23.8777 100.355 23.6801C97.7333 22.9508 96.1175 20.4917 95.5541 16.374C95.4122 15.3364 95.3478 12.8855 95.4366 11.8964C95.4752 11.4656 95.5173 11.1033 95.53 11.0911C95.5644 11.0583 101.076 10.6513 101.106 10.6794C101.12 10.6926 101.081 11.0547 101.019 11.4841C100.569 14.6068 100.784 17.6861 101.523 18.7065C101.818 19.1141 102.254 19.3016 102.988 19.3367C104.058 19.3879 105.211 19.0582 106.458 18.344C106.932 18.0727 107.056 17.9689 107.057 17.8453C107.057 17.7594 106.84 16.0354 106.574 14.0142C106.309 11.993 106.099 10.3322 106.108 10.3234C106.162 10.2705 111.867 9.07864 111.903 9.11279C111.927 9.1358 112.028 10.2432 112.128 11.5737ZM10.7574 9.22323C13.1868 9.54428 14.9527 10.4881 15.9938 12.0217C16.6823 13.0359 16.9486 13.9606 17.0091 15.5478C17.1151 18.3259 16.4202 20.3216 14.8993 21.6068C14.6467 21.8203 14.4314 22.0167 14.4207 22.0433C14.4101 22.0699 14.6137 22.2496 14.8732 22.4427C15.1327 22.6357 15.6419 23.1031 16.0048 23.4813C17.126 24.6498 17.8342 25.876 18.4287 27.6776L18.7708 28.7144L18.894 31.2025C19.0248 33.8452 19.0453 33.9728 19.4168 34.4599C19.578 34.6714 19.5874 34.7332 19.5874 35.5836V36.4836L19.3628 36.5185C18.9445 36.5834 13.5682 36.9194 13.5317 36.8829C13.5118 36.863 13.5343 36.432 13.5817 35.9253C13.694 34.7236 13.6949 31.434 13.5831 30.3731C13.2719 27.4186 12.5086 25.4899 11.287 24.5713C10.5236 23.9973 9.57156 23.7702 8.50237 23.9072C8.15809 23.9512 7.85713 24.009 7.83364 24.0355C7.81007 24.062 7.8838 25.9901 7.99731 28.3202C8.1109 30.6504 8.1842 32.5764 8.1603 32.6004C8.13632 32.6243 7.00558 32.7135 5.64745 32.7986C4.28939 32.8837 2.95268 32.9711 2.67708 32.9928L2.17596 33.0324L2.19344 21.5135L2.21092 9.99477L2.90183 9.8385C3.89806 9.61318 5.54513 9.33686 6.53596 9.22883C7.72668 9.09903 9.79673 9.09627 10.7574 9.22323ZM62.4948 9.46929C64.3833 9.704 66.0944 10.5957 67.2372 11.9409C68.7027 13.6659 69.6512 15.9622 69.8832 18.347C69.966 19.1985 70.3933 33.9317 70.3368 33.9882C70.3037 34.0214 64.7073 34.6182 64.3931 34.6221C64.2556 34.6238 64.255 34.5858 64.2777 28.0059C64.3009 21.3039 64.2692 20.0198 64.0419 18.4507C63.7378 16.3516 63.1154 14.9137 62.3774 14.6053C61.8579 14.3881 60.6555 14.5803 59.8513 15.0092C58.5436 15.7064 57.6578 17.2109 57.1942 19.522C57.0864 20.0591 57.0699 20.5023 57.0735 22.7704C57.0779 25.5386 57.1177 26.2341 57.5293 30.7375C57.6484 32.0403 57.733 33.119 57.7173 33.1347C57.6622 33.1898 52.1633 33.9812 52.1223 33.9399C52.0813 33.8987 51.0704 10.3623 51.1081 10.3274C51.1188 10.3176 52.1846 10.1503 53.4766 9.95572C54.7686 9.76109 55.8925 9.58699 55.9742 9.56874C56.1127 9.53785 56.1257 9.56943 56.1662 10.0362C56.1901 10.3116 56.227 10.7122 56.2482 10.9265L56.2866 11.3161L56.7816 10.9426C57.7307 10.2266 58.9525 9.70704 60.0748 9.5422C60.3598 9.50032 60.6708 9.45463 60.7658 9.44067C61.1346 9.38655 61.9355 9.39975 62.4948 9.46929ZM86.2648 9.59881C86.5903 9.67124 87.1036 9.82572 87.4054 9.94217C90.1192 10.9891 92.2482 14.0876 92.7935 17.784C92.8796 18.3676 92.9608 20.4225 93.1288 26.2608C93.2507 30.4993 93.3421 33.9789 93.3318 33.9932C93.3124 34.0205 87.6558 34.6177 87.3812 34.6215L87.2238 34.6238L87.243 27.6258C87.2633 20.2619 87.2513 19.8754 86.945 18.036C86.6569 16.3059 86.0971 15.0294 85.4659 14.6637C85.2194 14.521 85.1224 14.5068 84.5677 14.5324C82.5482 14.6257 81.1575 15.9521 80.4243 18.4844C80.0616 19.7369 80.0101 20.245 80.014 22.5285C80.0182 25.0283 80.1856 27.666 80.5993 31.747C80.6759 32.5026 80.7296 33.1294 80.7185 33.14C80.6897 33.1676 75.1059 33.9889 75.0831 33.9689C75.0444 33.9348 74.0658 10.351 74.1021 10.3285C74.1401 10.305 78.516 9.6333 78.9022 9.59162L79.1095 9.5693L79.1786 10.4492L79.2477 11.3292L79.5579 11.0831C80.647 10.2193 81.9641 9.66537 83.3931 9.47018C84.08 9.37632 85.5632 9.44274 86.2648 9.59881ZM47.5493 10.5196C47.5264 11.0614 47.3612 16.372 47.1821 22.3212C47.003 28.2703 46.8468 33.1497 46.835 33.1644C46.8035 33.2037 41.2228 32.8596 41.1788 32.8157C41.1285 32.7653 40.8835 10.4116 40.9326 10.3516C40.9704 10.3054 46.8953 9.55962 47.3555 9.54317L47.5908 9.53474L47.5493 10.5196ZM7.13367 13.1764C7.03231 13.2029 7.01822 13.2659 7.04655 13.5658C7.06513 13.7626 7.13112 15.2143 7.19316 16.7919C7.25513 18.3695 7.31068 19.6661 7.31656 19.6735C7.36375 19.7324 8.34781 19.8318 8.87823 19.8313C10.9505 19.8291 12.2308 18.9185 12.7142 17.1029C12.775 16.8748 12.8429 16.3236 12.8652 15.8779C12.899 15.2015 12.8855 15.0148 12.7835 14.7475C12.357 13.6303 10.9662 13.12 8.39459 13.1372C7.76758 13.1413 7.20014 13.159 7.13367 13.1764ZM10.5719 15.479C10.7592 15.5503 10.7621 15.56 10.7191 15.9718C10.6439 16.6912 10.2917 17.1942 9.68604 17.4474L9.44947 17.5463L9.40629 17.1863C9.38252 16.9884 9.36276 16.4875 9.36249 16.0733L9.36187 15.3202L9.87127 15.3633C10.1514 15.387 10.4667 15.439 10.5719 15.479ZM18.4392 21.8028C18.4813 22.9362 18.4785 22.9717 18.3614 22.8067C18.2947 22.7126 18.0962 22.462 17.9204 22.2498C17.6286 21.8975 17.6094 21.8521 17.6998 21.7297C17.7542 21.6558 17.9247 21.368 18.0785 21.0901C18.2323 20.8121 18.3666 20.5944 18.3769 20.6063C18.3873 20.6181 18.4152 21.1566 18.4392 21.8028ZM96.3189 23.7668C96.5351 24.0004 96.7 24.2006 96.6853 24.2117C96.6707 24.2228 96.5064 24.2884 96.3203 24.3574C96.1291 24.4284 95.8391 24.6216 95.6536 24.8016L95.3253 25.1203L95.2838 24.7128C95.2609 24.4886 95.2423 23.8853 95.2423 23.372V22.4388L95.5841 22.8905C95.7721 23.1389 96.1028 23.5332 96.3189 23.7668ZM105.223 25.7942C105.166 26.0552 104.925 26.5917 104.841 26.6437C104.752 26.6992 104.636 26.4283 104.592 26.063L104.553 25.731L104.855 25.6585C105.021 25.6187 105.183 25.5824 105.214 25.5779C105.246 25.5733 105.25 25.6706 105.223 25.7942Z" fill="#0098FF"/>
</svg>
