<svg width="39" height="54" viewBox="0 0 39 54" fill="none" xmlns="http://www.w3.org/2000/svg">
<path d="M6.44 33H0.898L8.786 11.682H14.26L21.944 33H16.436L15.314 29.43H7.562L6.44 33ZM11.404 16.918C11.2227 17.5527 11.0187 18.2327 10.792 18.958C10.588 19.6607 10.2367 20.8167 9.738 22.426L8.854 25.248H13.988L13.104 22.426C12.8093 21.5647 12.5147 20.658 12.22 19.706C11.9253 18.7313 11.6533 17.802 11.404 16.918ZM27.46 33.34C25.7373 33.34 24.468 32.9093 23.652 32.048C22.8586 31.1867 22.462 29.8267 22.462 27.968C22.462 26.064 22.938 24.7267 23.89 23.956C24.8646 23.1853 26.5306 22.8 28.888 22.8C29.432 22.8 29.9873 22.834 30.554 22.902C31.1433 22.9473 31.6533 23.0153 32.084 23.106V21.882C32.084 21.338 31.846 20.9413 31.37 20.692C30.9166 20.42 30.214 20.284 29.262 20.284C28.174 20.284 27.1993 20.318 26.338 20.386C25.4993 20.4313 24.7286 20.522 24.026 20.658V16.476C24.8646 16.272 25.8393 16.1247 26.95 16.034C28.0606 15.9207 29.3526 15.864 30.826 15.864C32.9113 15.864 34.4866 16.3287 35.552 17.258C36.64 18.1873 37.184 19.5587 37.184 21.372V33H32.424L32.254 31.572H32.152C31.4493 32.116 30.6786 32.5467 29.84 32.864C29.0013 33.1813 28.208 33.34 27.46 33.34ZM29.568 26.166C28.6613 26.166 28.0493 26.268 27.732 26.472C27.4146 26.6533 27.256 27.05 27.256 27.662C27.256 28.2287 27.3806 28.6253 27.63 28.852C27.902 29.056 28.3666 29.158 29.024 29.158C29.5226 29.158 30.044 29.09 30.588 28.954C31.132 28.818 31.6306 28.648 32.084 28.444V26.37C31.812 26.302 31.472 26.2567 31.064 26.234C30.656 26.1887 30.1573 26.166 29.568 26.166Z" fill="black"/>
<path d="M6 46.25L34 46.25M6 46.25L13 51.5M6 46.25L13 41M34 46.25L27 41M34 46.25L27 51.5" stroke="black" stroke-width="3.75" stroke-linecap="round" stroke-linejoin="round"/>
</svg>
