<svg width="2103" height="986" viewBox="0 0 2103 986" fill="none" xmlns="http://www.w3.org/2000/svg">
<path d="M1999.38 194.848C1978.45 165.957 1965.21 162.549 1940.52 153.949C1941.19 133.958 1953.62 114.759 1968.86 101.743C1982.58 90.1095 2002.18 101.135 1999.54 118.193C1999.11 120.947 1998.43 123.88 1997.44 126.983C1997.23 127.651 1998.12 128.185 1998.67 127.712C2003.38 123.686 2007.97 119.601 2012.75 115.843C2035.19 98.2157 2060.5 123.284 2040.25 143.037C2035.68 147.497 2030.72 151.667 2025.84 155.897C2025.42 156.267 2025.8 156.937 2026.38 156.846C2030.58 156.18 2034.66 156.035 2038.48 156.314C2054.34 157.471 2062.19 173.678 2052.07 184.94C2037.1 197.594 2020.9 194.492 1999.38 194.848Z" fill="#DB7495"/>
<path d="M1538.17 641.085C1538.17 822.352 1401.01 969.241 1231.9 969.241C1062.78 969.241 925.624 822.352 925.624 641.085C925.624 459.818 1062.78 312.929 1231.9 312.929C1401.01 312.929 1538.17 459.818 1538.17 641.085ZM1231.9 800.59C1312.94 800.59 1378.59 730.664 1378.59 644.471C1378.59 558.278 1312.94 488.352 1231.9 488.352C1150.85 488.352 1085.21 558.278 1085.21 644.471C1085.21 730.664 1150.85 800.59 1231.9 800.59Z" fill="#34A087"/>
<path fill-rule="evenodd" clip-rule="evenodd" d="M460.522 936.126C455.271 932.346 448.378 931.299 442.322 933.705C417.035 943.749 348.678 969.241 306.273 969.241C137.123 969.241 0 822.32 0 641.085C0 459.85 137.123 312.929 306.273 312.929C475.423 312.929 612.546 459.85 612.546 641.085C612.546 642.261 612.54 643.436 612.528 644.611L612.546 644.468V952.341C612.546 961.628 604.634 969.13 595.023 968.852C528.811 966.948 493.985 960.217 460.522 936.126ZM306.273 800.088C387.003 800.088 452.449 730.415 452.449 644.468C452.449 558.521 387.003 488.847 306.273 488.847C225.542 488.847 160.097 558.521 160.097 644.468C160.097 730.415 225.542 800.088 306.273 800.088Z" fill="#005351"/>
<path d="M2049.38 233.536C2049.38 285.735 2005.37 328.051 1951.07 328.051C1896.78 328.051 1852.76 285.735 1852.76 233.536C1852.76 181.337 1896.78 139.021 1951.07 139.021C2005.37 139.021 2049.38 181.337 2049.38 233.536Z" fill="#FF9BB1"/>
<path d="M1793.93 984.488V7.56771C1793.93 2.32611 1788.72 -1.32543 1783.8 0.457233L1593.9 69.1261C1592.7 69.5593 1591.9 70.6965 1591.9 71.9702V984.488C1591.9 985.323 1592.58 986 1593.41 986H1792.42C1793.25 986 1793.93 985.323 1793.93 984.488Z" fill="#FF9BB1"/>
<path d="M1591.9 334.426V138.954H1393.68C1389.38 138.954 1385.93 142.575 1386.27 146.867C1395.71 267.02 1499 334.426 1591.9 334.426Z" fill="#FF9BB1"/>
<path fill-rule="evenodd" clip-rule="evenodd" d="M1856.3 149.123C1859.72 145.146 1856.97 138.954 1851.73 138.954H1793.93V334.426H1852.48C1857.6 334.426 1860.47 328.413 1857.44 324.287C1839.98 300.554 1822.5 267.022 1822.5 231.754C1822.5 193.297 1840.86 167.089 1856.3 149.123Z" fill="#FF9BB1"/>
<path d="M2049.38 790.751V365.741C2049.38 361.902 2045.85 359.034 2042.09 359.82L2005.2 367.535C1915.5 386.296 1851.25 465.373 1851.25 557.001V976.848C1851.25 980.163 1853.94 982.851 1857.25 982.851C1963.36 982.851 2049.38 896.845 2049.38 790.751Z" fill="#FF9BB1"/>
<path d="M666.994 792.309L666.994 13.1955C666.994 7.58283 673.975 4.99644 677.633 9.25397L822.921 178.365C853.081 213.469 869.663 258.216 869.663 304.494V979.827C869.663 983.167 866.955 985.876 863.614 985.876H860.589C753.669 985.876 666.994 899.213 666.994 792.309Z" fill="#34A087"/>
<path d="M2030.98 233.105C2022.97 198.34 2012.11 190.039 1992.73 172.496C2001.14 154.346 2020.08 141.516 2039.19 135.473C2056.35 130.107 2070.11 147.905 2061.02 162.581C2059.55 164.951 2057.78 167.385 2055.66 169.858C2055.21 170.391 2055.82 171.229 2056.51 171.009C2062.41 169.136 2068.23 167.165 2074.1 165.569C2101.64 158.086 2115.17 191.037 2088.81 201.331C2082.86 203.655 2076.68 205.564 2070.53 207.556C2070 207.731 2070.09 208.497 2070.66 208.638C2074.79 209.664 2078.6 211.119 2082.01 212.869C2096.16 220.118 2097.07 238.103 2083.36 244.527C2064.63 250.34 2050.93 241.168 2030.98 233.105Z" fill="#FF9BB1"/>
<path d="M1876.87 295.538C1874.02 292.464 1871.54 289.179 1869.13 285.777C1870.38 286.331 1871.72 286.865 1872.95 287.44L1872.96 287.441C1883.95 292.567 1897.76 291.483 1910.8 286.981C1926.21 281.66 1937.49 269.724 1940.56 255.456C1940.93 253.748 1942.09 252.297 1943.76 251.723C1946.97 250.613 1950.29 253.142 1949.56 256.434C1945.83 273.187 1932.57 288.146 1913.61 294.692C1901.22 298.973 1888.12 299.052 1876.87 295.538Z" fill="#DB7495"/>
</svg>
