<svg width="103" height="48" viewBox="0 0 103 48" fill="none" xmlns="http://www.w3.org/2000/svg">
<path d="M97.9249 9.48549C96.8998 8.07904 96.2513 7.91313 95.0423 7.4945C95.0747 6.52129 95.6838 5.58664 96.4303 4.95302C97.1019 4.38667 98.0623 4.92339 97.9328 5.7538C97.9119 5.88788 97.8784 6.03067 97.8301 6.18171C97.8197 6.21426 97.8633 6.24024 97.8904 6.21721C98.1206 6.02124 98.3456 5.82238 98.5799 5.63941C99.6788 4.78129 100.918 6.00163 99.9265 6.96326C99.7026 7.18036 99.4601 7.38336 99.221 7.58931C99.2001 7.60732 99.2188 7.63995 99.2471 7.63549C99.453 7.6031 99.6526 7.596 99.8401 7.6096C100.617 7.66595 101.001 8.4549 100.506 9.00317C99.7722 9.61917 98.9788 9.46818 97.9249 9.48549Z" fill="#00323B"/>
<path d="M75.336 31.209C75.336 40.0333 68.6184 47.1841 60.3354 47.1841C52.0524 47.1841 45.3349 40.0333 45.3349 31.209C45.3349 22.3846 52.0524 15.2339 60.3354 15.2339C68.6184 15.2339 75.336 22.3846 75.336 31.209ZM60.3354 38.974C64.3048 38.974 67.52 35.5698 67.52 31.3738C67.52 27.1778 64.3048 23.7737 60.3354 23.7737C56.3661 23.7737 53.1509 27.1778 53.1509 31.3738C53.1509 35.5698 56.3661 38.974 60.3354 38.974Z" fill="white"/>
<path fill-rule="evenodd" clip-rule="evenodd" d="M22.5553 45.5721C22.2981 45.3881 21.9605 45.3371 21.6639 45.4542C20.4254 45.9432 17.0774 47.1841 15.0005 47.1841C6.71597 47.1841 0 40.0318 0 31.209C0 22.3862 6.71597 15.2339 15.0005 15.2339C23.2851 15.2339 30.001 22.3862 30.001 31.209C30.001 31.2663 30.0008 31.3235 30.0002 31.3806L30.001 31.3737V46.3614C30.001 46.8135 29.6136 47.1787 29.1428 47.1652C25.8999 47.0725 24.1942 46.7449 22.5553 45.5721ZM15.0005 38.9495C18.9545 38.9495 22.1599 35.5577 22.1599 31.3737C22.1599 27.1897 18.9545 23.7978 15.0005 23.7978C11.0465 23.7978 7.84119 27.1897 7.84119 31.3737C7.84119 35.5577 11.0465 38.9495 15.0005 38.9495Z" fill="white"/>
<path d="M100.374 11.3689C100.374 13.91 98.2181 15.97 95.5589 15.97C92.8996 15.97 90.7439 13.91 90.7439 11.3689C90.7439 8.82776 92.8996 6.76776 95.5589 6.76776C98.2181 6.76776 100.374 8.82776 100.374 11.3689Z" fill="#005351"/>
<path d="M87.8624 47.9264V0.368408C87.8624 0.113239 87.6075 -0.0645239 87.3661 0.0222588L78.0652 3.36516C78.0066 3.38625 77.9675 3.44161 77.9675 3.50362V47.9264C77.9675 47.967 78.0006 48 78.0415 48H87.7884C87.8293 48 87.8624 47.967 87.8624 47.9264Z" fill="white"/>
<path d="M77.9675 16.2804V6.7645H68.2594C68.0485 6.7645 67.8797 6.94078 67.8962 7.14969C68.3585 12.9989 73.4174 16.2804 77.9675 16.2804Z" fill="white"/>
<path fill-rule="evenodd" clip-rule="evenodd" d="M90.9171 7.25953C91.0845 7.06591 90.9501 6.7645 90.6933 6.7645H87.8624V16.2804H90.7302C90.9811 16.2804 91.1215 15.9876 90.9729 15.7868C90.1179 14.6314 89.2617 12.9991 89.2617 11.2821C89.2617 9.41001 90.161 8.13413 90.9171 7.25953Z" fill="white"/>
<path d="M100.374 38.495V17.8048C100.374 17.618 100.201 17.4783 100.017 17.5166L98.2102 17.8922C93.8169 18.8055 90.6698 22.6551 90.6698 27.1157V47.5545C90.6698 47.7159 90.8015 47.8467 90.9639 47.8467C96.1609 47.8467 100.374 43.6598 100.374 38.495Z" fill="white"/>
<path d="M32.6678 38.5708L32.6678 0.642378C32.6678 0.369144 33.0097 0.243234 33.1889 0.450498L40.3048 8.68307C41.7819 10.392 42.5941 12.5704 42.5941 14.8232V47.6995C42.5941 47.8621 42.4614 47.9939 42.2978 47.9939H42.1496C36.913 47.9939 32.6678 43.7751 32.6678 38.5708Z" fill="white"/>
<path d="M99.4724 11.3479C99.0802 9.65551 98.5482 9.25141 97.5992 8.39739C98.011 7.5138 98.9386 6.8892 99.8746 6.59505C100.715 6.3338 101.389 7.20023 100.944 7.91471C100.872 8.03008 100.785 8.14858 100.681 8.26896C100.659 8.29491 100.689 8.33571 100.723 8.32499C101.012 8.23378 101.297 8.13784 101.585 8.06016C102.933 7.69586 103.596 9.3 102.305 9.8011C102.014 9.91423 101.711 10.0072 101.41 10.1042C101.384 10.1127 101.388 10.1499 101.416 10.1568C101.618 10.2068 101.805 10.2776 101.972 10.3628C102.665 10.7157 102.71 11.5912 102.038 11.904C101.121 12.1869 100.45 11.7404 99.4724 11.3479Z" fill="#005351"/>
<path d="M91.9246 14.3872C91.7851 14.2376 91.6637 14.0777 91.5456 13.9121C91.607 13.939 91.6726 13.965 91.7329 13.993L91.7331 13.9931C92.2714 14.2426 92.9479 14.1898 93.5864 13.9707C94.3411 13.7117 94.8935 13.1306 95.044 12.436C95.062 12.3529 95.1191 12.2822 95.2006 12.2543C95.358 12.2002 95.5207 12.3233 95.4848 12.4836C95.3023 13.2991 94.6528 14.0274 93.7243 14.3461C93.1171 14.5545 92.4755 14.5583 91.9246 14.3872Z" fill="#00323B"/>
</svg>
