<svg width="10" height="19" viewBox="0 0 10 19" fill="none" xmlns="http://www.w3.org/2000/svg">
<path d="M9.6182 17.6186C9.86344 17.3652 10.0015 17.0213 10.0021 16.6624C10.0026 16.3036 9.8656 15.9593 9.62114 15.7051L3.16641 8.99669L9.64173 2.30814C9.88004 2.05328 10.0122 1.71166 10.0098 1.35684C10.0073 1.00202 9.87051 0.662405 9.62874 0.411133C9.38697 0.159862 9.05961 0.017042 8.71717 0.0134313C8.37473 0.00982262 8.04461 0.145714 7.7979 0.391837L0.397717 8.0357C0.152478 8.28909 0.0143999 8.63301 0.0138483 8.99184C0.0132966 9.35067 0.150316 9.69502 0.394776 9.94916L7.77142 17.6157C8.01596 17.8698 8.34788 18.0128 8.6942 18.0134C9.04052 18.0139 9.37288 17.8719 9.6182 17.6186Z" fill="black" fill-opacity="0.7"/>
</svg>
