<svg width="23" height="23" viewBox="0 0 23 23" fill="none" xmlns="http://www.w3.org/2000/svg">
<path d="M5.40117 6.35958L11.5 0.260742L17.5988 6.35958C18.8051 7.56581 19.6265 9.10264 19.9593 10.7757C20.2921 12.4488 20.1213 14.183 19.4685 15.759C18.8156 17.335 17.7102 18.682 16.2918 19.6298C14.8734 20.5775 13.2059 21.0833 11.5 21.0833C9.79414 21.0833 8.12659 20.5775 6.70822 19.6298C5.28985 18.682 4.18436 17.335 3.53155 15.759C2.87874 14.183 2.70793 12.4488 3.04072 10.7757C3.37351 9.10264 4.19495 7.56581 5.40117 6.35958ZM6.75625 7.71466C5.81775 8.65307 5.17868 9.84877 4.91992 11.1505C4.66116 12.4522 4.79433 13.8014 5.30259 15.0274C5.81084 16.2534 6.67133 17.3011 7.77519 18.0379C8.87905 18.7748 10.1767 19.1676 11.5038 19.1667L11.5 2.97091L6.75625 7.71466Z" fill="#9D4EDD"/>
</svg>
