<svg width="47" height="68" viewBox="0 0 47 68" fill="none" xmlns="http://www.w3.org/2000/svg">
<path fill-rule="evenodd" clip-rule="evenodd" d="M36.5577 51.4131C36.5571 50.6209 36.9682 49.9132 37.6227 49.5794C38.1527 49.3091 38.4123 49.3249 39.0104 49.6639C39.9174 50.1779 40.2526 51.3847 39.7836 52.447C39.3576 53.4114 38.3731 53.7577 37.4755 53.259C36.8851 52.9309 36.5582 52.2737 36.5577 51.4131Z" fill="#E56C87"/>
<path fill-rule="evenodd" clip-rule="evenodd" d="M12.2409 40.786C11.1946 41.0616 10.7548 41.4622 10.2677 42.5829C9.88972 43.4523 9.71433 44.2394 9.57122 45.709L9.45446 46.9084L9.91961 47.5125C10.1753 47.8448 10.6136 48.2876 10.8935 48.4965C12.051 49.3602 13.4942 51.789 13.5522 52.9707C13.5686 53.3055 13.7075 54.0444 13.8607 54.6128C14.2014 55.8772 14.3653 59.4766 14.1214 60.3416C13.7464 61.6721 12.7148 62.3638 11.1055 62.3638C10.2457 62.3638 10.0903 62.3222 9.8669 62.0316C9.50376 61.5593 9.43933 61.2553 9.59303 60.7395C9.79011 60.0775 10.3023 59.8283 11.3802 59.8695L12.2849 59.9042L12.3209 58.3079C12.364 56.3967 12.0464 54.6422 11.5262 53.9185C11.3474 53.6697 11.096 53.2259 10.9675 52.9321C10.6469 52.1995 10.0296 51.3155 9.54814 50.8994C8.5219 50.013 7.23011 50.9135 6.23287 53.2103C6.10943 53.4945 5.85082 53.9392 5.6579 54.1984C5.15619 54.873 4.88862 56.419 4.93503 58.3757L4.97172 59.9239L5.93479 59.8767C6.95221 59.8266 7.57534 60.0516 7.73043 60.525C7.88199 60.9875 7.80596 61.5899 7.54735 61.9748C7.30211 62.3399 7.22091 62.3638 6.22707 62.3638C4.48577 62.3638 3.45801 61.6593 3.12955 60.2406C2.8959 59.2315 3.05717 55.8494 3.39774 54.6128C3.55434 54.0444 3.69519 53.3364 3.71082 53.0393C3.7663 51.9825 5.10764 49.6651 6.24119 48.6679C7.29593 47.7399 7.80874 46.9835 7.80874 46.3555C7.80874 45.573 8.05701 43.8114 8.2643 43.1235C8.36202 42.7995 8.41372 42.5014 8.37942 42.4612C8.29696 42.3645 6.9169 43.3571 6.04348 44.1412C2.98227 46.8895 0.849088 51.0322 0.179174 55.5297C-0.0601445 57.1364 -0.0596398 60.0658 0.180183 61.3912C0.718838 64.3686 2.26621 66.258 4.95507 67.2218C7.01727 67.961 7.92033 67.9993 23.3808 68C33.7185 68.0006 38.1445 67.9511 39.142 67.8236C44.6809 67.1154 46.8965 64.4394 46.8965 58.4577C46.8965 55.5103 46.3336 52.8571 45.1288 50.1263C43.8297 47.1815 41.7941 44.6678 39.2777 42.9005C38.7974 42.5632 38.3821 42.3136 38.3547 42.3458C38.3272 42.378 38.4237 42.8551 38.5692 43.4064C38.7146 43.9577 38.9011 45.0347 38.9835 45.7998C39.0932 46.8167 39.1857 47.2084 39.327 47.2556C39.9098 47.4505 40.668 48.0248 41.0984 48.5975C41.7651 49.4842 42.0257 50.4596 41.9514 51.7898C41.8782 53.1032 41.5701 53.8355 40.7101 54.741C39.1623 56.3703 36.8506 56.1824 35.4452 54.3128C34.0507 52.4579 34.3028 49.5254 35.9861 48.0223C36.3171 47.7266 36.7628 47.4261 36.9764 47.3544C37.3552 47.2271 37.364 47.2038 37.3289 46.4281C37.2844 45.4438 36.8923 43.6124 36.5481 42.7797C36.4061 42.4366 36.0807 41.8856 35.8247 41.5555C35.4165 41.0289 35.2462 40.928 34.437 40.7343C32.952 40.3788 32.852 40.4032 32.6785 41.1626C32.2857 42.8827 28.2762 47.6451 24.1497 51.2931L23.4439 51.917L22.738 51.2931C18.6115 47.6451 14.6021 42.8827 14.2092 41.1626C14.0683 40.5459 14.0386 40.5142 13.6143 40.5276C13.3685 40.5353 12.7506 40.6516 12.2409 40.786ZM30.184 62.149C29.6496 61.5234 29.8519 60.3347 30.5499 59.9975C30.6986 59.9257 32.7874 59.8807 35.1918 59.8974L39.5633 59.9278L39.8886 60.2856C40.3321 60.7737 40.3394 61.6396 39.9042 62.149L39.5948 62.5114H35.0441H30.4934L30.184 62.149Z" fill="#34A087"/>
<path d="M21.3425 14.7479C18.9954 15.2465 15.5989 17.1367 13.8579 18.9132C12.9647 19.8247 12.338 19.9864 10.8979 19.6769C10.6716 19.6284 10.6368 19.7289 10.5588 20.6562C10.511 21.2246 10.529 22.4807 10.5987 23.4474C10.9894 28.8623 13.4267 35.1089 16.6259 38.8949C19.3934 42.1698 22.0822 43.3741 25.02 42.6543C29.5586 41.5423 34.189 34.6804 35.8719 26.5722C36.2681 24.6632 36.4795 22.0041 36.3422 20.6562C36.2486 19.7378 36.2092 19.6288 35.9873 19.6769C34.5161 19.9963 33.965 19.8404 32.9006 18.8032C32.5885 18.4991 31.936 17.953 31.4506 17.5896C28.0814 15.0674 24.5333 14.07 21.3425 14.7479Z" fill="#34A087"/>
<path fill-rule="evenodd" clip-rule="evenodd" d="M22.0483 0.0740753C19.9185 0.244154 16.8772 0.996219 14.2804 1.99499C12.9281 2.51511 12.2253 3.14803 11.6502 4.36368L11.2762 5.15428L11.2367 10.9121C11.1939 17.1507 11.2376 17.7048 11.7862 17.866C11.9833 17.9239 12.2015 17.8681 12.3804 17.7138C12.536 17.5797 13.1171 17.0762 13.6719 16.5946C14.9157 15.5149 17.2036 14.119 18.7173 13.5162C20.5863 12.7718 21.5756 12.5732 23.4439 12.5676C25.2846 12.562 26.8353 12.9004 28.6666 13.7075C30.0001 14.2953 32.1027 15.6299 33.2158 16.5953C33.7706 17.0764 34.3518 17.5797 34.5074 17.7138C34.6863 17.8681 34.9044 17.9239 35.1015 17.866C35.6501 17.7048 35.6939 17.1507 35.651 10.9121L35.6115 5.15428L35.2375 4.36368C34.6614 3.14582 33.9597 2.51467 32.6073 1.99779C29.9976 1.0002 27.0339 0.252717 25.1913 0.126929C24.5422 0.0827859 23.8694 0.0287505 23.696 0.0070478C23.5227 -0.0146549 22.7811 0.0154632 22.0483 0.0740753ZM22.3091 4.78519V3.53027V2.27535H23.4439H24.5787V3.53027V4.78519H25.572C26.2713 4.78519 26.6087 4.8466 26.7122 4.99262C26.8045 5.12283 26.8455 5.63144 26.8223 6.35826L26.7852 7.51648L25.7135 7.5903L24.6417 7.66412L24.5787 8.91903L24.5156 10.174H23.4439H22.3721L22.3091 8.91903L22.246 7.66412L21.1742 7.5903L20.1025 7.51648L20.0654 6.35826C20.0422 5.63144 20.0832 5.12283 20.1755 4.99262C20.279 4.8466 20.6164 4.78519 21.3157 4.78519H22.3091Z" fill="#E56C87"/>
</svg>
