<svg width="212" height="38" viewBox="0 0 212 38" fill="none" xmlns="http://www.w3.org/2000/svg">
<path d="M186.93 10.5987C189.327 6.86658 190.525 4.99958 192.321 4.99806C194.117 4.99655 195.321 6.86151 197.73 10.5895L198.352 11.5548C199.037 12.6147 199.381 13.1437 199.913 13.4929C200.444 13.8421 201.107 13.9709 202.436 14.2306L203.641 14.4652C208.308 15.375 210.643 15.8308 211.199 17.3756C211.757 18.9205 210.169 20.5309 206.992 23.7537L206.172 24.585C205.269 25.5014 204.819 25.9596 204.615 26.5257C204.415 27.0919 204.483 27.7022 204.621 28.921L204.748 30.0335C205.236 34.3291 205.479 36.4769 204.027 37.4324C202.576 38.3898 200.39 37.5204 196.02 35.7837L194.888 35.3327C193.647 34.8392 193.026 34.5925 192.368 34.593C191.709 34.5936 191.089 34.8414 189.847 35.3369L188.719 35.7899C184.354 37.5321 182.171 38.407 180.717 37.4521C179.263 36.4991 179.5 34.3509 179.973 30.0545L180.097 28.9436C180.231 27.7227 180.299 27.1123 180.093 26.5484C179.891 25.9806 179.437 25.5252 178.532 24.6103L177.707 23.7765C174.522 20.5611 172.929 18.9514 173.48 17.4056C174.035 15.8598 176.366 15.402 181.031 14.4844L182.236 14.2477C183.563 13.9858 184.226 13.8558 184.756 13.5057C185.289 13.1576 185.63 12.6261 186.311 11.565L186.93 10.5987Z" fill="#DB7495"/>
<path d="M144.529 10.6358C146.927 6.90369 148.124 5.03669 149.921 5.03517C151.717 5.03365 152.921 6.89862 155.33 10.6266L155.952 11.5919C156.636 12.6518 156.981 13.1808 157.512 13.53C158.044 13.8792 158.707 14.008 160.035 14.2677L161.241 14.5023C165.908 15.4121 168.243 15.8679 168.799 17.4128C169.357 18.9576 167.768 20.568 164.591 23.7908L163.771 24.6221C162.869 25.5385 162.419 25.9967 162.215 26.5628C162.015 27.129 162.083 27.7393 162.221 28.9581L162.347 30.0706C162.836 34.3662 163.078 36.514 161.627 37.4695C160.176 38.4269 157.99 37.5576 153.62 35.8208L152.488 35.3698C151.246 34.8763 150.626 34.6296 149.967 34.6301C149.309 34.6307 148.689 34.8785 147.447 35.374L146.318 35.827C141.954 37.5692 139.771 38.4441 138.317 37.4892C136.862 36.5362 137.1 34.388 137.573 30.0916L137.696 28.9808C137.83 27.7598 137.899 27.1494 137.692 26.5855C137.491 26.0178 137.037 25.5623 136.132 24.6474L135.307 23.8136C132.122 20.5982 130.528 18.9885 131.079 17.4427C131.635 15.8969 133.966 15.4391 138.631 14.5215L139.835 14.2848C141.163 14.0229 141.825 13.8929 142.356 13.5428C142.889 13.1947 143.229 12.6632 143.91 11.6021L144.529 10.6358Z" fill="#DB7495"/>
<path d="M59.7324 10.71C62.1299 6.97791 63.3275 5.11091 65.1239 5.10939C66.9202 5.10787 68.1237 6.97284 70.5329 10.7008L71.1548 11.6662C71.8393 12.7261 72.1838 13.255 72.7155 13.6042C73.2471 13.9534 73.9101 14.0823 75.2382 14.3419L76.4436 14.5766C81.1112 15.4863 83.4461 15.9421 84.0019 17.487C84.56 19.0318 82.9715 20.6423 79.7944 23.865L78.9745 24.6963C78.0722 25.6127 77.6221 26.0709 77.4177 26.637C77.2178 27.2032 77.2857 27.8135 77.4237 29.0323L77.5504 30.1448C78.0392 34.4404 78.2813 36.5882 76.8301 37.5437C75.3789 38.5011 73.1929 37.6318 68.8231 35.895L67.691 35.444C66.4495 34.9505 65.8287 34.7038 65.1704 34.7044C64.5121 34.7049 63.8921 34.9527 62.65 35.4483L61.5215 35.9012C57.1572 37.6434 54.9739 38.5184 53.5197 37.5634C52.0654 36.6104 52.3031 34.4622 52.7761 30.1658L52.8993 29.055C53.0335 27.834 53.1017 27.2236 52.8955 26.6597C52.6938 26.092 52.2401 25.6365 51.3349 24.7216L50.5101 23.8879C47.3252 20.6724 45.7315 19.0627 46.2825 17.517C46.838 15.9711 49.1692 15.5133 53.8339 14.5957L55.0385 14.359C56.3659 14.0971 57.0284 13.9671 57.559 13.617C58.0918 13.2689 58.4324 12.7374 59.1135 11.6763L59.7324 10.71Z" fill="#DB7495"/>
<path d="M102.133 10.6729C104.53 6.9408 105.728 5.0738 107.524 5.07228C109.321 5.07076 110.524 6.93573 112.933 10.6637L113.555 11.629C114.24 12.6889 114.584 13.2179 115.116 13.5671C115.648 13.9163 116.31 14.0452 117.639 14.3048L118.844 14.5394C123.512 15.4492 125.846 15.905 126.402 17.4499C126.96 18.9947 125.372 20.6051 122.195 23.8279L121.375 24.6592C120.473 25.5756 120.023 26.0338 119.818 26.5999C119.618 27.1661 119.686 27.7764 119.824 28.9952L119.951 30.1077C120.44 34.4033 120.682 36.5511 119.231 37.5066C117.779 38.464 115.593 37.5947 111.223 35.8579L110.091 35.4069C108.85 34.9134 108.229 34.6667 107.571 34.6673C106.913 34.6678 106.293 34.9156 105.05 35.4111L103.922 35.8641C99.5576 37.6063 97.3743 38.4813 95.9201 37.5263C94.4658 36.5733 94.7035 34.4251 95.1765 30.1287L95.2997 29.0179C95.4339 27.7969 95.5021 27.1865 95.2959 26.6226C95.0942 26.0549 94.6405 25.5994 93.7353 24.6845L92.9105 23.8508C89.7255 20.6353 88.1319 19.0256 88.6829 17.4798C89.2384 15.934 91.5696 15.4762 96.2343 14.5586L97.4389 14.3219C98.7663 14.06 99.4288 13.93 99.9594 13.5799C100.492 13.2318 100.833 12.7003 101.514 11.6392L102.133 10.6729Z" fill="#DB7495"/>
<path d="M17.3339 10.7426C19.7313 7.01062 20.9288 5.14365 22.7252 5.14217C24.5215 5.14069 25.7251 7.00569 28.1345 10.7338L28.7564 11.6991C29.441 12.759 29.7855 13.288 30.3172 13.6372C30.8488 13.9864 31.5118 14.1153 32.84 14.3749L34.0454 14.6096C38.713 15.5195 41.0479 15.9753 41.6038 17.5202C42.162 19.0651 40.5735 20.6755 37.3966 23.8982L36.5767 24.7294C35.6744 25.6458 35.2244 26.104 35.02 26.6701C34.8201 27.2363 34.888 27.8466 35.0261 29.0654L35.1529 30.1779C35.6419 34.4735 35.8841 36.6213 34.433 37.5768C32.9818 38.5341 30.7957 37.6647 26.4258 35.9279L25.2937 35.4768C24.0522 34.9833 23.4314 34.7366 22.7731 34.7371C22.1148 34.7377 21.4948 34.9854 20.2527 35.481L19.1243 35.9339C14.76 37.676 12.5768 38.5509 11.1225 37.5959C9.66823 36.6429 9.90575 34.4947 10.3786 30.1983L10.5017 29.0875C10.6359 27.8665 10.7041 27.2561 10.4979 26.6922C10.2961 26.1244 9.84236 25.6689 8.93711 24.7541L8.11233 23.9203C4.9272 20.7047 3.33351 19.095 3.88442 17.5493C4.4398 16.0035 6.771 15.5457 11.4356 14.6282L12.6403 14.3915C13.9676 14.1297 14.6302 13.9997 15.1607 13.6496C15.6935 13.3015 16.034 12.77 16.7151 11.709L17.3339 10.7426Z" fill="#DB7495"/>
</svg>
