<svg width="19" height="24" viewBox="0 0 19 24" fill="none" xmlns="http://www.w3.org/2000/svg">
<path d="M9.42867 0C6.9289 0.00283581 4.53233 0.997121 2.76472 2.76472C0.997121 4.53233 0.00283581 6.9289 0 9.42867C0 17.4966 8.57152 23.5899 8.93688 23.8449C9.081 23.9458 9.2527 24 9.42867 24C9.60463 24 9.77634 23.9458 9.92046 23.8449C10.2858 23.5899 18.8573 17.4966 18.8573 9.42867C18.8545 6.9289 17.8602 4.53233 16.0926 2.76472C14.325 0.997121 11.9284 0.00283581 9.42867 0ZM9.42867 6.00006C10.1068 6.00006 10.7697 6.20114 11.3335 6.57788C11.8973 6.95462 12.3368 7.4901 12.5963 8.1166C12.8558 8.74309 12.9237 9.43247 12.7914 10.0976C12.6591 10.7626 12.3326 11.3736 11.8531 11.8531C11.3736 12.3326 10.7626 12.6591 10.0976 12.7914C9.43247 12.9237 8.74309 12.8558 8.1166 12.5963C7.4901 12.3368 6.95463 11.8973 6.57789 11.3335C6.20115 10.7697 6.00006 10.1068 6.00006 9.42867C6.00006 8.51934 6.36129 7.64726 7.00428 7.00428C7.64726 6.36129 8.51934 6.00006 9.42867 6.00006Z" fill="white" fill-opacity="0.9"/>
</svg>
