<svg width="18" height="18" viewBox="0 0 18 18" fill="none" xmlns="http://www.w3.org/2000/svg">
<path fill-rule="evenodd" clip-rule="evenodd" d="M9.14562 17.4385C11.4956 17.4385 13.7493 16.5525 15.4109 14.9755C17.0726 13.3985 18.0061 11.2595 18.0061 9.02929C18.0061 6.79904 17.0726 4.66013 15.4109 3.08311C13.7493 1.50608 11.4956 0.620117 9.14562 0.620117C6.79568 0.620117 4.54199 1.50608 2.88033 3.08311C1.21867 4.66013 0.285156 6.79904 0.285156 9.02929C0.285156 11.2595 1.21867 13.3985 2.88033 14.9755C4.54199 16.5525 6.79568 17.4385 9.14562 17.4385ZM10.095 4.82471C10.095 4.58575 9.99494 4.35658 9.8169 4.18761C9.63887 4.01865 9.3974 3.92372 9.14562 3.92372C8.89384 3.92372 8.65237 4.01865 8.47434 4.18761C8.2963 4.35658 8.19629 4.58575 8.19629 4.82471V9.02929C8.19629 9.16917 8.2306 9.30712 8.29651 9.43222C8.36242 9.55733 8.45812 9.66616 8.57602 9.75008L11.1076 11.552C11.2073 11.623 11.3208 11.6747 11.4416 11.7041C11.5623 11.7334 11.688 11.7399 11.8114 11.7232C11.9349 11.7065 12.0536 11.6668 12.1609 11.6065C12.2681 11.5462 12.3619 11.4665 12.4367 11.3718C12.5115 11.2772 12.5659 11.1695 12.5968 11.0549C12.6278 10.9402 12.6346 10.821 12.617 10.7038C12.5993 10.5867 12.5576 10.474 12.4941 10.3722C12.4305 10.2704 12.3465 10.1815 12.2468 10.1105L10.095 8.5788V4.82471Z" fill="#DB7495"/>
</svg>
