<svg width="40" height="40" viewBox="0 0 40 40" fill="none" xmlns="http://www.w3.org/2000/svg">
<circle cx="20" cy="20" r="20" fill="#00323B"/>
<path d="M28.4615 12H12.0513C10.9231 12 10.0103 12.9474 10.0103 14.1053L10 26.7368C10 27.8947 10.9231 28.8421 12.0513 28.8421H28.4615C29.5897 28.8421 30.5128 27.8947 30.5128 26.7368V14.1053C30.5128 12.9474 29.5897 12 28.4615 12ZM28.0513 16.4737L20.8 21.1263C20.4718 21.3368 20.041 21.3368 19.7128 21.1263L12.4615 16.4737C12.3587 16.4144 12.2686 16.3344 12.1968 16.2384C12.125 16.1424 12.0729 16.0324 12.0437 15.9151C12.0144 15.7979 12.0087 15.6757 12.0268 15.5561C12.0449 15.4365 12.0865 15.3219 12.149 15.2193C12.2115 15.1166 12.2937 15.0281 12.3905 14.9589C12.4873 14.8898 12.5968 14.8416 12.7123 14.8172C12.8278 14.7927 12.947 14.7926 13.0625 14.8168C13.1781 14.841 13.2877 14.889 13.3846 14.9579L20.2564 19.3684L27.1282 14.9579C27.2252 14.889 27.3347 14.841 27.4503 14.8168C27.5659 14.7926 27.685 14.7927 27.8005 14.8172C27.916 14.8416 28.0255 14.8898 28.1223 14.9589C28.2192 15.0281 28.3013 15.1166 28.3638 15.2193C28.4263 15.3219 28.4679 15.4365 28.486 15.5561C28.5041 15.6757 28.4984 15.7979 28.4692 15.9151C28.4399 16.0324 28.3878 16.1424 28.316 16.2384C28.2442 16.3344 28.1541 16.4144 28.0513 16.4737Z" fill="#34A087"/>
</svg>
