<svg width="38" height="40" viewBox="0 0 38 40" fill="none" xmlns="http://www.w3.org/2000/svg">
<path d="M17.0533 17.951C17.6896 17.281 18.5525 16.9046 19.4524 16.9046C20.3522 16.9046 21.2152 17.281 21.8515 17.951C22.4878 18.6206 22.8452 19.5292 22.8452 20.4761C22.8452 21.4233 22.4878 22.3319 21.8515 23.0015C21.2152 23.6712 20.3522 24.0475 19.4524 24.0475C18.5525 24.0475 17.6896 23.6712 17.0533 23.0015C16.417 22.3319 16.0595 21.4233 16.0595 20.4761C16.0595 19.5292 16.417 18.6206 17.0533 17.951Z" fill="#00323B"/>
<path fill-rule="evenodd" clip-rule="evenodd" d="M11.5973 12.2077C12.3608 11.4038 13.3964 10.9525 14.4762 10.9525H24.4286C26.6792 10.9525 28.5 12.869 28.5 15.2382V25.7143C28.5 26.8509 28.071 27.9408 27.3075 28.7448C26.544 29.5483 25.5084 30 24.4286 30H14.4762C12.2256 30 10.4048 28.0835 10.4048 25.7143V15.2382C10.4048 14.1016 10.8337 13.0113 11.5973 12.2077ZM26.3895 13.1738C26.1244 12.8948 25.7648 12.7382 25.3899 12.7382C25.0149 12.7382 24.6554 12.8948 24.3902 13.1738C24.1251 13.4528 23.9762 13.8316 23.9762 14.2261C23.9762 14.6209 24.1251 14.9993 24.3902 15.2783C24.6554 15.5573 25.0149 15.7143 25.3899 15.7143C25.7648 15.7143 26.1244 15.5573 26.3895 15.2783C26.6546 14.9993 26.8036 14.6209 26.8036 14.2261C26.8036 13.8316 26.6546 13.4528 26.3895 13.1738ZM23.4509 16.2671C22.3904 15.151 20.9521 14.5239 19.4524 14.5239C17.9527 14.5239 16.5143 15.151 15.4539 16.2671C14.3934 17.3835 13.7976 18.8975 13.7976 20.4761C13.7976 22.055 14.3934 23.569 15.4539 24.6851C16.5143 25.8015 17.9527 26.4286 19.4524 26.4286C20.9521 26.4286 22.3904 25.8015 23.4509 24.6851C24.5114 23.569 25.1071 22.055 25.1071 20.4761C25.1071 18.8975 24.5114 17.3835 23.4509 16.2671Z" fill="#00323B"/>
<path fill-rule="evenodd" clip-rule="evenodd" d="M19 40C29.4934 40 38 31.0456 38 20C38 8.95438 29.4934 0 19 0C8.5066 0 0 8.95438 0 20C0 31.0456 8.5066 40 19 40ZM24.2024 8.57143H14.7024C12.9627 8.57143 11.2943 9.29897 10.0641 10.594C8.83396 11.8886 8.14286 13.645 8.14286 15.4761V25.4761C8.14286 29.2857 11.0833 32.3811 14.7024 32.3811H24.2024C25.9421 32.3811 27.6105 31.6535 28.8407 30.3585C30.0708 29.0635 30.7619 27.3075 30.7619 25.4761V15.4761C30.7619 11.6668 27.8214 8.57143 24.2024 8.57143Z" fill="#00323B"/>
</svg>
