<svg width="40" height="40" viewBox="0 0 40 40" fill="none" xmlns="http://www.w3.org/2000/svg">
<path d="M20 0C8.95417 0 0 8.95417 0 20C0 31.0458 8.95417 40 20 40C31.0458 40 40 31.0458 40 20C40 8.95417 31.0458 0 20 0ZM15.1042 28.2896H11.0542V15.2562H15.1042V28.2896ZM13.0542 13.6562C11.775 13.6562 10.9479 12.75 10.9479 11.6292C10.9479 10.4854 11.8 9.60625 13.1062 9.60625C14.4125 9.60625 15.2125 10.4854 15.2375 11.6292C15.2375 12.75 14.4125 13.6562 13.0542 13.6562ZM29.8958 28.2896H25.8458V21.0667C25.8458 19.3854 25.2583 18.2437 23.7938 18.2437C22.675 18.2437 22.0104 19.0167 21.7167 19.7604C21.6083 20.025 21.5812 20.4 21.5812 20.7729V28.2875H17.5292V19.4125C17.5292 17.7854 17.4771 16.425 17.4229 15.2542H20.9417L21.1271 17.0646H21.2083C21.7417 16.2146 23.0479 14.9604 25.2333 14.9604C27.8979 14.9604 29.8958 16.7458 29.8958 20.5833V28.2896Z" fill="#00323B"/>
</svg>
