<svg width="105" height="105" viewBox="0 0 105 105" fill="none" xmlns="http://www.w3.org/2000/svg">
<circle cx="52.5" cy="52.5" r="52.5" fill="#DB7192"/>
<path d="M74.1388 31.8612L80.4237 33.1175C80.7612 33.185 81.0387 33.4325 81.1362 33.7662C81.1855 33.9283 81.1899 34.1008 81.1489 34.2652C81.108 34.4296 81.0233 34.5799 80.9038 34.7L75.755 39.8525C75.1381 40.4659 74.3038 40.811 73.4338 40.8125H69.1625L58.4375 51.5412C58.6421 52.3138 58.6797 53.1211 58.5479 53.9094C58.416 54.6976 58.1177 55.4488 57.6728 56.1127C57.2279 56.7766 56.6466 57.3381 55.9676 57.7598C55.2887 58.1814 54.5277 58.4535 53.7353 58.558C52.943 58.6625 52.1375 58.597 51.3724 58.3657C50.6074 58.1345 49.9004 57.7428 49.2986 57.2169C48.6968 56.691 48.214 56.0429 47.8823 55.3158C47.5506 54.5886 47.3777 53.7992 47.375 53C47.3748 52.1368 47.5733 51.2852 47.955 50.511C48.3368 49.7369 48.8916 49.061 49.5764 48.5356C50.2613 48.0103 51.0579 47.6496 51.9045 47.4815C52.7512 47.3134 53.6251 47.3424 54.4587 47.5662L65.1875 36.8337V32.57C65.1875 31.7 65.5325 30.8637 66.1475 30.2487L71.3 25.0962C71.4201 24.9767 71.5704 24.892 71.7348 24.851C71.8992 24.8101 72.0716 24.8145 72.2337 24.8637C72.5675 24.9612 72.815 25.2387 72.8825 25.5762L74.1388 31.8612Z" fill="#7A1D55" fill-opacity="0.8"/>
<path d="M30.4996 53C30.5035 56.2173 31.1973 59.3964 32.5342 62.3229C33.8712 65.2493 35.8202 67.8549 38.2498 69.9641C40.6794 72.0732 43.5331 73.6367 46.6184 74.5492C49.7036 75.4617 52.9487 75.7018 56.1347 75.2536C59.3206 74.8053 62.3734 73.6789 65.0871 71.9505C67.8007 70.222 70.1121 67.9317 71.8654 65.2341C73.6186 62.5364 74.7729 59.4941 75.2504 56.3123C75.7279 53.1306 75.5175 49.8835 74.6334 46.79C74.5092 46.4286 74.4599 46.0457 74.4885 45.6646C74.5171 45.2835 74.6229 44.9123 74.7995 44.5734C74.9762 44.2345 75.2199 43.9352 75.516 43.6935C75.812 43.4519 76.1541 43.273 76.5215 43.1678C76.8888 43.0625 77.2738 43.0332 77.6528 43.0815C78.0319 43.1298 78.3972 43.2547 78.7264 43.4487C79.0557 43.6427 79.342 43.9016 79.568 44.2098C79.7939 44.518 79.9548 44.8689 80.0409 45.2412C81.7528 51.232 81.4276 57.6215 79.1163 63.4075C76.805 69.1934 72.6383 74.0484 67.2699 77.2108C61.9015 80.3731 55.6353 81.6638 49.4542 80.8805C43.2731 80.0971 37.5269 77.284 33.1171 72.8825C28.7121 68.4738 25.896 62.7271 25.1109 56.5445C24.3257 50.362 25.616 44.0938 28.7792 38.724C31.9424 33.3542 36.7993 29.187 42.5873 26.8765C48.3754 24.5661 54.7669 24.2432 60.7584 25.9587C61.4718 26.1673 62.0736 26.6497 62.4324 27.3007C62.7911 27.9516 62.8777 28.7181 62.673 29.4326C62.4684 30.1472 61.9892 30.7517 61.3402 31.114C60.6913 31.4763 59.9252 31.567 59.2096 31.3662C55.8593 30.4042 52.3312 30.2337 48.9037 30.8682C45.4762 31.5028 42.243 32.925 39.4591 35.0227C36.6752 37.1205 34.4168 39.8363 32.862 42.9561C31.3071 46.0759 30.4984 49.5142 30.4996 53Z" fill="#7A1D55" fill-opacity="0.8"/>
<path d="M41.7498 53C41.7501 55.0497 42.3099 57.0605 43.369 58.8154C44.428 60.5703 45.9461 62.0028 47.7595 62.9583C49.5729 63.9138 51.6127 64.356 53.659 64.2374C55.7052 64.1188 57.6803 63.4437 59.3711 62.285C61.0616 61.1234 62.4023 59.5217 63.2483 57.6532C64.0943 55.7847 64.4134 53.7205 64.1711 51.6838C64.1055 51.1895 64.1729 50.6867 64.3663 50.2272C64.5596 49.7676 64.872 49.3679 65.2712 49.0692C65.6703 48.7705 66.1419 48.5836 66.6373 48.5277C67.1328 48.4718 67.6341 48.549 68.0898 48.7513C68.5454 48.9509 68.9399 49.2678 69.2331 49.6697C69.5262 50.0715 69.7076 50.544 69.7586 51.0388C70.166 54.5191 69.48 58.04 67.7955 61.1128C66.1111 64.1855 63.5119 66.6577 60.3586 68.1861C57.2054 69.7146 53.6545 70.2235 50.1989 69.6422C46.7433 69.061 43.5544 67.4184 41.0747 64.9425C38.595 62.4666 36.9476 59.2801 36.3611 55.8254C35.7746 52.3707 36.2781 48.8191 37.8018 45.6635C39.3254 42.5079 41.7936 39.905 44.8638 38.2159C47.934 36.5268 51.4538 35.8353 54.9348 36.2375C55.3076 36.2721 55.6696 36.3807 55.9998 36.5571C56.33 36.7334 56.6217 36.9739 56.8578 37.2644C57.0938 37.5549 57.2695 37.8896 57.3745 38.2489C57.4796 38.6082 57.5118 38.9849 57.4694 39.3568C57.4269 39.7287 57.3107 40.0884 57.1274 40.4148C56.9442 40.7412 56.6976 41.0278 56.4022 41.2577C56.1067 41.4875 55.7684 41.6561 55.407 41.7536C55.0455 41.851 54.6683 41.8753 54.2973 41.825C52.7211 41.642 51.1239 41.7945 49.6107 42.2726C48.0976 42.7506 46.7027 43.5434 45.5176 44.5988C44.3326 45.6542 43.3843 46.9484 42.7349 48.3963C42.0855 49.8442 41.7498 51.4131 41.7498 53Z" fill="#7A1D55" fill-opacity="0.8"/>
</svg>
