<svg width="40" height="40" viewBox="0 0 40 40" fill="none" xmlns="http://www.w3.org/2000/svg">
<circle cx="20" cy="20" r="20" fill="#00323B"/>
<path d="M13.846 20.0005V15.9545C13.858 15.1592 14.0268 14.3741 14.3428 13.6442C14.6587 12.9142 15.1156 12.2538 15.6873 11.7008C16.2589 11.1477 16.934 10.7129 17.674 10.4212C18.414 10.1295 19.2043 9.98671 19.9995 10.001C20.7948 9.98671 21.585 10.1295 22.325 10.4212C23.065 10.7129 23.7401 11.1477 24.3118 11.7008C24.8834 12.2538 25.3403 12.9142 25.6563 13.6442C25.9722 14.3741 26.141 15.1592 26.1531 15.9545V20.0005M23.0763 28.077C23.8923 28.077 24.6749 27.7529 25.2519 27.1758C25.8289 26.5988 26.1531 25.8163 26.1531 25.0002V21.5389M23.0763 28.077C23.0763 28.587 22.8737 29.0761 22.5131 29.4368C22.1524 29.7974 21.6633 30 21.1533 30H18.8457C18.3357 30 17.8466 29.7974 17.486 29.4368C17.1253 29.0761 16.9227 28.587 16.9227 28.077C16.9227 27.567 17.1253 27.0779 17.486 26.7173C17.8466 26.3566 18.3357 26.154 18.8457 26.154H21.1533C21.6633 26.154 22.1524 26.3566 22.5131 26.7173C22.8737 27.0779 23.0763 27.567 23.0763 28.077ZM11.5384 17.6929H13.0768C13.2808 17.6929 13.4764 17.7739 13.6207 17.9182C13.7649 18.0624 13.846 18.2581 13.846 18.4621V23.0773C13.846 23.2813 13.7649 23.4769 13.6207 23.6212C13.4764 23.7654 13.2808 23.8465 13.0768 23.8465H11.5384C11.1304 23.8465 10.7391 23.6844 10.4506 23.3959C10.1621 23.1074 10 22.7161 10 22.3081V19.2313C10 18.8233 10.1621 18.432 10.4506 18.1435C10.7391 17.855 11.1304 17.6929 11.5384 17.6929ZM28.4606 23.8465H26.9223C26.7183 23.8465 26.5226 23.7654 26.3784 23.6212C26.2341 23.4769 26.1531 23.2813 26.1531 23.0773V18.4621C26.1531 18.2581 26.2341 18.0624 26.3784 17.9182C26.5226 17.7739 26.7183 17.6929 26.9223 17.6929H28.4606C28.8686 17.6929 29.2599 17.855 29.5484 18.1435C29.8369 18.432 29.999 18.8233 29.999 19.2313V22.3081C29.999 22.7161 29.8369 23.1074 29.5484 23.3959C29.2599 23.6844 28.8686 23.8465 28.4606 23.8465Z" stroke="#34A087" stroke-width="2" stroke-linecap="round" stroke-linejoin="round"/>
</svg>
