<svg width="105" height="105" viewBox="0 0 105 105" fill="none" xmlns="http://www.w3.org/2000/svg">
<circle cx="52.5" cy="52.5" r="52.5" fill="#FFC3C4"/>
<path d="M66.1103 24.2785C65.2911 23.5673 64.0542 23.6388 63.3225 24.4399L63.1203 24.6612C59.7222 28.3972 56.9209 30.0677 54.5892 31.1605C52.2575 32.251 50.2982 32.5768 48.3736 34.0486C46.4826 35.4965 43.8018 38.169 42.4099 42.7894C42.1873 43.5284 41.6003 44.1055 40.8597 44.3223C38.7786 44.9317 37.1748 45.8408 35.8661 46.9709C34.3353 48.2926 33.1813 49.7956 31.763 51.4319C31.7534 51.4429 31.7439 51.4542 31.7448 51.4687C31.7468 51.5024 31.7372 51.5332 31.7151 51.5586C29.6841 53.8951 27.8966 56.4025 24.4458 57.7306L24.258 57.8057C23.4983 58.1092 23 58.8448 23 59.6629V81C23 82.1046 23.8954 83 25 83H67.0967C69.625 82.8637 71.3784 81.1147 72.4448 79.3888C73.5089 77.6652 74.0988 75.7983 74.3972 74.2642C75.1275 70.5468 76.4288 60.188 76.5548 59.1799C76.562 59.1223 76.5742 59.0731 76.5931 59.0182C76.6233 58.9306 76.6387 58.8386 76.6387 58.7459V58.6687C76.581 57.4514 76.1777 56.3773 75.6225 55.3807C75.3243 54.8454 75.2331 54.2126 75.4287 53.6318L77.6374 47.0764C77.6931 46.9113 77.7701 46.7541 77.8664 46.6089L81.8434 40.6172L81.9923 40.4033C82.5681 39.5762 82.4386 38.4499 81.6901 37.7751L81.4802 37.5859L66.3009 24.444L66.1103 24.2785ZM63.4406 30.5987C64.2151 29.9103 65.3837 29.8744 66.1665 30.5535L75.5125 38.6611C76.2776 39.3249 76.4257 40.4559 75.8572 41.2943L73.7135 44.4554C73.6867 44.495 73.6563 44.5321 73.6228 44.5662C73.5152 44.676 73.4416 44.8144 73.4107 44.965L73.384 45.0948L71.9709 49.2806C71.6013 50.3756 70.3882 50.8839 69.25 50.6836C68.7883 50.6024 68.313 50.5638 67.8184 50.5821H67.6727L53.0717 50.6537H52.7585C51.6539 50.6537 50.7585 51.5492 50.7585 52.6537V59.6067C50.4347 62.1251 49.0328 63.1001 47.2887 63.7956C46.7241 64.0234 46.1321 63.4363 46.1321 62.8275V50.5844C45.7527 42.0196 48.8062 39.5544 51.1934 37.7314C51.8526 37.2254 53.7842 36.6409 56.5415 35.3493C58.5063 34.4253 60.8782 32.8761 63.4406 30.5987ZM40.293 49.7285C40.9353 49.4629 41.4706 49.9595 41.5057 50.6537V67.1373C41.5057 68.2419 42.4011 69.1373 43.5057 69.1373H43.8077C43.8151 69.1373 43.8215 69.1373 43.829 69.1371C44.0031 69.1338 46.3928 69.0704 48.9519 68.0537C51.6074 66.9978 54.8159 64.5257 55.3849 60.1843V57.2631C55.3849 56.1631 56.2733 55.2695 57.3734 55.2632L67.8184 55.203H67.8901C68.9056 55.1475 69.9017 55.4961 70.6604 56.1725C71.378 56.8122 71.8279 57.696 71.925 58.6478C71.9361 58.7564 71.943 58.7713 71.928 58.8793C71.8552 59.4076 71.3996 59.8955 70.8663 59.8955H64.3245C63.22 59.8955 62.3245 60.791 62.3245 61.8955V62.5164C62.3245 63.621 63.22 64.5164 64.3245 64.5164H68.9232C70.1359 64.5164 71.0669 65.5868 70.8696 66.7833C70.8339 66.9999 70.7981 67.2151 70.762 67.4334C70.6005 68.4113 69.7586 69.1373 68.7674 69.1373H64.3245C63.22 69.1373 62.3245 70.0327 62.3245 71.1373V71.7582C62.3245 72.8628 63.22 73.7582 64.3245 73.7582H67.2227C68.5196 73.7582 69.4747 74.9849 68.8984 76.1468C68.7655 76.4147 68.6221 76.6777 68.4684 76.9351C67.8369 77.9632 67.2933 78.3514 66.8075 78.3791H29.6264C28.5218 78.3791 27.6264 77.4837 27.6264 76.3791V62.326C27.6264 61.5855 28.0404 60.9127 28.6716 60.5254C31.8179 58.595 33.8532 56.1113 35.2161 54.5538C36.7798 52.7655 37.8531 51.4116 38.9033 50.5105C39.2772 50.1911 39.7661 49.9464 40.293 49.7285Z" fill="#7A1D55" fill-opacity="0.8"/>
</svg>
