<svg width="138" height="64" viewBox="0 0 138 64" fill="none" xmlns="http://www.w3.org/2000/svg">
<g clip-path="url(#clip0_1050_5649)">
<path d="M131.2 12.6485C129.827 10.7732 128.958 10.552 127.338 9.99382C127.382 8.69623 128.198 7.45005 129.198 6.6052C130.098 5.85008 131.384 6.56573 131.211 7.67295C131.183 7.85171 131.138 8.04208 131.073 8.2435C131.059 8.28685 131.118 8.32152 131.154 8.29081C131.463 8.02949 131.764 7.76434 132.078 7.52041C133.55 6.37625 135.211 8.0034 133.882 9.28554C133.582 9.57503 133.257 9.8457 132.937 10.1203C132.909 10.1443 132.934 10.1878 132.972 10.1819C133.248 10.1386 133.515 10.1292 133.766 10.1473C134.807 10.2224 135.322 11.2744 134.658 12.0054C133.676 12.8268 132.613 12.6254 131.2 12.6485Z" fill="#DB7495"/>
<path d="M100.936 41.6127C100.936 53.3785 91.935 62.9129 80.838 62.9129C69.7402 62.9129 60.74 53.3785 60.74 41.6127C60.74 29.8469 69.7402 20.3125 80.838 20.3125C91.935 20.3125 100.936 29.8469 100.936 41.6127ZM80.838 51.966C86.1558 51.966 90.4638 47.4271 90.4638 41.8325C90.4638 36.2378 86.1558 31.699 80.838 31.699C75.5194 31.699 71.2121 36.2378 71.2121 41.8325C71.2121 47.4271 75.5194 51.966 80.838 51.966Z" fill="#34A087"/>
<path fill-rule="evenodd" clip-rule="evenodd" d="M30.2197 60.7634C29.8751 60.5181 29.4228 60.4501 29.0254 60.6063C27.3661 61.2582 22.8804 62.9129 20.0978 62.9129C8.99809 62.9129 0 53.3764 0 41.6127C0 29.849 8.99809 20.3125 20.0978 20.3125C31.1975 20.3125 40.1956 29.849 40.1956 41.6127C40.1956 41.689 40.1952 41.7653 40.1944 41.8416L40.1956 41.8323V61.8159C40.1956 62.4187 39.6764 62.9057 39.0457 62.8876C34.7009 62.764 32.4156 62.3271 30.2197 60.7634ZM20.0978 51.9334C25.3953 51.9334 29.6899 47.411 29.6899 41.8323C29.6899 36.2536 25.3953 31.7311 20.0978 31.7311C14.8002 31.7311 10.5057 36.2536 10.5057 41.8323C10.5057 47.411 14.8002 51.9334 20.0978 51.9334Z" fill="#005351"/>
<path d="M134.481 15.1583C134.481 18.5465 131.593 21.2931 128.03 21.2931C124.468 21.2931 121.579 18.5465 121.579 15.1583C121.579 11.7701 124.468 9.02344 128.03 9.02344C131.593 9.02344 134.481 11.7701 134.481 15.1583Z" fill="#FF9BB1"/>
<path d="M117.719 63.9019V0.49121C117.719 0.150985 117.377 -0.0860319 117.054 0.0296784L104.593 4.48689C104.514 4.51501 104.461 4.58882 104.461 4.67149V63.9019C104.461 63.9561 104.506 64 104.56 64H117.62C117.674 64 117.719 63.9561 117.719 63.9019Z" fill="#FF9BB1"/>
<path d="M104.461 21.7074V9.01953H91.454C91.1718 9.01953 90.9455 9.25457 90.9678 9.53315C91.5872 17.3321 98.3652 21.7074 104.461 21.7074Z" fill="#FF9BB1"/>
<path fill-rule="evenodd" clip-rule="evenodd" d="M121.811 9.67959C122.036 9.42145 121.855 9.01953 121.512 9.01953H117.719V21.7074H121.561C121.897 21.7074 122.085 21.3171 121.886 21.0493C120.741 19.5088 119.593 17.3323 119.593 15.0431C119.593 12.5469 120.798 10.8457 121.811 9.67959Z" fill="#FF9BB1"/>
<path d="M134.481 51.3273V23.7404C134.481 23.4913 134.25 23.3051 134.003 23.3561L131.582 23.8569C125.696 25.0746 121.48 30.2074 121.48 36.1549V63.4066C121.48 63.6218 121.657 63.7963 121.874 63.7963C128.837 63.7963 134.481 58.2137 134.481 51.3273Z" fill="#FF9BB1"/>
<path d="M43.7685 51.4295V0.85826C43.7685 0.493948 44.2266 0.326069 44.4666 0.60242L54.0005 11.5792C55.9796 13.8578 57.0677 16.7622 57.0677 19.7661V63.6011C57.0677 63.8179 56.89 63.9937 56.6708 63.9937H56.4723C49.4562 63.9937 43.7685 58.3685 43.7685 51.4295Z" fill="#34A087"/>
<path d="M133.274 15.1311C132.748 12.8746 132.036 12.3357 130.764 11.1971C131.316 10.019 132.559 9.18618 133.813 8.79394C134.939 8.44564 135.842 9.60088 135.245 10.5535C135.149 10.7073 135.033 10.8653 134.894 11.0258C134.864 11.0604 134.904 11.1148 134.949 11.1005C135.336 10.979 135.718 10.851 136.104 10.7474C137.911 10.2617 138.799 12.4005 137.069 13.0687C136.678 13.2195 136.273 13.3435 135.869 13.4728C135.835 13.4841 135.84 13.5338 135.878 13.543C136.149 13.6096 136.399 13.704 136.623 13.8176C137.551 14.2881 137.611 15.4555 136.711 15.8725C135.482 16.2498 134.583 15.6545 133.274 15.1311Z" fill="#FF9BB1"/>
<path d="M123.161 19.1815C122.974 18.982 122.811 18.7687 122.653 18.5479C122.735 18.5839 122.823 18.6185 122.904 18.6559L122.905 18.6559C123.626 18.9887 124.532 18.9183 125.388 18.6261C126.399 18.2807 127.139 17.5059 127.341 16.5798C127.365 16.469 127.441 16.3748 127.551 16.3375C127.761 16.2655 127.979 16.4296 127.931 16.6433C127.686 17.7307 126.816 18.7017 125.572 19.1266C124.759 19.4045 123.899 19.4096 123.161 19.1815Z" fill="#DB7495"/>
</g>
<defs>
<clipPath id="clip0_1050_5649">
<rect width="138" height="64" fill="white"/>
</clipPath>
</defs>
</svg>
