<svg width="105" height="105" viewBox="0 0 105 105" fill="none" xmlns="http://www.w3.org/2000/svg">
<circle cx="52.5" cy="52.5" r="52.5" fill="#FF9BB1"/>
<path d="M82.6026 50.7193C76.0793 36.9364 66.2186 30 53 30C39.7744 30 29.9207 36.9363 23.3974 50.7262C23.1357 51.2819 23 51.8889 23 52.5034C23 53.118 23.1357 53.725 23.3974 54.2807C29.9207 68.0636 39.7813 75 53 75C66.2255 75 76.0793 68.0636 82.6026 54.2738C83.1325 53.1557 83.1325 51.8581 82.6026 50.7193ZM53 70.0307C41.9007 70.0307 33.7741 64.385 28.0421 52.5C33.7741 40.615 41.9007 34.9693 53 34.9693C64.0992 34.9693 72.2259 40.615 77.9579 52.5C72.2327 64.385 64.1061 70.0307 53 70.0307ZM52.7247 40.3528C46.0363 40.3528 40.6139 45.7914 40.6139 52.5C40.6139 59.2086 46.0363 64.6472 52.7247 64.6472C59.4132 64.6472 64.8355 59.2086 64.8355 52.5C64.8355 45.7914 59.4132 40.3528 52.7247 40.3528ZM52.7247 60.2301C48.4653 60.2301 45.0179 56.7722 45.0179 52.5C45.0179 48.2278 48.4653 44.7699 52.7247 44.7699C56.9842 44.7699 60.4316 48.2278 60.4316 52.5C60.4316 56.7722 56.9842 60.2301 52.7247 60.2301Z" fill="#7A1D55" fill-opacity="0.8"/>
</svg>
