<svg width="21" height="21" viewBox="0 0 21 21" fill="none" xmlns="http://www.w3.org/2000/svg">
<path d="M21 10.5C21 10.8342 20.8672 11.1547 20.631 11.391C20.3947 11.6272 20.0742 11.76 19.74 11.76H11.76V19.74C11.76 20.0742 11.6272 20.3947 11.391 20.631C11.1547 20.8672 10.8342 21 10.5 21C10.1658 21 9.84534 20.8672 9.60904 20.631C9.37275 20.3947 9.24 20.0742 9.24 19.74V11.76H1.26C0.925827 11.76 0.605341 11.6272 0.369045 11.391C0.13275 11.1547 0 10.8342 0 10.5C0 10.1658 0.13275 9.84534 0.369045 9.60904C0.605341 9.37275 0.925827 9.24 1.26 9.24H9.24V1.26C9.24 0.925827 9.37275 0.605341 9.60904 0.369045C9.84534 0.13275 10.1658 0 10.5 0C10.8342 0 11.1547 0.13275 11.391 0.369045C11.6272 0.605341 11.76 0.925827 11.76 1.26V9.24H19.74C20.0742 9.24 20.3947 9.37275 20.631 9.60904C20.8672 9.84534 21 10.1658 21 10.5Z" fill="white"/>
</svg>
