<svg width="14" height="14" viewBox="0 0 14 14" fill="none" xmlns="http://www.w3.org/2000/svg">
<path d="M6.99984 1.16602C10.2216 1.16602 12.8332 3.7776 12.8332 6.99935C12.8332 10.2211 10.2216 12.8327 6.99984 12.8327C3.77809 12.8327 1.1665 10.2211 1.1665 6.99935C1.1665 3.7776 3.77809 1.16602 6.99984 1.16602ZM6.99984 2.33268C5.76216 2.33268 4.57518 2.82435 3.70001 3.69952C2.82484 4.57469 2.33317 5.76167 2.33317 6.99935C2.33317 8.23703 2.82484 9.42401 3.70001 10.2992C4.57518 11.1743 5.76216 11.666 6.99984 11.666C8.23751 11.666 9.4245 11.1743 10.2997 10.2992C11.1748 9.42401 11.6665 8.23703 11.6665 6.99935C11.6665 5.76167 11.1748 4.57469 10.2997 3.69952C9.4245 2.82435 8.23751 2.33268 6.99984 2.33268ZM6.99984 8.74935C7.15455 8.74935 7.30292 8.81081 7.41232 8.9202C7.52171 9.0296 7.58317 9.17797 7.58317 9.33268C7.58317 9.48739 7.52171 9.63577 7.41232 9.74516C7.30292 9.85456 7.15455 9.91602 6.99984 9.91602C6.84513 9.91602 6.69675 9.85456 6.58736 9.74516C6.47796 9.63577 6.4165 9.48739 6.4165 9.33268C6.4165 9.17797 6.47796 9.0296 6.58736 8.9202C6.69675 8.81081 6.84513 8.74935 6.99984 8.74935ZM6.99984 3.49935C7.15455 3.49935 7.30292 3.56081 7.41232 3.6702C7.52171 3.7796 7.58317 3.92797 7.58317 4.08268V7.58268C7.58317 7.73739 7.52171 7.88576 7.41232 7.99516C7.30292 8.10456 7.15455 8.16602 6.99984 8.16602C6.84513 8.16602 6.69675 8.10456 6.58736 7.99516C6.47796 7.88576 6.4165 7.73739 6.4165 7.58268V4.08268C6.4165 3.92797 6.47796 3.7796 6.58736 3.6702C6.69675 3.56081 6.84513 3.49935 6.99984 3.49935Z" fill="#1049B5"/>
</svg>
