<svg width="36" height="36" viewBox="0 0 36 36" fill="none" xmlns="http://www.w3.org/2000/svg">
<path d="M15.8349 24.3504C15.4443 24.7411 14.811 24.741 14.4205 24.3504L8.89151 18.8201C8.50107 18.4296 8.5011 17.7965 8.89159 17.406L9.79141 16.5062C10.1819 16.1157 10.815 16.1156 11.2055 16.5061L15.1277 20.4268L23.6758 11.8772C24.0663 11.4866 24.6996 11.4865 25.0901 11.8771L25.9913 12.7783C26.3818 13.1688 26.3819 13.8019 25.9914 14.1925L15.8349 24.3504Z" fill="black" fill-opacity="0.5"/>
<path fill-rule="evenodd" clip-rule="evenodd" d="M0 18C0 8.05909 8.05909 0 18 0C27.9409 0 36 8.05909 36 18C36 27.9409 27.9409 36 18 36C8.05909 36 0 27.9409 0 18ZM18 32.7273C16.066 32.7273 14.1509 32.3463 12.3641 31.6062C10.5773 30.8661 8.9538 29.7813 7.58625 28.4138C6.21869 27.0462 5.13389 25.4227 4.39377 23.6359C3.65366 21.8491 3.27273 19.934 3.27273 18C3.27273 16.066 3.65366 14.1509 4.39377 12.3641C5.13389 10.5773 6.21869 8.9538 7.58625 7.58625C8.9538 6.21869 10.5773 5.13389 12.3641 4.39377C14.1509 3.65366 16.066 3.27273 18 3.27273C21.9059 3.27273 25.6519 4.82435 28.4138 7.58625C31.1757 10.3481 32.7273 14.0941 32.7273 18C32.7273 21.9059 31.1757 25.6519 28.4138 28.4138C25.6519 31.1757 21.9059 32.7273 18 32.7273Z" fill="black" fill-opacity="0.5"/>
</svg>
