<svg width="22" height="22" viewBox="0 0 22 22" fill="none" xmlns="http://www.w3.org/2000/svg">
<path d="M11.0142 8.02383C10.4006 7.96323 9.78327 8.09377 9.24672 8.39758C8.71017 8.70139 8.28064 9.16362 8.01694 9.72098C7.75323 10.2783 7.66825 10.9036 7.77362 11.5111C7.879 12.1186 8.16958 12.6787 8.60557 13.1147C9.04157 13.5507 9.60167 13.8413 10.2092 13.9467C10.8167 14.052 11.442 13.9671 11.9993 13.7034C12.5567 13.4397 13.0189 13.0101 13.3227 12.4736C13.6265 11.937 13.7571 11.3197 13.6965 10.7061C13.6274 10.0182 13.3226 9.37539 12.8337 8.88655C12.3449 8.39771 11.7021 8.09292 11.0142 8.02383ZM18.2152 11C18.2132 11.3251 18.1894 11.6496 18.1437 11.9715L20.2563 13.6285C20.3483 13.7048 20.4102 13.8112 20.4312 13.9288C20.4522 14.0464 20.4307 14.1677 20.3708 14.271L18.3722 17.729C18.3115 17.8313 18.2166 17.9089 18.1043 17.9482C17.9919 17.9874 17.8694 17.9857 17.7581 17.9435L15.66 17.0986C15.5443 17.0525 15.419 17.0359 15.2953 17.0502C15.1715 17.0644 15.0533 17.1092 14.9511 17.1804C14.6309 17.4009 14.2944 17.5968 13.9446 17.7664C13.8346 17.8198 13.7395 17.8995 13.6676 17.9985C13.5957 18.0974 13.5493 18.2125 13.5324 18.3336L13.218 20.5715C13.1973 20.6897 13.1362 20.797 13.0452 20.8752C12.9542 20.9533 12.8388 20.9975 12.7189 21H8.72169C8.60372 20.998 8.48996 20.9558 8.39916 20.8805C8.30836 20.8051 8.24593 20.7011 8.22216 20.5855L7.90814 18.3509C7.89051 18.2285 7.84289 18.1123 7.76952 18.0126C7.69615 17.913 7.5993 17.8331 7.48758 17.7799C7.13815 17.6112 6.8028 17.4148 6.48478 17.1925C6.38295 17.1217 6.2651 17.0773 6.14184 17.0633C6.01858 17.0494 5.89378 17.0663 5.7787 17.1126L3.68104 17.957C3.56987 17.9993 3.44734 18.0011 3.33501 17.9619C3.22269 17.9228 3.12779 17.8452 3.06702 17.743L1.06842 14.285C1.00833 14.1817 0.986861 14.0605 1.00783 13.9428C1.02879 13.8251 1.09083 13.7187 1.18291 13.6425L2.96842 12.2407C3.06624 12.163 3.14312 12.0622 3.19208 11.9473C3.24105 11.8324 3.26054 11.7071 3.2488 11.5827C3.23197 11.3879 3.22169 11.1935 3.22169 10.9986C3.22169 10.8037 3.23151 10.6121 3.2488 10.4215C3.25925 10.2979 3.23881 10.1737 3.18929 10.0599C3.13978 9.94624 3.06275 9.84663 2.96515 9.77009L1.18057 8.36822C1.08999 8.29163 1.02926 8.18561 1.00901 8.06873C0.988759 7.95185 1.01029 7.83157 1.06982 7.72897L3.06842 4.27103C3.12912 4.16869 3.22399 4.09106 3.33632 4.05182C3.44865 4.01258 3.57122 4.01425 3.68244 4.05654L5.78057 4.9014C5.89627 4.94747 6.0216 4.96411 6.14531 4.94984C6.26903 4.93557 6.38727 4.89083 6.48945 4.81963C6.80966 4.59912 7.14614 4.40323 7.49599 4.23364C7.60598 4.18019 7.70111 4.10047 7.77299 4.00153C7.84488 3.90259 7.89129 3.78748 7.90814 3.66636L8.22263 1.4285C8.24328 1.31032 8.30434 1.20297 8.39537 1.12482C8.4864 1.04666 8.60174 1.00254 8.72169 1H12.7189C12.8369 1.00204 12.9506 1.04421 13.0414 1.11955C13.1322 1.19489 13.1946 1.29892 13.2184 1.41449L13.5324 3.64907C13.5501 3.77153 13.5977 3.88773 13.6711 3.98735C13.7444 4.08698 13.8413 4.16692 13.953 4.22009C14.3024 4.38876 14.6378 4.58519 14.9558 4.80748C15.0576 4.87832 15.1755 4.92272 15.2987 4.93667C15.422 4.95062 15.5468 4.93368 15.6619 4.88738L17.7595 4.04299C17.8707 4.00066 17.9932 3.99892 18.1056 4.03807C18.2179 4.07722 18.3128 4.15475 18.3736 4.25701L20.3722 7.71495C20.4322 7.81827 20.4537 7.93955 20.4328 8.05721C20.4118 8.17487 20.3497 8.28128 20.2577 8.35748L18.4722 9.75935C18.3739 9.83674 18.2966 9.93748 18.2472 10.0524C18.1978 10.1673 18.178 10.2927 18.1894 10.4173C18.2049 10.6107 18.2152 10.8051 18.2152 11Z" stroke="white" stroke-width="1.5" stroke-linecap="round" stroke-linejoin="round"/>
</svg>
