<svg width="47" height="68" viewBox="0 0 47 68" fill="none" xmlns="http://www.w3.org/2000/svg">
<path fill-rule="evenodd" clip-rule="evenodd" d="M13.0061 33.103L12.9585 29.7469V24.65H23.496H34.0335L33.9381 29.7469L33.8905 33.103L33.4761 34.3459C32.9245 36.0006 32.2052 37.2412 31.0959 38.4521C29.6715 40.0068 28.321 40.865 26.3087 41.4944C25.3269 41.8014 24.9533 41.8475 23.4483 41.8475C21.9433 41.8475 21.5698 41.8014 20.5879 41.4944C18.5832 40.8674 17.1729 39.9625 15.7308 38.378C14.6642 37.206 13.9626 35.985 13.4252 34.3657L13.0061 33.103ZM15.8187 46.6269L15.7824 45.1425L15.7461 43.6581L16.68 44.188C20.7136 46.4772 26.1831 46.4772 30.2166 44.188L31.1505 43.6581L31.1142 45.1422L31.078 46.6264L27.2971 48.9281L23.5163 51.2298L22.8091 50.8114C22.4202 50.5813 20.6882 49.5456 18.9603 48.5099L15.8187 46.6269ZM3.89337 53.1705C4.246 52.9583 6.52527 52.1149 8.95842 51.2961C12.7684 50.0139 13.418 49.8303 13.6388 49.9736C13.7798 50.065 15.1359 50.8766 16.6522 51.777C18.1685 52.6774 19.4559 53.4562 19.5132 53.508C19.5704 53.5595 18.8491 54.0662 17.9104 54.6337C16.9715 55.2013 16.0681 55.7928 15.9027 55.948C15.7917 56.0522 15.6994 56.1384 15.6226 56.2375C15.2403 56.7306 15.2417 57.5431 15.2417 62.474V68L8.26252 67.9635C1.44176 67.9277 1.27519 67.9206 0.929225 67.6528C0.691633 67.4689 0.518267 67.3366 0.390958 67.1671C0.0438993 66.7052 0.0391232 65.9669 0.0085393 63.1532C-0.0356998 59.0827 0.0681655 58.3106 0.892679 56.5774C1.49548 55.3099 2.80176 53.8269 3.89337 53.1705ZM19.0885 58.594L26.2956 54.2036C30.2596 51.789 33.5632 49.8326 33.6368 49.8561C33.7105 49.8798 35.7396 50.5603 38.146 51.3685C43.0188 53.0053 43.4993 53.2488 44.805 54.7441C45.2051 55.2021 45.7466 56.0363 46.0286 56.6291C46.8269 58.3071 46.9321 59.1053 46.8881 63.1532C46.8575 65.9669 46.8527 66.7051 46.5057 67.1671C46.3783 67.3366 46.2049 67.4689 45.9673 67.6528C45.6157 67.9249 45.5194 67.9272 32.3509 67.962L19.0885 67.9971V63.2955V58.594ZM23.6407 61.0817C23.6407 60.18 23.9099 59.6916 24.6115 59.3209C25.1935 59.0132 26.7641 59.0035 27.3746 59.3037C28.0559 59.6389 28.3851 60.2182 28.3851 61.0817C28.3851 62.4429 27.626 63.0756 25.9935 63.0752C24.3673 63.0749 23.6407 62.4593 23.6407 61.0817Z" fill="#34A087"/>
<path d="M21.7833 0.135829C19.8821 0.509587 17.5296 2.06191 16.476 3.63802L16.1191 4.17181L15.1864 4.09871C12.6696 3.90133 9.9204 5.32286 8.46923 7.57192C7.48699 9.09407 7.22733 10.0277 7.22733 12.0359C7.22733 13.427 7.27554 13.8421 7.52379 14.5865C8.26547 16.8117 10.0485 18.6903 12.1853 19.4978L12.9335 19.7806V21.092L12.9812 22.1H23.496H34.0108L33.9631 21.092V19.7806L34.7113 19.4978C36.8061 18.7061 38.4568 17.0044 39.3066 14.7607C39.6253 13.9189 39.6594 13.6656 39.6642 12.1024C39.6702 10.0919 39.4359 9.17249 38.56 7.76758C37.076 5.38772 34.2916 3.89628 31.7103 4.09871L30.7775 4.17181L30.4263 3.6464C29.4612 2.20293 27.3915 0.74405 25.6458 0.276852C24.4963 -0.0308476 22.9228 -0.0882671 21.7833 0.135829Z" fill="#E56C87"/>
</svg>
