<svg width="22" height="22" viewBox="0 0 22 22" fill="none" xmlns="http://www.w3.org/2000/svg">
<path d="M10.4752 2.05078H3.10561C2.54717 2.05078 2.0116 2.27263 1.61672 2.66753C1.22184 3.06242 1 3.59801 1 4.15648V18.8964C1 19.4548 1.22184 19.9904 1.61672 20.3853C2.0116 20.7802 2.54717 21.002 3.10561 21.002H17.8449C18.4033 21.002 18.9389 20.7802 19.3338 20.3853C19.7286 19.9904 19.9505 19.4548 19.9505 18.8964V11.5264" stroke="black" stroke-opacity="0.6" stroke-width="2" stroke-linecap="round" stroke-linejoin="round"/>
<path d="M17.1875 1.65416C17.6063 1.23531 18.1744 1 18.7667 1C19.359 1 19.9271 1.23531 20.3459 1.65416C20.7647 2.073 21 2.64109 21 3.23343C21 3.82577 20.7647 4.39385 20.3459 4.8127L10.4759 14.6832L6.26465 15.736L7.31745 11.5246L17.1875 1.65416Z" stroke="black" stroke-opacity="0.6" stroke-width="2" stroke-linecap="round" stroke-linejoin="round"/>
</svg>
