<svg width="27" height="27" viewBox="0 0 27 27" fill="none" xmlns="http://www.w3.org/2000/svg">
<path d="M12.4631 2.26953H3.54735C2.87175 2.26953 2.22382 2.53791 1.7461 3.01563C1.26838 3.49335 1 4.14128 1 4.81688V22.6483C1 23.3239 1.26838 23.9718 1.7461 24.4496C2.22382 24.9273 2.87175 25.1957 3.54735 25.1957H21.3788C22.0544 25.1957 22.7023 24.9273 23.18 24.4496C23.6578 23.9718 23.9261 23.3239 23.9261 22.6483V13.7326" stroke="#002430" stroke-width="2" stroke-linecap="round" stroke-linejoin="round"/>
<path d="M20.5835 1.79136C21.0902 1.28466 21.7774 1 22.494 1C23.2106 1 23.8978 1.28466 24.4045 1.79136C24.9112 2.29806 25.1959 2.98529 25.1959 3.70187C25.1959 4.41845 24.9112 5.10568 24.4045 5.61238L12.4638 17.5531L7.36914 18.8268L8.64281 13.7321L20.5835 1.79136Z" stroke="#002430" stroke-width="2" stroke-linecap="round" stroke-linejoin="round"/>
</svg>
