<svg width="27" height="27" viewBox="0 0 27 27" fill="none" xmlns="http://www.w3.org/2000/svg">
<path d="M12.4631 2.31055H3.54735C2.87175 2.31055 2.22382 2.57893 1.7461 3.05665C1.26838 3.53437 1 4.1823 1 4.8579V22.6893C1 23.3649 1.26838 24.0129 1.7461 24.4906C2.22382 24.9683 2.87175 25.2367 3.54735 25.2367H21.3788C22.0544 25.2367 22.7023 24.9683 23.18 24.4906C23.6578 24.0129 23.9261 23.3649 23.9261 22.6893V13.7736" stroke="#34A087" stroke-width="2" stroke-linecap="round" stroke-linejoin="round"/>
<path d="M20.5835 1.83238C21.0902 1.32568 21.7774 1.04102 22.494 1.04102C23.2106 1.04102 23.8978 1.32568 24.4045 1.83238C24.9112 2.33907 25.1959 3.02631 25.1959 3.74289C25.1959 4.45947 24.9112 5.1467 24.4045 5.6534L12.4638 17.5941L7.36914 18.8678L8.64281 13.7731L20.5835 1.83238Z" stroke="#34A087" stroke-width="2" stroke-linecap="round" stroke-linejoin="round"/>
</svg>
