<svg width="98" height="18" viewBox="0 0 98 18" fill="none" xmlns="http://www.w3.org/2000/svg">
<path d="M86.4691 4.90796C87.5795 3.17952 88.1341 2.31485 88.9661 2.31414C89.7981 2.31344 90.3554 3.17717 91.4712 4.90373L91.7592 5.3508C92.0763 5.84168 92.2358 6.08667 92.482 6.24838C92.7283 6.4101 93.0353 6.46978 93.6504 6.59003L94.2087 6.6987C96.3704 7.12003 97.4517 7.33114 97.7092 8.04662C97.9676 8.76209 97.2319 9.50793 95.7605 11.0005L95.3808 11.3855C94.9629 11.8099 94.7545 12.0221 94.6598 12.2843C94.5672 12.5465 94.5986 12.8292 94.6626 13.3936L94.7213 13.9089C94.9476 15.8983 95.0598 16.8931 94.3877 17.3356C93.7156 17.779 92.7031 17.3764 90.6793 16.572L90.155 16.3631C89.58 16.1346 89.2925 16.0203 88.9877 16.0206C88.6828 16.0208 88.3957 16.1356 87.8204 16.3651L87.2977 16.5749C85.2765 17.3817 84.2653 17.787 83.5918 17.3447C82.9183 16.9033 83.0284 15.9084 83.2474 13.9186L83.3045 13.4041C83.3667 12.8387 83.3982 12.556 83.3028 12.2948C83.2093 12.0319 82.9992 11.8209 82.58 11.3972L82.198 11.0111C80.7229 9.5219 79.9849 8.77641 80.2401 8.0605C80.4973 7.34459 81.577 7.13254 83.7373 6.70756L84.2952 6.59795C84.91 6.47665 85.2168 6.41645 85.4626 6.25432C85.7093 6.09308 85.867 5.84693 86.1825 5.35552L86.4691 4.90796Z" fill="#A3A3A3"/>
<path d="M66.8314 4.92554C67.9418 3.1971 68.4964 2.33243 69.3284 2.33172C70.1604 2.33102 70.7177 3.19475 71.8335 4.92131L72.1215 5.36838C72.4386 5.85925 72.5981 6.10424 72.8443 6.26596C73.0906 6.42768 73.3976 6.48736 74.0127 6.60761L74.571 6.71628C76.7327 7.13761 77.814 7.34872 78.0715 8.0642C78.3299 8.77967 77.5942 9.52551 76.1228 11.0181L75.7431 11.4031C75.3252 11.8275 75.1168 12.0397 75.0221 12.3019C74.9295 12.5641 74.961 12.8468 75.0249 13.4112L75.0836 13.9265C75.3099 15.9159 75.4221 16.9106 74.75 17.3531C74.0779 17.7965 73.0654 17.3939 71.0416 16.5896L70.5173 16.3807C69.9423 16.1522 69.6548 16.0379 69.35 16.0381C69.0451 16.0384 68.758 16.1532 68.1827 16.3827L67.66 16.5925C65.6388 17.3993 64.6276 17.8045 63.9541 17.3623C63.2806 16.9209 63.3907 15.926 63.6097 13.9362L63.6668 13.4217C63.729 12.8563 63.7606 12.5735 63.6651 12.3124C63.5716 12.0495 63.3615 11.8385 62.9423 11.4148L62.5603 11.0287C61.0852 9.53948 60.3472 8.79399 60.6024 8.07808C60.8596 7.36217 61.9393 7.15012 64.0996 6.72514L64.6576 6.61553C65.2723 6.49423 65.5791 6.43403 65.8249 6.2719C66.0716 6.11066 66.2293 5.86451 66.5448 5.37309L66.8314 4.92554Z" fill="#DB7495"/>
<path d="M27.5595 4.95874C28.6698 3.2303 29.2245 2.36563 30.0564 2.36492C30.8884 2.36422 31.4458 3.22795 32.5616 4.95451L32.8496 5.40158C33.1666 5.89246 33.3261 6.13745 33.5724 6.29916C33.8186 6.46088 34.1256 6.52056 34.7407 6.64081L35.299 6.74949C37.4607 7.17081 38.5421 7.38192 38.7995 8.0974C39.058 8.81287 38.3223 9.55871 36.8508 11.0513L36.4711 11.4363C36.0532 11.8607 35.8448 12.0729 35.7501 12.3351C35.6575 12.5973 35.689 12.88 35.7529 13.4444L35.8116 13.9597C36.038 15.9491 36.1501 16.9438 35.478 17.3863C34.8059 17.8297 33.7935 17.4271 31.7697 16.6228L31.2453 16.4139C30.6704 16.1854 30.3829 16.0711 30.078 16.0714C29.7731 16.0716 29.486 16.1864 28.9107 16.4159L28.3881 16.6257C26.3668 17.4325 25.3556 17.8377 24.6821 17.3955C24.0086 16.9541 24.1187 15.9592 24.3378 13.9694L24.3948 13.4549C24.457 12.8895 24.4886 12.6067 24.3931 12.3456C24.2997 12.0827 24.0895 11.8717 23.6703 11.448L23.2883 11.0619C21.8133 9.57268 21.0752 8.82719 21.3304 8.11128C21.5876 7.39537 22.6673 7.18333 24.8277 6.75834L25.3856 6.64873C26.0003 6.52744 26.3072 6.46724 26.5529 6.3051C26.7996 6.14386 26.9574 5.89771 27.2729 5.4063L27.5595 4.95874Z" fill="#DB7495"/>
<path d="M47.1967 4.94312C48.307 3.21467 48.8617 2.35 49.6936 2.3493C50.5256 2.3486 51.083 3.21232 52.1988 4.93889L52.4868 5.38595C52.8038 5.87683 52.9633 6.12182 53.2096 6.28354C53.4558 6.44526 53.7628 6.50494 54.378 6.62519L54.9362 6.73386C57.0979 7.15519 58.1793 7.3663 58.4367 8.08177C58.6952 8.79725 57.9595 9.54309 56.4881 11.0357L56.1083 11.4207C55.6904 11.8451 55.482 12.0573 55.3873 12.3195C55.2947 12.5817 55.3262 12.8643 55.3901 13.4288L55.4488 13.944C55.6752 15.9335 55.7873 16.9282 55.1152 17.3707C54.4431 17.8141 53.4307 17.4115 51.4069 16.6072L50.8826 16.3983C50.3076 16.1697 50.0201 16.0555 49.7152 16.0557C49.4103 16.056 49.1232 16.1707 48.5479 16.4002L48.0253 16.61C46.004 17.4169 44.9928 17.8221 44.3193 17.3799C43.6458 16.9385 43.7559 15.9436 43.975 13.9538L44.032 13.4393C44.0942 12.8739 44.1258 12.5911 44.0303 12.33C43.9369 12.067 43.7267 11.8561 43.3075 11.4324L42.9255 11.0462C41.4505 9.55705 40.7124 8.81157 40.9676 8.09566C41.2248 7.37974 42.3045 7.1677 44.4649 6.74272L45.0228 6.6331C45.6375 6.51181 45.9444 6.45161 46.1901 6.28948C46.4368 6.12824 46.5946 5.88208 46.9101 5.39067L47.1967 4.94312Z" fill="#DB7495"/>
<path d="M7.92346 4.97652C9.03373 3.2481 9.58835 2.38344 10.4203 2.38276C11.2523 2.38207 11.8097 3.24582 12.9256 4.97241L13.2136 5.41948C13.5306 5.91037 13.6902 6.15536 13.9364 6.31708C14.1827 6.47881 14.4897 6.53849 15.1048 6.65876L15.6631 6.76745C17.8248 7.18883 18.9062 7.39996 19.1637 8.11545C19.4222 8.83093 18.6865 9.57675 17.2151 11.0693L16.8354 11.4543C16.4176 11.8787 16.2091 12.0909 16.1145 12.3531C16.0219 12.6153 16.0534 12.8979 16.1173 13.4624L16.176 13.9776C16.4025 15.9671 16.5147 16.9618 15.8426 17.4043C15.1705 17.8477 14.1581 17.4451 12.1342 16.6407L11.6099 16.4318C11.0349 16.2032 10.7474 16.0889 10.4425 16.0892C10.1376 16.0894 9.85051 16.2042 9.27523 16.4337L8.75262 16.6434C6.73138 17.4503 5.72025 17.8555 5.04673 17.4132C4.37321 16.9718 4.48321 15.9769 4.70219 13.9871L4.75923 13.4726C4.82136 12.9072 4.85294 12.6244 4.75743 12.3633C4.66399 12.1004 4.45385 11.8894 4.0346 11.4657L3.65262 11.0795C2.17747 9.59031 1.43938 8.8448 1.69453 8.1289C1.95174 7.41299 3.0314 7.20098 5.19175 6.77605L5.74966 6.66645C6.36439 6.54517 6.67124 6.48498 6.91695 6.32285C7.16369 6.16162 7.32142 5.91547 7.63687 5.42406L7.92346 4.97652Z" fill="#DB7495"/>
</svg>
