<svg width="44" height="39" viewBox="0 0 44 39" fill="none" xmlns="http://www.w3.org/2000/svg">
<path d="M21.055 0.730341C21.3655 -0.166894 22.6345 -0.166894 22.945 0.730341L27.3799 13.544C27.5193 13.9468 27.8987 14.2169 28.3249 14.2169H42.5356C43.5195 14.2169 43.9119 15.4887 43.099 16.0431L31.7134 23.8088C31.3405 24.0631 31.1842 24.5356 31.3318 24.962L35.706 37.6001C36.0211 38.5105 34.9933 39.2961 34.1975 38.7534L22.5635 30.8182C22.2236 30.5864 21.7764 30.5864 21.4365 30.8182L9.80246 38.7534C9.00665 39.2961 7.97892 38.5105 8.29399 37.6001L12.6682 24.962C12.8158 24.5356 12.6595 24.0631 12.2866 23.8088L0.900965 16.0431C0.0880906 15.4887 0.480491 14.2169 1.46444 14.2169H15.6751C16.1013 14.2169 16.4807 13.9468 16.6201 13.544L21.055 0.730341Z" fill="#34A087"/>
</svg>
