<svg width="68" height="68" viewBox="0 0 68 68" fill="none" xmlns="http://www.w3.org/2000/svg">
<path d="M24.6422 39.1026V40.099H26.6306H28.619V39.1026V38.1061H26.6306H24.6422V39.1026Z" fill="#34A087"/>
<path d="M47.4422 24.3272C46.6429 24.554 45.7234 25.2063 45.2614 25.8745C44.9267 26.3586 44.5265 27.5003 44.5265 27.9712C44.5265 28.1059 45.3594 28.1415 48.5151 28.1415H52.5036L52.4124 27.5768C52.2 26.2606 51.2981 25.0449 50.1594 24.5401C49.4129 24.2091 48.195 24.1137 47.4422 24.3272Z" fill="#34A087"/>
<path d="M25.1402 13.9834C23.8672 14.5019 23.152 14.9936 22.0552 16.1044C20.881 17.2936 20.2301 18.388 19.7164 20.0369C19.4168 20.9986 19.4059 21.1891 19.4059 25.4843C19.4059 29.8332 19.413 29.9527 19.7139 30.6993C20.3087 32.176 21.4755 33.294 22.9654 33.8151C23.572 34.0273 24.1643 34.0538 28.2876 34.0538H32.9273L33.5799 33.7319C34.4128 33.3211 35.1155 32.6155 35.5192 31.785C35.9451 30.9085 35.9601 29.4253 35.5522 28.5203C35.1974 27.7329 34.3338 26.8658 33.5436 26.5034C32.9864 26.248 32.6224 26.2142 29.7458 26.1515C26.725 26.0856 26.5434 26.0671 26.1498 25.7859C25.4317 25.2723 25.305 24.8087 25.305 22.6942C25.305 20.5797 25.4317 20.116 26.1498 19.6025C26.4579 19.3823 26.7515 19.3062 27.2934 19.3062C28.5489 19.3062 29.2818 20.1095 29.2818 21.4853V22.1627L31.0383 22.165C33.1537 22.1678 34.2195 22.374 35.5275 23.0335C37.2771 23.9157 39.1394 26.1176 39.5387 27.7761C39.6124 28.082 39.6971 28.1415 40.0588 28.1415H40.4909L40.6438 27.0179C41.1084 23.6027 44.0364 20.6765 47.4424 20.2237C48.0951 20.137 48.1217 20.1177 48.0458 19.786C48.002 19.5952 47.7209 18.9347 47.4209 18.3184C46.9947 17.4427 46.6406 16.9607 45.8004 16.113C44.6906 14.9934 43.9757 14.5019 42.7029 13.9834L41.9642 13.6824L41.1867 14.3685C39.0179 16.2827 36.5843 17.2468 33.9215 17.2468C31.2587 17.2468 28.8252 16.2827 26.6563 14.3685L25.8788 13.6824L25.1402 13.9834Z" fill="#34A087"/>
<path d="M32.4344 0.181151C29.1118 0.988551 26.85 4.31448 27.4024 7.58115C27.889 10.4597 30.0286 12.63 32.8838 13.1414C37.1472 13.9051 41.163 9.92642 40.4407 5.65465C39.7886 1.79781 36.1154 -0.713274 32.4344 0.181151Z" fill="#34A087"/>
<path fill-rule="evenodd" clip-rule="evenodd" d="M0.0277817 65.6373C0.0319668 65.6017 0.0365988 65.5645 0.0416601 65.5256C0.035955 65.547 0.0312179 65.5848 0.0277817 65.6373Z" fill="black" fill-opacity="0.985"/>
<path d="M6.76054 44.2287C3.74952 44.8212 1.58172 47.9281 2.07923 50.9376C2.61809 54.1969 5.66491 56.4595 8.81128 55.937C12.0632 55.3969 14.3207 52.3432 13.7993 49.1897C13.2395 45.8044 10.0776 43.5758 6.76054 44.2287Z" fill="#E56C87"/>
<path d="M39.4826 32.6212C39.1064 33.7849 38.5 34.7434 37.5158 35.7298C36.2342 37.0143 34.8117 37.7563 33.093 38.037L32.5959 38.1182V41.1015V44.0849H26.0521C22.2607 44.0849 19.2156 44.1406 18.8121 44.2172C18.4291 44.29 17.7732 44.5037 17.3545 44.6919L16.5934 45.0343L17.0434 46.0776C18.167 48.6823 18.167 51.445 17.0434 54.0498L16.5934 55.093L17.3589 55.4373C17.7799 55.6267 18.4555 55.843 18.8602 55.918C19.3317 56.0052 22.9179 56.0402 28.8465 56.0151L38.0972 55.976L38.9589 55.6661C40.2794 55.1909 41.195 54.6148 42.1485 53.659C43.1053 52.7 43.6817 51.7783 44.147 50.4623C44.4398 49.634 44.4543 49.4045 44.4996 44.8547L44.5469 40.1107L50.9991 40.0717C57.2786 40.0337 57.4678 40.0249 58.0676 39.7471C58.856 39.3819 59.6388 38.596 60.0432 37.7637C60.4691 36.8872 60.4841 35.4041 60.0762 34.4991C59.7224 33.7137 58.8598 32.8463 58.0676 32.4793C57.4592 32.1974 57.338 32.1932 48.5483 32.1562L39.6452 32.1184L39.4826 32.6212Z" fill="#E56C87"/>
<path d="M48.4687 49.0388C48.428 49.5771 48.2941 50.4314 48.1709 50.9374C47.8789 52.1379 46.8348 54.3313 46.1381 55.2082C45.835 55.5897 45.587 55.9355 45.587 55.9767C45.587 56.0179 49.4794 56.0346 54.2367 56.0138C62.767 55.9766 62.8949 55.972 63.5027 55.6905C64.291 55.3253 65.0738 54.5394 65.4783 53.7071C65.9042 52.8307 65.9192 51.3475 65.5113 50.4425C65.1575 49.6571 64.2949 48.7897 63.5027 48.4227C62.8998 48.1433 62.7313 48.1364 55.7144 48.0986L48.5425 48.0601L48.4687 49.0388Z" fill="#E56C87"/>
<path d="M4.7721 60.1721C2.36119 60.6465 0.442348 62.7276 0.0779336 65.263C0.0641495 65.3589 0.0520077 65.4459 0.0416601 65.5256C0.0517393 65.4877 0.0648399 65.5011 0.0791266 65.5753C0.110677 65.7398 0.110677 66.0087 0.0791266 66.1731C0.0474442 66.3376 0.0215946 66.203 0.0215946 65.8742C0.0215946 65.7776 0.0238262 65.6977 0.0277817 65.6373C-0.0384721 66.2009 0.00729566 66.3668 0.23555 66.8395C0.457592 67.2992 0.673006 67.521 1.09588 67.7263L1.65993 68H33.9215C66.0572 68 66.1852 67.9989 66.7381 67.7307C67.1544 67.5287 67.3805 67.2928 67.6417 66.7883C67.9686 66.1569 68.129 65.1081 67.8746 65.2657C67.8111 65.305 67.7273 65.0995 67.6884 64.8089C67.6495 64.5184 67.4356 63.8903 67.2129 63.4135C66.453 61.7859 64.7851 60.5095 62.9671 60.1639C62.0798 59.9952 5.63031 60.0031 4.7721 60.1721Z" fill="#E56C87"/>
</svg>
