<svg width="68" height="68" viewBox="0 0 68 68" fill="none" xmlns="http://www.w3.org/2000/svg">
<path d="M16.3182 1.64036C14.9242 1.95588 13.8366 2.56607 12.7863 3.62211C11.3043 5.11205 10.5936 6.77337 10.5936 8.74795C10.5936 9.27484 10.6868 10.065 10.8008 10.5037C10.9147 10.9425 10.9895 11.3193 10.9672 11.341C10.9448 11.3626 10.5721 11.5365 10.1387 11.7273C8.19518 12.5833 5.77956 14.6461 4.55637 16.4943C3.82416 17.6008 3.03923 19.3357 2.72864 20.5341C2.411 21.7599 -0.102339 42.9078 0.00323233 43.4667C0.0992181 43.9753 0.548395 44.5799 1.00529 44.8157C1.25651 44.9454 4.65728 45.3487 11.2823 46.0346L21.1837 47.0598L21.7113 46.8021C22.379 46.476 22.8415 45.7974 22.8415 45.1439C22.8415 44.4331 21.6647 33.5684 21.5785 33.4822C21.5389 33.4429 20.0247 33.1275 18.2135 32.7814C14.6302 32.0968 13.8199 31.8504 12.6377 31.0856C11.0235 30.0412 9.39546 27.7515 9.39546 26.5257C9.39546 25.1956 10.6272 24.2393 11.8982 24.5826C12.537 24.7552 12.9368 25.1315 13.3534 25.9523C13.8823 26.9948 14.4084 27.5715 15.1589 27.9313C15.6747 28.1785 17.5744 28.5884 22.5821 29.5325C26.2835 30.2304 29.6253 30.8014 30.0083 30.8014C30.8079 30.8014 31.3821 30.594 31.9837 30.0877C33.5141 28.7999 33.2191 26.0559 31.4513 25.1346C31.2443 25.0267 28.957 24.3804 26.3686 23.6982C23.7802 23.0161 21.4865 22.3543 21.2715 22.2275C20.6487 21.8605 20.4442 21.3573 19.7818 18.5615L19.1578 15.9281L19.9013 15.7139C22.3209 15.0171 24.2024 13.1278 24.909 10.6856C25.2069 9.65559 25.2069 7.8403 24.909 6.8103C23.8363 3.1024 20.0163 0.803524 16.3182 1.64036Z" fill="#34A087"/>
<path fill-rule="evenodd" clip-rule="evenodd" d="M35.5298 5.52256C36.4808 2.78448 38.6892 0.758487 41.3464 0.186957C43.9954 -0.382846 46.604 0.361658 48.6051 2.25852C51.7839 5.27174 51.906 10.1649 48.8824 13.363C48.1799 14.106 46.8104 15.0997 46.2125 15.3001C46.1354 15.3259 49.6669 18.978 54.0602 23.4158C58.4534 27.8535 62.1493 31.6745 62.2734 31.9069C62.7748 32.8455 62.6952 34.2388 62.0919 35.0842C61.9419 35.2945 61.8406 35.4781 61.867 35.4921C61.8932 35.5061 62.3277 35.7229 62.8324 35.9737C64.4047 36.7553 65.6196 38.2181 66.0947 39.9018C66.1773 40.194 66.6649 46.2266 67.1784 53.3076C67.8905 63.1272 68.0789 66.2821 67.9724 66.6041C67.7298 67.3375 66.8293 68 66.0752 68C65.9199 68 65.5418 67.8787 65.2348 67.7303C65.1828 67.7051 65.1333 67.6827 65.0863 67.6614C64.9759 67.6113 64.8788 67.5673 64.792 67.5081C64.1624 67.0787 64.0762 65.8524 63.3648 55.7259L63.233 53.8512C62.7492 46.9828 62.2976 41.1398 62.2293 40.8668C61.955 39.7699 60.463 38.9491 59.3872 39.3034C59.1261 39.3894 58.7322 39.6111 58.5118 39.7962C57.8071 40.388 57.6991 40.7575 57.7105 42.5393C57.7193 43.9106 57.6831 44.2102 57.4693 44.5329C56.6555 45.761 54.8218 45.7224 54.0602 44.4611C53.8243 44.0704 53.7939 43.7846 53.7939 41.9543V39.8886L54.299 38.8684C54.8793 37.6963 55.7641 36.7243 56.7755 36.1479L57.478 35.7476L55.3696 34.0312C50.2489 29.8623 48.6069 28.5429 48.539 28.5429C48.4991 28.5429 47.8831 32.6231 47.1701 37.6101L47.0758 38.2694C45.9761 45.964 45.8452 46.8802 45.3179 47.3675C45.2467 47.4333 45.1681 47.4913 45.079 47.5572L45.0227 47.599C44.6617 47.868 44.505 47.8736 36.1779 47.9073C27.9034 47.9408 27.6903 47.9352 27.2668 47.676C27.0281 47.5299 26.7139 47.2156 26.5684 46.9773C26.3145 46.5621 26.3037 46.297 26.3033 40.4664C26.3029 36.1716 26.3453 34.3884 26.4478 34.3884C26.5275 34.3884 27.3212 34.5145 28.2117 34.6687C29.6144 34.9116 29.973 34.9295 30.8958 34.8032C34.8746 34.2582 37.6803 30.4092 36.917 26.5428C36.6124 24.9999 36.0296 23.8915 34.9686 22.8372C33.8303 21.7061 32.9067 21.2632 30.2068 20.5543L28.0533 19.9888L28.2623 19.5828C29.7512 16.6905 32.9388 14.0599 36.4512 12.8249C36.6558 12.7529 36.6308 12.6577 36.2272 11.9748C35.4259 10.6189 35.1728 9.66994 35.1719 8.01726C35.1712 6.77284 35.2243 6.40244 35.5298 5.52256ZM31.4948 51.9273L38.2511 51.8917C41.9671 51.872 45.0591 51.8416 45.122 51.8241C45.1851 51.8064 45.2024 51.9863 45.1605 52.2238C45.1187 52.4613 44.687 55.7045 44.2013 59.431C43.2299 66.8851 43.1646 67.163 42.2783 67.6288C41.8477 67.8551 41.4671 67.8709 37.2622 67.8371C32.9001 67.8022 32.6966 67.7893 32.3365 67.5256L32.2826 67.4863C32.1608 67.3976 32.0578 67.3226 31.9707 67.2322C31.4949 66.7384 31.4949 65.786 31.4951 59.6284L31.4951 59.1333L31.4948 51.9273Z" fill="#E56C87"/>
<path d="M3.61967 49.8325C3.21842 52.6133 2.06859 63.5576 2.12025 64.1041C2.2559 65.5394 3.22495 66.9005 4.58339 67.5639C5.64669 68.083 7.13041 68.0901 8.21794 67.5814C9.06717 67.184 9.91573 66.3812 10.2688 65.6411C10.5731 65.0033 15.1376 50.5695 15.0596 50.4918C15.0156 50.448 4.23673 49.2794 3.78595 49.2697C3.73922 49.2686 3.66454 49.522 3.61967 49.8325Z" fill="#34A087"/>
<path d="M18.5294 53.1408C16.4542 59.6421 15.653 62.2459 15.6534 62.4866C15.6546 63.0396 16.557 65.5874 16.9573 66.1681C18.0665 67.7768 20.4188 68.4201 22.2449 67.6141C23.5108 67.0553 24.6012 65.6214 24.7849 64.2739C24.8532 63.7729 23.7852 52.618 23.5694 51.5776C23.5159 51.3199 23.3707 51.2835 21.8117 51.1376C20.877 51.0502 19.9217 50.9466 19.6887 50.9072L19.2651 50.8359L18.5294 53.1408Z" fill="#34A087"/>
</svg>
