<svg width="17" height="20" viewBox="0 0 17 20" fill="none" xmlns="http://www.w3.org/2000/svg">
<path d="M8.10127 15.038C8.38819 15.038 8.62886 14.9408 8.82329 14.7463C9.01772 14.5519 9.1146 14.3116 9.11392 14.0253V9.97468C9.11392 9.68777 9.01671 9.44743 8.82228 9.25367C8.62785 9.05992 8.38751 8.9627 8.10127 8.96203C7.81502 8.96135 7.57468 9.05857 7.38025 9.25367C7.18582 9.44878 7.08861 9.68912 7.08861 9.97468V14.0253C7.08861 14.3122 7.18582 14.5529 7.38025 14.7473C7.57468 14.9418 7.81502 15.0387 8.10127 15.038ZM8.10127 6.93671C8.38819 6.93671 8.62886 6.83949 8.82329 6.64506C9.01772 6.45063 9.1146 6.2103 9.11392 5.92405C9.11325 5.63781 9.01603 5.39747 8.82228 5.20304C8.62852 5.00861 8.38819 4.91139 8.10127 4.91139C7.81435 4.91139 7.57401 5.00861 7.38025 5.20304C7.1865 5.39747 7.08928 5.63781 7.08861 5.92405C7.08793 6.2103 7.18515 6.45097 7.38025 6.64608C7.57536 6.84118 7.8157 6.93806 8.10127 6.93671ZM8.10127 20C7.98312 20 7.87342 19.9916 7.77215 19.9747C7.67089 19.9578 7.56962 19.9325 7.46835 19.8987C5.18987 19.1392 3.37553 17.734 2.02532 15.683C0.675106 13.6321 0 11.4255 0 9.06329V4.27848C0 3.85654 0.122532 3.47679 0.367595 3.13924C0.612658 2.80169 0.928945 2.55696 1.31646 2.40506L7.39241 0.126582C7.62869 0.0421941 7.86498 0 8.10127 0C8.33755 0 8.57384 0.0421941 8.81013 0.126582L14.8861 2.40506C15.2743 2.55696 15.5909 2.80169 15.8359 3.13924C16.081 3.47679 16.2032 3.85654 16.2025 4.27848V9.06329C16.2025 11.4262 15.5274 13.6331 14.1772 15.6841C12.827 17.735 11.0127 19.1399 8.73418 19.8987C8.63291 19.9325 8.53164 19.9578 8.43038 19.9747C8.32911 19.9916 8.21941 20 8.10127 20Z" fill="white"/>
</svg>
