<svg width="50" height="61" viewBox="0 0 50 61" fill="none" xmlns="http://www.w3.org/2000/svg">
<path d="M25 0C18.3719 0.00720481 12.0174 2.53334 7.33063 7.0242C2.64385 11.5151 0.00751913 17.6039 0 23.9549C0 44.4528 22.7273 59.9336 23.696 60.5815C24.0782 60.838 24.5334 60.9756 25 60.9756C25.4666 60.9756 25.9218 60.838 26.304 60.5815C27.2727 59.9336 50 44.4528 50 23.9549C49.9925 17.6039 47.3561 11.5151 42.6694 7.0242C37.9826 2.53334 31.6281 0.00720481 25 0ZM25 15.2441C26.798 15.2441 28.5556 15.7549 30.0506 16.7121C31.5456 17.6693 32.7108 19.0297 33.3989 20.6214C34.087 22.2131 34.267 23.9646 33.9162 25.6544C33.5655 27.3441 32.6996 28.8962 31.4282 30.1145C30.1569 31.3327 28.537 32.1623 26.7735 32.4985C25.0101 32.8346 23.1822 32.6621 21.5211 32.0028C19.8599 31.3435 18.4401 30.227 17.4412 28.7945C16.4423 27.362 15.9091 25.6778 15.9091 23.9549C15.9091 21.6447 16.8669 19.429 18.5718 17.7954C20.2766 16.1618 22.5889 15.2441 25 15.2441Z" fill="#34A087"/>
</svg>
