<svg width="62" height="68" viewBox="0 0 62 68" fill="none" xmlns="http://www.w3.org/2000/svg">
<path fill-rule="evenodd" clip-rule="evenodd" d="M14.7696 22.6229C15.0955 20.3595 16.6918 18.5836 18.7784 18.1634C19.6339 17.991 20.7803 18.1195 21.5836 18.478C22.7175 18.9838 23.6334 19.9991 24.5243 21.7378C25.4603 23.5643 25.7393 23.8087 26.8899 23.8087C28.0404 23.8087 28.3194 23.5643 29.2555 21.7378C30.0903 20.1082 31.0174 19.0366 32.018 18.5442C34.3422 17.4005 37.2268 18.4276 38.4443 20.8323C39.3266 22.5749 39.2836 24.4311 38.3163 26.3659C37.2052 28.5883 35.1149 30.6467 28.5775 35.9558L26.8894 37.3269L24.0993 35.069C18.4114 30.4661 16.5078 28.5388 15.3917 26.2526C14.7843 25.0086 14.5896 23.8726 14.7696 22.6229Z" fill="#E56C87"/>
<path fill-rule="evenodd" clip-rule="evenodd" d="M24.9608 0.0317863C22.6058 0.305839 21.9321 0.416151 20.521 0.758384C15.5824 1.9564 11.4571 4.19614 7.93887 7.58963C0.583291 14.6844 -1.86884 25.1687 1.62747 34.5741C2.34082 36.493 2.99078 37.7536 4.50566 40.1562C9.7172 48.4209 12.0007 55.4288 12.366 64.2786C12.4688 66.7693 12.6534 67.2955 13.5759 67.7262C14.1524 67.9955 14.3402 68 24.823 68C35.3057 68 35.4935 67.9955 36.0701 67.7262C36.7585 67.4047 37.2242 66.6247 37.2242 65.793C37.2242 63.9444 38.5188 61.7652 40.2555 60.6902C41.6691 59.8152 42.0902 59.7598 47.3206 59.7598C51.7827 59.7598 52.0481 59.7461 52.605 59.486C53.0308 59.2872 53.2692 59.0573 53.4753 58.6466C53.7433 58.1126 53.7592 57.8497 53.7592 53.9364V49.7919L52.9669 49.7913C51.0761 49.79 48.216 49.1127 46.3873 48.2333C43.9701 47.0707 41.5952 45.189 41.4222 44.299C41.1293 42.7938 42.3477 41.593 43.8854 41.8713C44.1636 41.9216 44.6957 42.2472 45.2289 42.6936C47.531 44.6203 50.6429 45.8047 53.4041 45.8047H54.1151L54.4883 45.0706C55.4102 43.2578 57.6801 41.8175 59.6154 41.8175C60.4283 41.8175 61.0526 41.5595 61.5109 41.0343C61.9564 40.5235 62.1085 39.8429 61.9037 39.2765C61.8201 39.0448 59.9533 36.1813 57.7554 32.9132L53.7592 26.9709L53.7588 24.7918C53.7585 23.4161 53.6788 22.1716 53.5428 21.4164C51.5997 10.6261 42.3066 1.93886 30.9466 0.29308C29.5517 0.0910625 25.8431 -0.0709502 24.9608 0.0317863ZM15.7288 14.9875C16.3729 14.6822 17.303 14.3488 17.7956 14.2468C19.7981 13.832 22.0151 14.1107 23.7639 14.9973C24.264 15.2509 25.0862 15.8718 25.7531 16.4994L26.8899 17.5694L28.0266 16.4994C29.3256 15.2768 30.374 14.6871 31.9325 14.3026C33.9574 13.8031 36.0396 14.0364 38.051 14.9884C38.9791 15.4276 39.4509 15.766 40.3245 16.6189C40.9308 17.2107 41.6327 18.0338 41.8844 18.4479C43.1988 20.611 43.6079 23.5514 42.9445 26.0681C42.2183 28.8225 39.8881 31.7787 35.5268 35.4788C30.6137 39.6469 27.8756 41.8017 27.3776 41.8918C26.3297 42.0813 26.0836 41.939 22.7181 39.1963C16.9406 34.488 15.2991 32.9965 13.5248 30.8428C10.6131 27.3087 9.80828 23.73 11.111 20.1093C11.5981 18.7552 12.2289 17.8161 13.4552 16.6189C14.3278 15.7669 14.8017 15.427 15.7288 14.9875Z" fill="#34A087"/>
</svg>
