<svg width="23" height="30" viewBox="0 0 23 30" fill="none" xmlns="http://www.w3.org/2000/svg">
<path d="M21.4873 2.7577H15.1181C14.8635 1.95413 14.3778 1.25571 13.7294 0.760931C13.0811 0.266156 12.3028 0 11.5044 0C10.706 0 9.92777 0.266156 9.27943 0.760931C8.63108 1.25571 8.14536 1.95413 7.89077 2.7577H1.76923C1.55259 2.72443 1.33177 2.74032 1.12134 2.80433C0.910909 2.86834 0.715654 2.97901 0.548458 3.12904C0.381263 3.27906 0.24593 3.46504 0.151389 3.67469C0.0568489 3.88433 0.00525069 4.11289 0 4.34527V28.4124C0.00115828 28.6221 0.0412046 28.8295 0.117852 29.0228C0.194499 29.2161 0.306247 29.3915 0.446714 29.5389C0.587181 29.6863 0.753617 29.8029 0.936518 29.882C1.11942 29.9611 1.3152 30.0012 1.51269 30H21.4873C21.6848 30.0012 21.8806 29.9611 22.0635 29.882C22.2464 29.8029 22.4128 29.6863 22.5533 29.5389C22.6938 29.3915 22.8055 29.2161 22.8821 29.0228C22.9588 28.8295 22.9988 28.6221 23 28.4124V4.34527C22.9988 4.13555 22.9588 3.92813 22.8821 3.73485C22.8055 3.54157 22.6938 3.36621 22.5533 3.21879C22.4128 3.07137 22.2464 2.95478 22.0635 2.87566C21.8806 2.79655 21.6848 2.75647 21.4873 2.7577ZM5.56423 5.57587C5.56423 5.32673 5.65743 5.08779 5.82333 4.91162C5.98923 4.73545 6.21423 4.63648 6.44885 4.63648H9.49192V4.04467C9.49192 3.4679 9.70768 2.91476 10.0917 2.50693C10.4758 2.0991 10.9967 1.86998 11.5398 1.86998C12.0829 1.86998 12.6038 2.0991 12.9879 2.50693C13.3719 2.91476 13.5877 3.4679 13.5877 4.04467V4.68345H16.6308C16.8654 4.68345 17.0904 4.78242 17.2563 4.95859C17.4222 5.13476 17.5154 5.3737 17.5154 5.62284V7.31374H5.52885L5.56423 5.57587ZM18.4088 14.2464L10.3412 22.8136L5.70577 17.8913C5.47115 17.6421 5.33935 17.3042 5.33935 16.9519C5.33935 16.5995 5.47115 16.2616 5.70577 16.0125C5.94038 15.7633 6.25859 15.6234 6.59038 15.6234C6.92218 15.6234 7.24039 15.7633 7.475 16.0125L10.3588 19.0749L16.675 12.3676C16.9096 12.1185 17.2278 11.9785 17.5596 11.9785C17.8914 11.9785 18.2096 12.1185 18.4442 12.3676C18.6788 12.6168 18.8106 12.9547 18.8106 13.307C18.8106 13.6594 18.6788 13.9973 18.4442 14.2464H18.4088Z" fill="white"/>
</svg>
