<svg width="30" height="30" viewBox="0 0 30 30" fill="none" xmlns="http://www.w3.org/2000/svg">
<path fill-rule="evenodd" clip-rule="evenodd" d="M10.9091 7.94904C12.498 7.38744 13.6364 5.87212 13.6364 4.09091C13.6364 1.83157 11.8048 0 9.54547 0C7.28612 0 5.45455 1.83157 5.45455 4.09091C5.45455 5.87212 6.59293 7.38744 8.18183 7.94904V14.9999C8.18183 17.2593 10.0134 19.0908 12.2727 19.0908H18.9949C19.4509 19.0908 19.8767 19.3187 20.1296 19.6981L23.8518 25.2815C24.8065 26.7134 26.8326 26.9142 28.0495 25.6971L29.6006 24.1461C30.1331 23.6135 30.1331 22.7502 29.6006 22.2175C29.0681 21.685 28.2047 21.685 27.6722 22.2175L26.121 23.7687L22.3988 18.1853C21.6401 17.0472 20.3628 16.3636 18.9949 16.3636H12.2727C11.5196 16.3636 10.9091 15.7531 10.9091 14.9999V13.6363H19.0909C19.8441 13.6363 20.4546 13.0258 20.4546 12.2727C20.4546 11.5196 19.8441 10.9091 19.0909 10.9091H10.9091V7.94904ZM9.54547 4.09057C9.54547 4.92453 8.71152 4.09057 9.54547 4.09057C9.54547 3.25663 8.71152 4.09057 9.54547 4.09057C10.3794 4.09057 9.54547 3.25663 9.54547 4.09057C10.3794 4.09057 9.54547 4.92453 9.54547 4.09057Z" fill="#F8F8FF"/>
<path d="M10.9091 7.94904C12.498 7.38744 13.6364 5.87212 13.6364 4.09091C13.6364 1.83157 11.8048 0 9.54547 0C7.28612 0 5.45455 1.83157 5.45455 4.09091C5.45455 5.87212 6.59293 7.38744 8.18183 7.94904V14.9999C8.18183 17.2593 10.0134 19.0908 12.2727 19.0908H18.9949C19.4509 19.0908 19.8767 19.3187 20.1296 19.6981L23.8518 25.2815C24.8065 26.7134 26.8326 26.9142 28.0495 25.6971L29.6006 24.1461C30.1331 23.6135 30.1331 22.7502 29.6006 22.2175C29.0681 21.685 28.2047 21.685 27.6722 22.2175L26.121 23.7687L22.3988 18.1853C21.6401 17.0472 20.3628 16.3636 18.9949 16.3636H12.2727C11.5196 16.3636 10.9091 15.7531 10.9091 14.9999V13.6363H19.0909C19.8441 13.6363 20.4546 13.0258 20.4546 12.2727C20.4546 11.5196 19.8441 10.9091 19.0909 10.9091H10.9091V7.94904Z" fill="#F8F8FF"/>
<path d="M4.95382 11.0099C5.59797 10.6222 6.40553 10.9468 6.70426 11.6367C7.00299 12.3265 6.67643 13.1185 6.05176 13.5368C5.359 14.0005 4.74571 14.5784 4.23931 15.2487C3.45816 16.2826 2.95803 17.5013 2.78762 18.7858C2.6172 20.0703 2.78231 21.3771 3.26687 22.579C3.75141 23.7808 4.5389 24.8367 5.55265 25.6439C6.56639 26.4511 7.77188 26.9819 9.05171 27.185C10.3315 27.3879 11.6421 27.256 12.8558 26.8022C14.0696 26.3483 15.1452 25.5879 15.9779 24.595C16.5176 23.9513 16.9433 23.2242 17.2402 22.4451C17.5079 21.7426 18.2065 21.2469 18.9458 21.3835C19.6851 21.52 20.1824 22.2343 19.9488 22.949C19.5445 24.1868 18.906 25.3401 18.0638 26.3443C16.9292 27.6974 15.4635 28.7337 13.8094 29.3522C12.1554 29.9706 10.3694 30.1503 8.62526 29.8738C6.88115 29.5971 5.23839 28.8736 3.85689 27.7737C2.47539 26.6738 1.40224 25.2348 0.741915 23.597C0.0815874 21.9593 -0.143405 20.1783 0.0888284 18.4277C0.32107 16.6772 1.00262 15.0166 2.06713 13.6075C2.85714 12.5619 3.83808 11.6813 4.95382 11.0099Z" fill="#F8F8FF"/>
</svg>
