<svg width="17" height="17" viewBox="0 0 17 17" fill="none" xmlns="http://www.w3.org/2000/svg">
<path d="M14.9346 15.157H2.52991V5.90693H14.9346M12.2764 0.0205078V1.70234H5.18805V0.0205078H3.41595V1.70234H2.52991C1.54639 1.70234 0.757812 2.45076 0.757812 3.38418V15.157C0.757813 15.6031 0.944515 16.0309 1.27685 16.3463C1.60918 16.6617 2.05992 16.8389 2.52991 16.8389H14.9346C15.4045 16.8389 15.8553 16.6617 16.1876 16.3463C16.5199 16.0309 16.7066 15.6031 16.7066 15.157V3.38418C16.7066 2.93813 16.5199 2.51035 16.1876 2.19494C15.8553 1.87954 15.4045 1.70234 14.9346 1.70234H14.0485V0.0205078M13.1625 9.2706H8.73223V13.4752H13.1625V9.2706Z" fill="#DB7495"/>
</svg>
