<svg width="100" height="68" viewBox="0 0 100 68" fill="none" xmlns="http://www.w3.org/2000/svg">
<path d="M78.4835 16.5942C77.6159 17.0581 76.8456 17.8332 76.3837 18.7077C76.0335 19.3705 75.9612 19.906 75.8947 22.3261C75.8305 24.6615 75.8661 25.1853 76.095 25.273C76.2496 25.3323 77.1438 24.8502 78.1091 24.1869C80.0063 22.8833 79.9635 23.0132 77.6806 25.4909L76.2989 26.9905L72.1395 26.8625C69.852 26.7921 67.6996 26.6789 67.3567 26.6112C66.869 26.5147 66.3804 26.0639 65.1156 24.5428L63.4982 22.5978L62.2118 22.5408C60.8559 22.4807 60.2963 22.7433 60.2982 23.4382C60.2986 23.618 60.9076 24.4751 61.6514 25.3434L63.0038 26.9218L62.5074 27.3857C61.7761 28.0686 61.4643 28.7889 61.4643 29.7945C61.4643 31.1621 62.2371 32.3291 63.4461 32.7869C63.9435 32.9754 71.761 33.3576 76.3506 33.4181C77.9768 33.4395 78.6419 33.3712 79.0958 33.1365C79.4255 32.9661 80.7353 31.6973 82.0068 30.3171C83.2783 28.9369 84.3403 27.8241 84.3669 27.8442C84.4669 27.9204 81.2274 33.7054 80.8372 34.1473C80.187 34.8835 79.323 35.1434 77.5258 35.1434H75.8748L75.8176 36.5347L75.7605 37.926L71.4813 39.0314C65.9204 40.4678 65.8879 40.4796 65.0755 41.379C64.6941 41.8013 64.3819 42.1746 64.3819 42.2086C64.3819 42.2428 62.7626 47.0236 60.7835 52.8329C58.3534 59.9658 57.1852 63.6616 57.1852 64.2155C57.1852 66.0441 58.7356 67.7229 60.6318 67.9473C62.0431 68.1146 63.5965 67.3675 64.263 66.2012C64.5182 65.7545 65.8856 61.9754 67.3014 57.8033C68.7172 53.6311 69.9498 50.0215 70.0406 49.7821L70.2058 49.3464L70.9194 49.8307C71.5383 50.2506 71.8474 50.3148 73.2529 50.3148H74.8731L74.9278 58.5974L74.9824 66.8801L75.6177 67.4474C76.2996 68.0566 76.8987 68.1525 77.711 67.7824C78.7591 67.3049 78.7753 67.1623 78.7753 58.3965V50.3148H84.5132H90.2511V58.3965C90.2511 67.1623 90.2673 67.3049 91.3155 67.7824C92.1277 68.1525 92.7268 68.0566 93.4087 67.4474L94.044 66.8801L94.1412 58.471L94.2385 50.062L94.9729 49.8077C96.7745 49.1843 98.5493 47.2609 99.0365 45.4036C99.17 44.8953 99.3483 44.4797 99.4331 44.4797C99.5179 44.4797 99.586 38.7684 99.5845 31.7882C99.5827 24.8079 99.5117 19.2066 99.4263 19.3408C99.319 19.51 99.1762 19.3851 98.9609 18.9337C98.3754 17.706 96.6692 17.2868 95.4829 18.0794C95.434 18.1121 95.3869 18.143 95.3414 18.1728C95.1621 18.2903 95.0095 18.3902 94.8797 18.5141C94.1401 19.2197 94.1403 20.7007 94.1415 30.6202L94.1416 31.9914L94.1412 44.1083L93.6637 44.5857C93.2259 45.0237 93.0378 45.0632 91.3923 45.0632H89.5984L90.3291 44.5182C91.3073 43.789 92.1507 42.4926 92.2934 41.4987C92.3576 41.0521 92.3839 35.8226 92.3518 29.8773L92.2934 19.0679L91.7568 18.2574C91.4617 17.8114 90.8556 17.2053 90.41 16.9102L89.5997 16.3736L84.3335 16.3279C79.8139 16.2888 78.9842 16.3265 78.4835 16.5942Z" fill="#E56C87"/>
<path d="M80.123 0.191713C75.0174 1.63767 73.4276 7.91553 77.2467 11.5491C77.6059 11.891 78.4252 12.4162 79.0671 12.7161C80.6877 13.4735 82.836 13.484 84.4393 12.7422C85.9716 12.0332 87.0293 11.0035 87.7692 9.50036C88.3304 8.36036 88.402 8.0332 88.3918 6.65241C88.3782 4.82484 87.8408 3.41798 86.6541 2.10468C85.1553 0.445543 82.2412 -0.407947 80.123 0.191713Z" fill="#E56C87"/>
<path d="M45.0198 29.7857C44.4634 30.342 44.4297 30.6168 44.8452 31.2099L45.1478 31.6423H42.1695H39.1911L38.925 32.2435C38.7787 32.574 38.3769 33.1266 38.032 33.4714C36.9251 34.5783 36.1692 34.8106 33.0725 34.9958C31.5247 35.0881 30.2195 35.2023 30.1724 35.2496C30.1252 35.2968 30.1915 35.6855 30.3197 36.1136C30.3443 36.1958 30.3635 36.2731 30.3815 36.3457C30.4173 36.4898 30.4485 36.6156 30.5088 36.7254C30.8981 37.4347 32.4997 37.4787 44.3627 37.4784L46.8748 37.478C47.91 37.4777 49.0113 37.4775 50.183 37.4775L52.7975 37.4777C67.7396 37.4797 69.415 37.4799 69.8288 36.7575C69.881 36.6663 69.9131 36.5635 69.9493 36.4478C69.9652 36.3969 69.982 36.3434 70.0015 36.2873C70.2503 35.5736 70.2822 34.9537 70.0712 34.938C69.9908 34.9322 68.4811 34.8571 66.716 34.7711C64.4272 34.6598 63.2835 34.5206 62.7286 34.2858C61.8424 33.9108 60.7855 32.9647 60.3729 32.1772L60.0928 31.6423H56.9467C54.4998 31.6423 53.8527 31.5904 54.0342 31.4089C54.1626 31.2805 54.2676 30.8917 54.2676 30.5447C54.2676 29.3987 53.9152 29.3082 49.4501 29.3082C45.5125 29.3082 45.4954 29.3102 45.0198 29.7857Z" fill="#34A087"/>
<path d="M9.11586 17.0141C8.311 17.4333 7.92801 17.7982 7.44039 18.6102L6.80825 19.6631V30.7688V41.8746L7.30968 42.8808C7.78213 43.8288 8.21822 44.3073 9.34479 45.1135C9.81297 45.4487 9.78301 45.4547 7.94202 45.4053C6.25604 45.3602 6.00883 45.3059 5.55933 44.8834L5.0577 44.4118L5.05342 32.0461C5.04933 20.3188 5.03008 19.6382 4.67977 18.8664C4.08536 17.5574 2.50014 17.046 1.16972 17.734C-0.062857 18.3716 0.000551841 17.5838 0.000551841 32.2381V45.5846L0.596517 46.777C1.30529 48.1957 2.53185 49.3396 3.99375 49.9454L5.04564 50.3815L5.10029 58.6307L5.15495 66.8801L5.7902 67.4474C6.47214 68.0566 7.07122 68.1525 7.88347 67.7824C8.9305 67.3055 8.94781 67.1539 8.94781 58.4938V50.5093H14.6857H20.4236V58.4938C20.4236 67.1539 20.4409 67.3055 21.488 67.7824C22.3002 68.1525 22.8993 68.0566 23.5812 67.4474L24.2165 66.8801L24.2713 58.6947L24.326 50.5093H26.0433C27.5262 50.5093 27.8528 50.4469 28.4357 50.0513L29.1108 49.593L31.7911 57.4911C33.2653 61.835 34.6803 65.7545 34.9357 66.2012C35.6025 67.3675 37.156 68.1146 38.5671 67.9473C40.4633 67.7229 42.0137 66.0441 42.0137 64.2155C42.0137 63.6618 40.8514 59.9833 38.436 52.8932C36.4682 47.1171 34.769 42.2267 34.6599 42.0254C34.3483 41.4504 33.4123 40.6347 32.7975 40.4024C32.489 40.2859 30.6947 39.7936 28.8101 39.3087C26.9256 38.8236 24.9239 38.2985 24.3624 38.1413L23.3412 37.8556V36.596V35.3361L21.6393 35.3624C18.6918 35.4077 18.8022 35.5155 15.4346 29.3082L14.7485 28.0439L15.787 29.1205C16.3581 29.7126 17.4926 30.9057 18.3082 31.7718C19.2315 32.7521 20.041 33.429 20.4532 33.565C20.9474 33.7282 22.9143 33.7169 28.214 33.5208C36.0133 33.2322 36.3355 33.1765 37.1937 31.9714C38.1588 30.6163 37.7615 28.3269 36.4108 27.4604C36.0774 27.2465 35.8012 27.0125 35.7972 26.9403C35.7929 26.8683 36.2342 26.0654 36.7777 25.1561C37.3933 24.126 37.7414 23.3324 37.7016 23.0504C37.644 22.645 37.5213 22.5917 36.524 22.5396C35.9117 22.5075 35.2378 22.574 35.0263 22.6871C34.8149 22.8003 34.1567 23.7973 33.5638 24.9027L32.4857 26.9127L28.9521 27.0407C27.0086 27.1111 24.8374 27.1687 24.127 27.1687H22.8355L21.1207 25.3111C20.1774 24.2894 19.4379 23.4235 19.4772 23.3865C19.5163 23.3497 20.2709 23.8354 21.1544 24.466C22.0376 25.0966 22.9003 25.6126 23.0714 25.6126C23.3467 25.6126 23.3737 25.2683 23.3052 22.6464C23.2175 19.2986 22.9866 18.5645 21.6827 17.4897C20.5639 16.5675 19.9138 16.4709 14.8312 16.4709H10.1592L9.11586 17.0141Z" fill="#34A087"/>
<path d="M16.197 0.331758C13.2285 0.938031 11.0769 3.29874 10.7701 6.28654C10.4967 8.94971 12.0597 11.6889 14.5515 12.9126C15.5141 13.3852 15.8862 13.456 17.4088 13.456C18.9314 13.456 19.3035 13.3852 20.2661 12.9126C24.4919 10.8374 25.3623 5.23777 21.9565 2.03835C20.4643 0.636548 18.1145 -0.0597821 16.197 0.331758Z" fill="#34A087"/>
</svg>
