<svg width="1170" height="1299" viewBox="0 0 1170 1299" fill="none" xmlns="http://www.w3.org/2000/svg">
<path d="M1170 1299V866H656.45L769.711 1051.09L921.412 1299H1170Z" fill="#34A087"/>
<path fill-rule="evenodd" clip-rule="evenodd" d="M0 1299V998.368L769.711 1051.09L921.412 1299H0Z" fill="#005351"/>
<path d="M656.45 866H0V998.368L769.711 1051.09L656.45 866Z" fill="#025F5C"/>
<path d="M1170 866V433H656.45L769.711 618.091L921.412 866H1170Z" fill="#34A087"/>
<path fill-rule="evenodd" clip-rule="evenodd" d="M0 866V565.368L769.711 618.091L921.412 866H0Z" fill="#005351"/>
<path d="M656.45 433H0V565.368L769.711 618.091L656.45 433Z" fill="#025F5C"/>
<path d="M1170 433V0H656.45L769.711 185.091L921.412 433H1170Z" fill="#34A087"/>
<path fill-rule="evenodd" clip-rule="evenodd" d="M0 433V132.368L769.711 185.091L921.412 433H0Z" fill="#005351"/>
<path d="M656.45 0H0V132.368L769.711 185.091L656.45 0Z" fill="#025F5C"/>
</svg>
