<svg width="34" height="20" viewBox="0 0 34 20" fill="none" xmlns="http://www.w3.org/2000/svg">
<path d="M5.51484 19.1306H0.624844L7.58484 0.320614H12.4148L19.1948 19.1306H14.3348L13.3448 15.9806H6.50484L5.51484 19.1306ZM9.89484 4.94061C9.73484 5.50061 9.55484 6.10061 9.35484 6.74061C9.17484 7.36061 8.86484 8.38061 8.42484 9.80061L7.64484 12.2906H12.1748L11.3948 9.80061C11.1348 9.04061 10.8748 8.24061 10.6148 7.40061C10.3548 6.54061 10.1148 5.72061 9.89484 4.94061ZM33.0619 7.37061V11.5706H28.8619V15.8306H24.5119V11.5706H20.2819V7.37061H24.5119V3.17062H28.8619V7.37061H33.0619Z" fill="black"/>
</svg>
