<svg width="33" height="20" viewBox="0 0 33 20" fill="none" xmlns="http://www.w3.org/2000/svg">
<path d="M5.51484 19.1305H0.624844L7.58484 0.320492H12.4148L19.1948 19.1305H14.3348L13.3448 15.9805H6.50484L5.51484 19.1305ZM9.89484 4.94049C9.73484 5.50049 9.55484 6.10049 9.35484 6.74049C9.17484 7.36049 8.86484 8.38049 8.42484 9.80049L7.64484 12.2905H12.1748L11.3948 9.80049C11.1348 9.04049 10.8748 8.24049 10.6148 7.40049C10.3548 6.54049 10.1148 5.72049 9.89484 4.94049ZM24.0619 19.4305C22.5419 19.4305 21.4219 19.0505 20.7019 18.2905C20.0019 17.5305 19.6519 16.3305 19.6519 14.6905C19.6519 13.0105 20.0719 11.8305 20.9119 11.1505C21.7719 10.4705 23.2419 10.1305 25.3219 10.1305C25.8019 10.1305 26.2919 10.1605 26.7919 10.2205C27.3119 10.2605 27.7619 10.3205 28.1419 10.4005V9.32049C28.1419 8.84049 27.9319 8.49049 27.5119 8.27049C27.1119 8.03049 26.4919 7.91049 25.6519 7.91049C24.6919 7.91049 23.8319 7.94049 23.0719 8.00049C22.3319 8.04049 21.6519 8.12049 21.0319 8.24049V4.55049C21.7719 4.37049 22.6319 4.24049 23.6119 4.16049C24.5919 4.06049 25.7319 4.01049 27.0319 4.01049C28.8719 4.01049 30.2619 4.42049 31.2019 5.24049C32.1619 6.06049 32.6419 7.27049 32.6419 8.87049V19.1305H28.4419L28.2919 17.8705H28.2019C27.5819 18.3505 26.9019 18.7305 26.1619 19.0105C25.4219 19.2905 24.7219 19.4305 24.0619 19.4305ZM25.9219 13.1005C25.1219 13.1005 24.5819 13.1905 24.3019 13.3705C24.0219 13.5305 23.8819 13.8805 23.8819 14.4205C23.8819 14.9205 23.9919 15.2705 24.2119 15.4705C24.4519 15.6505 24.8619 15.7405 25.4419 15.7405C25.8819 15.7405 26.3419 15.6805 26.8219 15.5605C27.3019 15.4405 27.7419 15.2905 28.1419 15.1105V13.2805C27.9019 13.2205 27.6019 13.1805 27.2419 13.1605C26.8819 13.1205 26.4419 13.1005 25.9219 13.1005Z" fill="black"/>
</svg>
