<svg width="60" height="60" viewBox="0 0 60 60" fill="none" xmlns="http://www.w3.org/2000/svg">
<path fill-rule="evenodd" clip-rule="evenodd" d="M22.5 17.0739C25.413 16.0443 27.5 13.2662 27.5 10.0006C27.5 5.85849 24.1421 2.50061 20 2.50061C15.8579 2.50061 12.5 5.85849 12.5 10.0006C12.5 13.2662 14.587 16.0443 17.5 17.0739V30.0005C17.5 34.1428 20.8579 37.5005 25 37.5005H37.324C38.16 37.5005 38.9405 37.9183 39.4042 38.6138L46.2283 48.85C47.9785 51.4753 51.693 51.8433 53.924 49.612L56.7677 46.7685C57.744 45.792 57.744 44.2093 56.7677 43.2328C55.7915 42.2565 54.2085 42.2565 53.2323 43.2328L50.3885 46.0765L43.5645 35.8403C42.1735 33.7538 39.8317 32.5005 37.324 32.5005H25C23.6193 32.5005 22.5 31.3813 22.5 30.0005V27.5005H37.5C38.8808 27.5005 40 26.3813 40 25.0005C40 23.6199 38.8808 22.5006 37.5 22.5006H22.5V17.0739ZM20 10C18.4711 10 20 11.5289 20 10C18.4711 10 20 8.4711 20 10C21.5289 10 20 8.4711 20 10C21.5289 10 20 11.5289 20 10Z" fill="white"/>
<path d="M22.5 17.0739C25.413 16.0443 27.5 13.2662 27.5 10.0006C27.5 5.85849 24.1421 2.50061 20 2.50061C15.8579 2.50061 12.5 5.85849 12.5 10.0006C12.5 13.2662 14.587 16.0443 17.5 17.0739V30.0005C17.5 34.1428 20.8579 37.5005 25 37.5005H37.324C38.16 37.5005 38.9405 37.9183 39.4042 38.6138L46.2283 48.85C47.9785 51.4753 51.693 51.8433 53.924 49.612L56.7677 46.7685C57.744 45.792 57.744 44.2093 56.7677 43.2328C55.7915 42.2565 54.2085 42.2565 53.2323 43.2328L50.3885 46.0765L43.5645 35.8403C42.1735 33.7538 39.8317 32.5005 37.324 32.5005H25C23.6193 32.5005 22.5 31.3813 22.5 30.0005V27.5005H37.5C38.8808 27.5005 40 26.3813 40 25.0005C40 23.6199 38.8808 22.5006 37.5 22.5006H22.5V17.0739Z" fill="white"/>
<path d="M11.582 22.6854C12.7629 21.9747 14.2435 22.5698 14.7911 23.8345C15.3388 25.0993 14.7401 26.5513 13.5949 27.318C12.3248 28.1683 11.2005 29.2278 10.2721 30.4565C8.83995 32.352 7.92305 34.5863 7.61063 36.9413C7.2982 39.2963 7.6009 41.692 8.48925 43.8955C9.37758 46.0988 10.8213 48.0345 12.6799 49.5145C14.5384 50.9943 16.7484 51.9675 19.0948 52.3398C21.4412 52.7118 23.8439 52.47 26.069 51.638C28.2943 50.8058 30.2663 49.4118 31.7928 47.5915C32.7823 46.4113 33.5628 45.0783 34.107 43.65C34.5978 42.362 35.8785 41.4533 37.234 41.7038C38.5893 41.954 39.501 43.2635 39.0728 44.5738C38.3315 46.843 37.161 48.9575 35.617 50.7985C33.5368 53.2793 30.8498 55.179 27.8173 56.313C24.7849 57.4468 21.5105 57.7763 18.313 57.2693C15.1154 56.762 12.1037 55.4355 9.57095 53.419C7.0382 51.4025 5.07078 48.7645 3.86018 45.7618C2.64958 42.7593 2.23709 39.4943 2.66285 36.2848C3.08863 33.0755 4.33813 30.031 6.28973 27.4478C7.73808 25.5308 9.53648 23.9164 11.582 22.6854Z" fill="white"/>
</svg>
