<svg width="20" height="20" viewBox="0 0 20 20" fill="none" xmlns="http://www.w3.org/2000/svg">
<path d="M17.5 7.5H12.5V2.5C12.5 1.83696 12.2366 1.20107 11.7678 0.732233C11.2989 0.263392 10.663 0 10 0C9.33696 0 8.70107 0.263392 8.23223 0.732233C7.76339 1.20107 7.5 1.83696 7.5 2.5L7.58875 7.5H2.5C1.83696 7.5 1.20107 7.76339 0.732233 8.23223C0.263392 8.70107 0 9.33696 0 10C0 10.663 0.263392 11.2989 0.732233 11.7678C1.20107 12.2366 1.83696 12.5 2.5 12.5L7.58875 12.4113L7.5 17.5C7.5 18.163 7.76339 18.7989 8.23223 19.2678C8.70107 19.7366 9.33696 20 10 20C10.663 20 11.2989 19.7366 11.7678 19.2678C12.2366 18.7989 12.5 18.163 12.5 17.5V12.4113L17.5 12.5C18.163 12.5 18.7989 12.2366 19.2678 11.7678C19.7366 11.2989 20 10.663 20 10C20 9.33696 19.7366 8.70107 19.2678 8.23223C18.7989 7.76339 18.163 7.5 17.5 7.5Z" fill="white"/>
</svg>
