<svg width="10" height="17" viewBox="0 0 10 17" fill="none" xmlns="http://www.w3.org/2000/svg">
<path d="M9.61814 16.0179C9.86335 15.7876 10.0014 15.4749 10.0019 15.1487C10.0024 14.8225 9.86531 14.5094 9.62082 14.2784L3.16515 8.17889L9.63954 2.0993C9.87781 1.86764 10.0099 1.55709 10.0074 1.23453C10.005 0.911971 9.86809 0.603207 9.62628 0.374744C9.38448 0.146282 9.0571 0.0163991 8.71466 0.0130708C8.37221 0.00974056 8.04211 0.133232 7.79544 0.356945L0.396325 7.30488C0.15112 7.5352 0.0130908 7.84784 0.0125893 8.17405C0.0120878 8.50025 0.149156 8.81332 0.39365 9.04439L7.77137 16.015C8.01594 16.246 8.34788 16.3761 8.6942 16.3766C9.04052 16.3772 9.37286 16.2481 9.61814 16.0179Z" fill="black" fill-opacity="0.7"/>
</svg>
