<svg width="33" height="23" viewBox="0 0 33 23" fill="none" xmlns="http://www.w3.org/2000/svg">
<path d="M12.988 11.512H9.844L9.34 13H7.192L10.24 4.576H12.616L15.664 13H13.492L12.988 11.512ZM12.46 9.928L11.416 6.844L10.384 9.928H12.46ZM16.1837 9.64C16.1837 8.952 16.3117 8.348 16.5677 7.828C16.8317 7.308 17.1877 6.908 17.6357 6.628C18.0837 6.348 18.5837 6.208 19.1357 6.208C19.6077 6.208 20.0197 6.304 20.3717 6.496C20.7317 6.688 21.0077 6.94 21.1997 7.252V6.304H23.2517V13H21.1997V12.052C20.9997 12.364 20.7197 12.616 20.3597 12.808C20.0077 13 19.5957 13.096 19.1237 13.096C18.5797 13.096 18.0837 12.956 17.6357 12.676C17.1877 12.388 16.8317 11.984 16.5677 11.464C16.3117 10.936 16.1837 10.328 16.1837 9.64ZM21.1997 9.652C21.1997 9.14 21.0557 8.736 20.7677 8.44C20.4877 8.144 20.1437 7.996 19.7357 7.996C19.3277 7.996 18.9797 8.144 18.6917 8.44C18.4117 8.728 18.2717 9.128 18.2717 9.64C18.2717 10.152 18.4117 10.56 18.6917 10.864C18.9797 11.16 19.3277 11.308 19.7357 11.308C20.1437 11.308 20.4877 11.16 20.7677 10.864C21.0557 10.568 21.1997 10.164 21.1997 9.652Z" fill="#E10531"/>
<path d="M19.3369 17.5724H31.244M31.244 17.5724L27.6719 21.1445M31.244 17.5724L27.6719 14.0003" stroke="#E10531" stroke-width="2" stroke-linecap="round" stroke-linejoin="round"/>
<path d="M19.05 17.5721L0.999886 17.5721M0.999886 17.5721L4.57201 14M0.999886 17.5721L4.57201 21.1443" stroke="#E10531" stroke-width="2" stroke-linecap="round" stroke-linejoin="round"/>
</svg>
