<svg width="24" height="24" viewBox="0 0 24 24" fill="none" xmlns="http://www.w3.org/2000/svg">
<path fill-rule="evenodd" clip-rule="evenodd" d="M14.537 3.39623C15.7 2.62923 17.25 3.46423 17.25 4.85723V19.1432C17.25 20.5372 15.7 21.3712 14.537 20.6042L8.537 16.6492C8.49641 16.6222 8.44879 16.6076 8.4 16.6072H5.5C4.77065 16.6072 4.07118 16.3175 3.55546 15.8018C3.03973 15.286 2.75 14.5866 2.75 13.8572V10.1432C2.75 9.41388 3.03973 8.71441 3.55546 8.19868C4.07118 7.68296 4.77065 7.39323 5.5 7.39323H8.4C8.44902 7.39339 8.49701 7.37913 8.538 7.35223L14.537 3.39623ZM20.5 8.25023C20.6989 8.25023 20.8897 8.32925 21.0303 8.4699C21.171 8.61055 21.25 8.80132 21.25 9.00023V15.0002C21.25 15.1991 21.171 15.3899 21.0303 15.5306C20.8897 15.6712 20.6989 15.7502 20.5 15.7502C20.3011 15.7502 20.1103 15.6712 19.9697 15.5306C19.829 15.3899 19.75 15.1991 19.75 15.0002V9.00023C19.75 8.80132 19.829 8.61055 19.9697 8.4699C20.1103 8.32925 20.3011 8.25023 20.5 8.25023Z" fill="#0076AC"/>
</svg>
