<svg width="30" height="30" viewBox="0 0 30 30" fill="none" xmlns="http://www.w3.org/2000/svg">
<rect width="30" height="30" rx="3" fill="#CBCBCB"/>
<path d="M27.5 23.75V27.5H2.5V16.25L27.5 23.75ZM23.8625 9.37502L22.8125 12.825L10.1625 9.07502C10.1417 8.59936 10.027 8.13251 9.82512 7.70131C9.62324 7.27012 9.3381 6.88308 8.98612 6.56247C8.63414 6.24185 8.22225 5.99397 7.77414 5.83309C7.32603 5.67221 6.85053 5.6015 6.375 5.62502C5.89934 5.64585 5.43249 5.76051 5.0013 5.96239C4.5701 6.16428 4.18307 6.44941 3.86245 6.80139C3.54183 7.15338 3.29396 7.56526 3.13307 8.01338C2.97219 8.46149 2.90148 8.93698 2.925 9.41252C2.95947 10.1608 3.22517 10.8801 3.68548 11.4711C4.14579 12.0621 4.77806 12.4958 5.49517 12.7124C6.21228 12.929 6.97892 12.918 7.68946 12.6807C8.4 12.4434 9.01947 11.9916 9.4625 11.3875L22.1125 15.1375L21.0625 18.6125L27.0875 15.3625L23.8625 9.37502Z" fill="white"/>
</svg>
