<svg width="29" height="24" viewBox="0 0 29 24" fill="none" xmlns="http://www.w3.org/2000/svg">
<path d="M3.99943 13.618V17.4833C3.99943 18.4875 4.54965 19.4228 5.43 19.9043L12.3078 23.6595C13.1331 24.1135 14.1235 24.1135 14.9488 23.6595L21.8266 19.9043C22.707 19.4228 23.2572 18.4875 23.2572 17.4833V13.618L14.9488 18.1573C14.1235 18.6113 13.1331 18.6113 12.3078 18.1573L3.99943 13.618ZM12.3078 0.330133L0.71185 6.65769C-0.237283 7.1804 -0.237283 8.55595 0.71185 9.07867L12.3078 15.4062C13.1331 15.8602 14.1235 15.8602 14.9488 15.4062L26.0083 9.36753V17.4971C26.0083 18.2536 26.6273 18.8726 27.3839 18.8726C28.1404 18.8726 28.7594 18.2536 28.7594 17.4971V8.67975C28.7594 8.1708 28.4843 7.71687 28.0441 7.46927L14.9488 0.330133C14.5424 0.11338 14.0889 0 13.6283 0C13.1677 0 12.7142 0.11338 12.3078 0.330133Z" fill="#939496"/>
</svg>
