<svg width="17" height="24" viewBox="0 0 17 24" fill="none" xmlns="http://www.w3.org/2000/svg">
<path d="M16.7996 8.39982C16.7996 9.5029 16.5824 10.5952 16.1602 11.6143C15.7381 12.6334 15.1194 13.5594 14.3394 14.3394C13.5594 15.1194 12.6334 15.7381 11.6143 16.1602C10.5952 16.5824 9.5029 16.7996 8.39982 16.7996C7.29674 16.7996 6.20446 16.5824 5.18535 16.1602C4.16623 15.7381 3.24025 15.1194 2.46025 14.3394C1.68025 13.5594 1.06153 12.6334 0.639398 11.6143C0.217268 10.5952 -1.64372e-08 9.5029 0 8.39982C3.31964e-08 6.17205 0.884978 4.03552 2.46025 2.46025C4.03552 0.884978 6.17205 0 8.39982 0C10.6276 0 12.7641 0.884978 14.3394 2.46025C15.9147 4.03552 16.7996 6.17205 16.7996 8.39982Z" fill="#939496"/>
<path d="M2.51135 16.7305L2.05656 18.3888C1.30298 21.1392 0.926186 22.5143 1.42897 23.2667C1.60537 23.5307 1.84177 23.7419 2.11656 23.8823C2.89894 24.2807 4.10852 23.6507 6.52647 22.3907C7.33045 21.9708 7.73364 21.762 8.16083 21.7164C8.31963 21.7005 8.47962 21.7005 8.63842 21.7164C9.06561 21.762 9.4676 21.972 10.2728 22.3907C12.6907 23.6507 13.9003 24.2807 14.6827 23.8823C14.9575 23.7419 15.1939 23.5307 15.3703 23.2667C15.8743 22.5143 15.4963 21.1392 14.7427 18.3888L14.2879 16.7305C12.5672 17.9507 10.5091 18.6046 8.39963 18.6012C6.29017 18.6046 4.23208 17.9507 2.51135 16.7305Z" fill="#939496"/>
</svg>
