<svg width="17" height="17" viewBox="0 0 17 17" fill="none" xmlns="http://www.w3.org/2000/svg">
<path d="M7.66667 16.75C8.08088 16.75 8.41667 16.4142 8.41667 16C8.41667 15.5858 8.08088 15.25 7.66667 15.25V16.75ZM4.41667 4.33333C4.41667 4.74755 4.75245 5.08333 5.16667 5.08333C5.58088 5.08333 5.91667 4.74755 5.91667 4.33333H4.41667ZM5.91667 1C5.91667 0.585786 5.58088 0.25 5.16667 0.25C4.75245 0.25 4.41667 0.585786 4.41667 1H5.91667ZM11.0833 4.33333C11.0833 4.74755 11.4191 5.08333 11.8333 5.08333C12.2475 5.08333 12.5833 4.74755 12.5833 4.33333H11.0833ZM12.5833 1C12.5833 0.585786 12.2475 0.25 11.8333 0.25C11.4191 0.25 11.0833 0.585786 11.0833 1H12.5833ZM5.175 7.58333C5.58921 7.58333 5.925 7.24755 5.925 6.83333C5.925 6.41912 5.58921 6.08333 5.175 6.08333V7.58333ZM5.16667 6.08333C4.75245 6.08333 4.41667 6.41912 4.41667 6.83333C4.41667 7.24755 4.75245 7.58333 5.16667 7.58333V6.08333ZM5.175 10.0833C5.58921 10.0833 5.925 9.74755 5.925 9.33333C5.925 8.91912 5.58921 8.58333 5.175 8.58333V10.0833ZM5.16667 8.58333C4.75245 8.58333 4.41667 8.91912 4.41667 9.33333C4.41667 9.74755 4.75245 10.0833 5.16667 10.0833V8.58333ZM5.175 12.5833C5.58921 12.5833 5.925 12.2475 5.925 11.8333C5.925 11.4191 5.58921 11.0833 5.175 11.0833V12.5833ZM5.16667 11.0833C4.75245 11.0833 4.41667 11.4191 4.41667 11.8333C4.41667 12.2475 4.75245 12.5833 5.16667 12.5833V11.0833ZM8.50833 10.0833C8.92255 10.0833 9.25833 9.74755 9.25833 9.33333C9.25833 8.91912 8.92255 8.58333 8.50833 8.58333V10.0833ZM8.5 8.58333C8.08579 8.58333 7.75 8.91912 7.75 9.33333C7.75 9.74755 8.08579 10.0833 8.5 10.0833V8.58333ZM8.50833 7.58333C8.92255 7.58333 9.25833 7.24755 9.25833 6.83333C9.25833 6.41912 8.92255 6.08333 8.50833 6.08333V7.58333ZM8.5 6.08333C8.08579 6.08333 7.75 6.41912 7.75 6.83333C7.75 7.24755 8.08579 7.58333 8.5 7.58333V6.08333ZM11.8417 7.58333C12.2559 7.58333 12.5917 7.24755 12.5917 6.83333C12.5917 6.41912 12.2559 6.08333 11.8417 6.08333V7.58333ZM11.8333 6.08333C11.4191 6.08333 11.0833 6.41912 11.0833 6.83333C11.0833 7.24755 11.4191 7.58333 11.8333 7.58333V6.08333ZM13.8333 11.4167C13.8333 11.0025 13.4975 10.6667 13.0833 10.6667C12.6691 10.6667 12.3333 11.0025 12.3333 11.4167H13.8333ZM12.3333 14.75C12.3333 15.1642 12.6691 15.5 13.0833 15.5C13.4975 15.5 13.8333 15.1642 13.8333 14.75H12.3333ZM11.4167 12.3333C11.0025 12.3333 10.6667 12.6691 10.6667 13.0833C10.6667 13.4975 11.0025 13.8333 11.4167 13.8333V12.3333ZM14.75 13.8333C15.1642 13.8333 15.5 13.4975 15.5 13.0833C15.5 12.6691 15.1642 12.3333 14.75 12.3333V13.8333ZM8.50833 12.5833C8.92255 12.5833 9.25833 12.2475 9.25833 11.8333C9.25833 11.4191 8.92255 11.0833 8.50833 11.0833V12.5833ZM8.5 11.0833C8.08579 11.0833 7.75 11.4191 7.75 11.8333C7.75 12.2475 8.08579 12.5833 8.5 12.5833V11.0833ZM11.8417 10.0833C12.2559 10.0833 12.5917 9.74755 12.5917 9.33333C12.5917 8.91912 12.2559 8.58333 11.8417 8.58333V10.0833ZM11.8333 8.58333C11.4191 8.58333 11.0833 8.91912 11.0833 9.33333C11.0833 9.74755 11.4191 10.0833 11.8333 10.0833V8.58333ZM3.5 3.41667H13.5V1.91667H3.5V3.41667ZM1.75 13.5V5.16667H0.25V13.5H1.75ZM7.66667 15.25H3.5V16.75H7.66667V15.25ZM15.25 5.16667V7.25H16.75V5.16667H15.25ZM0.25 13.5C0.25 15.2949 1.70507 16.75 3.5 16.75V15.25C2.5335 15.25 1.75 14.4665 1.75 13.5H0.25ZM13.5 3.41667C14.4665 3.41667 15.25 4.20017 15.25 5.16667H16.75C16.75 3.37174 15.2949 1.91667 13.5 1.91667V3.41667ZM3.5 1.91667C1.70507 1.91667 0.25 3.37174 0.25 5.16667H1.75C1.75 4.20017 2.5335 3.41667 3.5 3.41667V1.91667ZM5.91667 4.33333V1H4.41667V4.33333H5.91667ZM12.5833 4.33333V1H11.0833V4.33333H12.5833ZM5.175 6.08333H5.16667V7.58333H5.175V6.08333ZM5.175 8.58333H5.16667V10.0833H5.175V8.58333ZM5.175 11.0833H5.16667V12.5833H5.175V11.0833ZM8.50833 8.58333H8.5V10.0833H8.50833V8.58333ZM8.50833 6.08333H8.5V7.58333H8.50833V6.08333ZM11.8417 6.08333H11.8333V7.58333H11.8417V6.08333ZM12.3333 11.4167V13.0833H13.8333V11.4167H12.3333ZM12.3333 13.0833V14.75H13.8333V13.0833H12.3333ZM11.4167 13.8333H13.0833V12.3333H11.4167V13.8333ZM13.0833 13.8333H14.75V12.3333H13.0833V13.8333ZM8.50833 11.0833H8.5V12.5833H8.50833V11.0833ZM11.8417 8.58333H11.8333V10.0833H11.8417V8.58333Z" fill="#2A55C2"/>
</svg>
