<svg width="20" height="20" viewBox="0 0 20 20" fill="none" xmlns="http://www.w3.org/2000/svg">
<path d="M2.85714 0C1.28125 0 0 1.28125 0 2.85714V17.1429C0 18.7188 1.28125 20 2.85714 20H17.1429C18.7188 20 20 18.7188 20 17.1429V2.85714C20 1.28125 18.7188 0 17.1429 0H2.85714ZM14.5446 4.80804L15.1875 5.45089C15.8839 6.14732 15.8839 7.27679 15.1875 7.97768L14.2321 8.93304L11.0625 5.76339L12.0179 4.80804C12.7143 4.11161 13.8438 4.11161 14.5446 4.80804ZM5.35268 11.4732L10.0491 6.77679L13.2188 9.94643L8.52232 14.6384C8.33929 14.8214 8.11161 14.9509 7.85714 15.0134L5.17411 15.683C4.92857 15.7455 4.67411 15.6741 4.49554 15.4955C4.31696 15.317 4.24554 15.0625 4.30804 14.817L4.97768 12.1339C5.04018 11.8839 5.16964 11.6518 5.35268 11.4688V11.4732Z" fill="#0098FF"/>
</svg>
