<svg width="39" height="39" viewBox="0 0 39 39" fill="none" xmlns="http://www.w3.org/2000/svg">
<path fill-rule="evenodd" clip-rule="evenodd" d="M35.3438 4.875H21.9375L21.0844 5.24063L19.5 6.80062L17.9156 5.24063L17.0625 4.875H3.65625L2.4375 6.09375V30.4688L3.65625 31.6875H16.5506L18.6469 33.7594H20.3531L22.4494 31.6875H35.3438L36.5625 30.4688V6.09375L35.3438 4.875ZM18.2812 30.03L17.8425 29.6156L17.0625 29.25H4.875V7.3125H16.5506L18.3544 9.11625L18.2812 30.03ZM34.125 29.25H21.9375L21.0844 29.6156L20.7431 29.9325V9.01875L22.4494 7.3125H34.125V29.25ZM14.625 12.1875H7.3125V14.625H14.625V12.1875ZM14.625 21.9375H7.3125V24.375H14.625V21.9375ZM7.3125 17.0625H14.625V19.5H7.3125V17.0625ZM31.6875 12.1875H24.375V14.625H31.6875V12.1875ZM24.375 17.0625H31.6875V19.5H24.375V17.0625ZM24.375 21.9375H31.6875V24.375H24.375V21.9375Z" fill="#111111"/>
</svg>
