<svg width="630" height="632" viewBox="0 0 630 632" fill="none" xmlns="http://www.w3.org/2000/svg">
<path fill-rule="evenodd" clip-rule="evenodd" d="M228.849 30.1754C193.005 81.4212 195.224 79.9957 169.509 68.3613C156.86 62.6333 139.319 59.0992 130.53 60.5015C106.894 64.2719 48.2317 99.021 47.0881 109.921C45.1178 128.699 57.7508 128.026 93.6423 107.457C113.761 95.9327 135.951 87.1066 142.961 87.8421C168.545 90.5264 192.672 114.722 201.752 146.778C218.993 207.668 239.035 194.74 226.366 130.914C218.922 93.4098 219.023 92.7613 237.427 63.6811L256.006 34.3146L266.148 51.1395C277.89 70.6195 277.53 80.9849 263.847 117.562C254.273 143.147 254.637 144.971 273.144 164.119C284.846 176.232 298.699 204.572 308.432 236.328C324.111 287.473 347.959 323.34 374.395 335.546C383.849 339.904 395.408 336.227 415.075 322.586C430.178 312.102 443.897 303.67 445.558 303.844C453.222 304.649 457.085 346.419 450.057 352.527C440.388 360.931 446.723 374.847 460.868 376.275C506.827 380.934 555.81 352.865 584.947 305.168L603.762 274.38L605.676 301.695C610.435 369.446 572.368 444.787 515.748 479.666C479.718 501.865 472.669 515.419 492.969 523.473C502.972 527.443 505.045 534.407 502.743 556.346C498.774 594.177 489.26 599.337 444.496 587.957C416.843 580.924 403.149 572.996 390.123 556.485C376.697 539.45 370.752 536.12 364.088 541.912C357.431 547.698 358.415 554.831 368.391 573.119L381.322 596.827L347.32 588.299C279.663 571.329 226.143 527.006 194.298 461.564C186.961 446.479 183.533 444.554 175.725 451.104C168.083 457.517 167.479 462.081 172.724 473.722C182.815 496.14 179.238 505.594 156.377 516.915C131.234 529.371 105.993 521.529 115.461 504.203C131.813 474.263 132.701 435.741 118.38 377.446C101.931 310.452 89.1557 284.882 75.7834 292.16C68.9816 295.861 71.003 310.183 84.3675 353.014C116.684 456.567 108.498 489.717 35.9351 549.129C0.478515 578.156 -9.14062 596.295 9.85746 598.289C13.4543 598.666 33.8706 584.622 55.2287 567.084C88.5474 539.718 95.7984 536.46 106.395 544.106C125.448 557.862 141.626 556.994 169.795 540.709L195.649 525.755L226.205 553.644C259.723 584.239 326.108 617.297 361.495 621.01C373.907 622.312 397.52 621.218 413.97 618.579C437.029 614.883 448.259 616.309 463.023 624.81C480.7 634.984 483.664 634.53 501.634 618.904C518.93 603.853 521.656 596.648 526.118 554.122C530.876 508.77 532.566 504.894 558.4 480.045C605.936 434.327 620.951 404.14 627.742 340.676C634.016 282.012 623.147 226.808 604.953 224.899C600.271 224.407 587.331 242.184 576.193 264.401C554.725 307.248 511.451 348.65 494.022 343.037C488.4 341.229 481.064 326.711 477.704 310.775C467.169 260.771 459.989 256.985 424.931 282.964C408.162 295.399 389.633 305.063 383.76 304.447C367.319 302.722 345.196 266.243 328.089 212.638C319.556 185.89 305.917 158.21 297.781 151.127C284.696 139.727 283.977 135.676 291.508 116.014C307.067 75.4171 305.484 55.4013 284.496 27.5738C273.642 13.183 261.452 1.06141 257.404 0.636667C253.362 0.212611 240.509 13.5051 228.849 30.1754ZM325.424 383.982C317.461 394.968 331.207 409.96 341.247 401.233C349.643 393.936 346.49 378.49 336.386 377.429C333.214 377.097 328.283 380.045 325.424 383.982ZM409.6 527.39C401.593 538.42 417.218 555.99 436.863 558.051C456.201 560.08 469.259 549.942 460.618 539.603C451.994 529.287 414.702 520.357 409.6 527.39Z" fill="#0098FF"/>
</svg>
