<svg width="28" height="16" viewBox="0 0 28 16" fill="none" xmlns="http://www.w3.org/2000/svg">
<path d="M9.98 12.52H4.74L3.9 15H0.32L5.4 0.96H9.36L14.44 15H10.82L9.98 12.52ZM9.1 9.88L7.36 4.74L5.64 9.88H9.1ZM15.3061 9.4C15.3061 8.25333 15.5194 7.24667 15.9461 6.38C16.3861 5.51333 16.9794 4.84667 17.7261 4.38C18.4728 3.91333 19.3061 3.68 20.2261 3.68C21.0128 3.68 21.6994 3.84 22.2861 4.16C22.8861 4.48 23.3461 4.9 23.6661 5.42V3.84H27.0861V15H23.6661V13.42C23.3328 13.94 22.8661 14.36 22.2661 14.68C21.6794 15 20.9928 15.16 20.2061 15.16C19.2994 15.16 18.4728 14.9267 17.7261 14.46C16.9794 13.98 16.3861 13.3067 15.9461 12.44C15.5194 11.56 15.3061 10.5467 15.3061 9.4ZM23.6661 9.42C23.6661 8.56667 23.4261 7.89333 22.9461 7.4C22.4794 6.90667 21.9061 6.66 21.2261 6.66C20.5461 6.66 19.9661 6.90667 19.4861 7.4C19.0194 7.88 18.7861 8.54667 18.7861 9.4C18.7861 10.2533 19.0194 10.9333 19.4861 11.44C19.9661 11.9333 20.5461 12.18 21.2261 12.18C21.9061 12.18 22.4794 11.9333 22.9461 11.44C23.4261 10.9467 23.6661 10.2733 23.6661 9.42Z" fill="#E10531"/>
</svg>
