<svg width="39" height="31" viewBox="0 0 39 31" fill="none" xmlns="http://www.w3.org/2000/svg">
<path d="M26.3337 9.52077C28.6109 12.5582 28.6109 18.4417 26.3337 21.4791M31.4587 3.54161C38.2715 10.0469 38.3125 20.9956 31.4587 27.4583M2.41699 20.5549V10.4433C2.41699 9.46269 3.18233 8.66661 4.12533 8.66661H10.2514C10.4775 8.6658 10.701 8.61922 10.9086 8.52967C11.1162 8.44013 11.3035 8.30946 11.4592 8.14557L16.5842 2.35773C17.6605 1.23707 19.5003 2.03144 19.5003 3.61507V27.3848C19.5003 28.9804 17.6382 29.7679 16.5688 28.6251L11.4609 22.8697C11.3048 22.7011 11.1156 22.5665 10.9051 22.4742C10.6947 22.3819 10.4675 22.334 10.2377 22.3333H4.12533C3.18233 22.3333 2.41699 21.5372 2.41699 20.5549Z" stroke="#111111" stroke-width="3" stroke-linecap="round" stroke-linejoin="round"/>
</svg>
