<svg width="31" height="31" viewBox="0 0 31 31" fill="none" xmlns="http://www.w3.org/2000/svg">
<g clip-path="url(#clip0_61_213)">
<path d="M5.16663 1.93475L25.8333 1.97884L25.8365 0.0441122L5.16989 0L5.16663 1.93475Z" fill="black"/>
<path fill-rule="evenodd" clip-rule="evenodd" d="M4.30582 7.76099C3.83023 7.76099 3.4447 8.19409 3.4447 8.72835V14.5326C3.4447 15.0668 3.83023 15.4999 4.30582 15.4999H26.6947C27.1703 15.4999 27.5559 15.0668 27.5559 14.5326V8.72835C27.5559 8.19409 27.1703 7.76099 26.6947 7.76099H4.30582ZM5.16693 9.69571V13.5652H25.8336V9.69571H5.16693Z" fill="black"/>
<path fill-rule="evenodd" clip-rule="evenodd" d="M0.861106 3.8916C0.38553 3.8916 0 4.32471 0 4.85898V22.2716C0 22.8059 0.38553 23.2391 0.861106 23.2391H30.1389C30.6144 23.2391 31 22.8059 31 22.2716V4.85898C31 4.32471 30.6144 3.8916 30.1389 3.8916H0.861106ZM1.72223 5.82635V21.3043H29.2777V5.82635H1.72223Z" fill="black"/>
<path d="M25.8333 27.1305L5.16664 27.0862L5.16991 25.1516L25.8365 25.1957L25.8333 27.1305ZM5.16632 30.9558L22.3886 30.9999L22.3925 29.0651L5.17024 29.021L5.16632 30.9558Z" fill="black"/>
</g>
<defs>
<clipPath id="clip0_61_213">
<rect width="31" height="31" fill="white"/>
</clipPath>
</defs>
</svg>
