<svg width="18" height="19" viewBox="0 0 18 19" fill="none" xmlns="http://www.w3.org/2000/svg">
<ellipse cx="9.14667" cy="9.36949" rx="8.82342" ry="8.81383" fill="#0098FF"/>
<path fill-rule="evenodd" clip-rule="evenodd" d="M12.8139 7.90938L13.6083 7.11579C13.9323 6.79216 13.9323 6.26884 13.6083 5.94692L12.5726 4.91233C12.2486 4.59042 11.7248 4.59042 11.4025 4.91233L10.608 5.70592C10.527 5.78683 10.527 5.91766 10.608 5.99857L12.5209 7.90938C12.6019 7.99029 12.7329 7.99029 12.8139 7.90938Z" fill="white"/>
<path fill-rule="evenodd" clip-rule="evenodd" d="M9.9256 6.38762L5.40015 10.9081L5.03481 12.9997C4.98483 13.282 5.23126 13.5265 5.51389 13.4783L7.60773 13.1116L12.1332 8.59107C12.2142 8.51016 12.2142 8.37933 12.1332 8.29843L10.2203 6.38762C10.1376 6.30671 10.0066 6.30671 9.9256 6.38762ZM7.16656 10.18C7.07177 10.2747 7.07177 10.4261 7.16656 10.5208C7.26134 10.6155 7.41299 10.6155 7.50778 10.5208L10.1617 7.86978C10.2565 7.7751 10.2565 7.62362 10.1617 7.52894C10.0669 7.43426 9.91526 7.43426 9.82048 7.52894L7.16656 10.18ZM7.37163 11.9686H6.54444V11.1423H5.91887L5.72414 12.2526L6.26009 12.788L7.37163 12.5934V11.9686Z" fill="white"/>
</svg>
