<svg width="30" height="30" viewBox="0 0 30 30" fill="none" xmlns="http://www.w3.org/2000/svg">
<g clip-path="url(#clip0_205_1002)">
<rect width="30" height="30" fill="#CBCBCB"/>
<path d="M3.60939 0.445417C3.07033 0.679792 2.25002 1.28917 1.75783 1.75792C-0.0234221 3.5626 1.54093e-05 3.28135 1.54093e-05 15.0001C1.54093e-05 26.7189 -0.0234221 26.4376 1.75783 28.2423C3.56252 30.0235 3.28127 30.0001 15 30.0001C26.7188 30.0001 26.4375 30.0235 28.2422 28.2423C30.0235 26.4376 30 26.7189 30 15.0001C30 3.28135 30.0235 3.5626 28.2422 1.75792C26.4375 -0.0233326 26.7188 0.000102997 15 0.000102997C5.32033 0.000102997 4.50002 0.0469799 3.60939 0.445417ZM25.8985 1.80479C26.9766 2.36729 27.6563 3.07042 28.2656 4.21885C28.6875 4.99229 28.711 5.71885 28.711 15.0001C28.711 24.2814 28.6875 25.0079 28.2656 25.7814C27.6563 26.9298 26.9766 27.6329 25.8985 28.1954C24.9844 28.711 24.75 28.711 15 28.711C5.71877 28.711 4.9922 28.6876 4.21877 28.2657C3.07033 27.6564 2.3672 26.9767 1.8047 25.8985C1.28908 24.9845 1.28908 24.7501 1.28908 15.0001C1.28908 5.71885 1.31252 4.99229 1.73439 4.21885C2.57814 2.6251 3.72658 1.73448 5.39064 1.38292C5.83595 1.28917 10.4297 1.21885 15.586 1.24229C24.7031 1.28917 24.9844 1.3126 25.8985 1.80479Z" fill="#CBCBCB"/>
<path d="M25.8985 1.80479C26.9766 2.36729 27.6563 3.07042 28.2656 4.21885C28.6875 4.99229 28.711 5.71885 28.711 15.0001C28.711 24.2814 28.6875 25.0079 28.2656 25.7814C27.6563 26.9298 26.9766 27.6329 25.8985 28.1954C24.9844 28.711 24.75 28.711 15 28.711C5.71877 28.711 4.9922 28.6876 4.21877 28.2657C3.07033 27.6564 2.3672 26.9767 1.8047 25.8985C1.28908 24.9845 1.28908 24.7501 1.28908 15.0001C1.28908 5.71885 1.31252 4.99229 1.73439 4.21885C2.57814 2.6251 3.72658 1.73448 5.39064 1.38292C5.83595 1.28917 10.4297 1.21885 15.586 1.24229C24.7031 1.28917 24.9844 1.3126 25.8985 1.80479Z" fill="#CBCBCB"/>
<path d="M14.4844 4.71094C14.0859 4.92188 14.0625 5.67188 14.0625 15C14.0625 24.8203 14.0625 25.0781 14.5312 25.3125C14.8594 25.5 15.1406 25.5 15.4688 25.3125C15.9375 25.0781 15.9375 24.8203 15.9375 15C15.9375 5.29688 15.9141 4.92188 15.4922 4.6875C14.9531 4.40625 14.9766 4.40625 14.4844 4.71094Z" fill="white"/>
<path d="M7.73481 5.1563C5.08637 5.7188 4.87543 9.56255 7.45356 10.336C9.9145 11.0625 11.8598 8.64848 10.6879 6.37505C10.1957 5.41411 8.90668 4.87505 7.73481 5.1563Z" fill="white"/>
<path d="M21.2109 5.10935C19.8047 5.34373 18.9844 6.35154 18.9844 7.85154C18.9844 10.4297 22.5938 11.4844 23.9062 9.30466C25.1953 7.21873 23.5547 4.68748 21.2109 5.10935Z" fill="white"/>
<path d="M5.50822 11.5078C4.52384 12.375 4.00822 13.9453 3.91447 16.2656C3.86759 17.5781 3.93791 17.9062 4.26603 18.1406C4.59416 18.3281 4.80509 18.3281 5.18009 18.0938C5.60197 17.8125 5.64884 17.8359 5.53166 18.2109C5.46134 18.4453 5.34416 19.0313 5.25041 19.5C5.10978 20.2969 5.15666 20.3906 5.60197 20.3906C6.07072 20.3906 6.09416 20.5078 6.09416 22.9688C6.09416 25.3359 6.14103 25.5469 6.58634 25.8047C6.96134 25.9922 7.24259 25.9922 7.64103 25.8047C8.18009 25.5703 8.20353 25.4531 8.25041 22.9219L8.29728 20.2734L8.36759 22.5C8.41447 23.7188 8.48478 24.9609 8.55509 25.2422C8.69572 25.875 9.42228 26.1328 10.0785 25.7813C10.5004 25.5469 10.5473 25.3125 10.5473 22.9688C10.5473 20.4844 10.5707 20.3906 11.0395 20.3906C11.4848 20.3906 11.5317 20.2969 11.391 19.4766C11.3207 18.9609 11.1801 18.375 11.1098 18.1641C10.9692 17.8125 11.016 17.8125 11.4613 18.0703C11.8363 18.3281 12.0473 18.3281 12.3754 18.1406C12.6801 17.9297 12.7738 17.5547 12.7504 16.3359C12.6801 14.0859 12.1176 12.375 11.1332 11.5078C10.3363 10.8281 10.1957 10.7813 8.32072 10.7813C6.44572 10.7813 6.30509 10.8281 5.50822 11.5078ZM6.02384 15.8672C5.95353 16.1016 5.90666 15.9141 5.90666 15.4688C5.90666 15.0234 5.95353 14.8359 6.02384 15.0469C6.07072 15.2813 6.07072 15.6563 6.02384 15.8672ZM10.9457 16.9219C10.8754 17.1094 10.8051 17.0391 10.8051 16.7812C10.7817 16.5234 10.852 16.3828 10.9223 16.4766C10.9926 16.5469 11.016 16.7578 10.9457 16.9219ZM5.78947 17.1563C5.71916 17.3438 5.64884 17.2734 5.64884 17.0156C5.62541 16.7578 5.69572 16.6172 5.76603 16.7109C5.83634 16.7813 5.85978 16.9922 5.78947 17.1563Z" fill="white"/>
<path d="M18.8674 11.5078C17.883 12.375 17.3205 14.0859 17.2502 16.3359C17.2267 17.5547 17.2971 17.9297 17.6486 18.1406C18.2346 18.5156 18.8439 18.0469 18.9846 17.0859L19.1252 16.2891L19.2892 17.2266C19.383 17.7422 19.4533 19.8281 19.4533 21.8438C19.4533 25.2422 19.4767 25.5469 19.8986 25.7812C20.4611 26.0625 20.6486 26.0625 21.0939 25.7812C21.3752 25.6172 21.4689 24.8672 21.5861 22.5703L21.7033 19.5703L21.7502 22.5469C21.7971 25.3359 21.8205 25.5469 22.2892 25.8047C22.6642 25.9922 22.9455 25.9922 23.3439 25.8047L23.9064 25.5469L23.9299 20.1094C23.9533 15.75 24.0002 14.9531 24.1877 16.1719C24.4221 17.7891 24.6799 18.2812 25.3127 18.2812C26.1096 18.2812 26.3205 17.6953 26.133 16.0312C25.8752 13.5938 25.4064 12.3281 24.4924 11.5078C23.6955 10.8281 23.5549 10.7812 21.6799 10.7812C19.8049 10.7812 19.6642 10.8281 18.8674 11.5078Z" fill="white"/>
</g>
<defs>
<clipPath id="clip0_205_1002">
<rect width="30" height="30" rx="3" fill="white"/>
</clipPath>
</defs>
</svg>
