<svg width="31" height="31" viewBox="0 0 31 31" fill="none" xmlns="http://www.w3.org/2000/svg">
<path d="M27.5556 0H3.44444C1.55 0 0 1.55 0 3.44444V27.5556C0 29.45 1.55 31 3.44444 31H27.5556C29.45 31 31 29.45 31 27.5556V3.44444C31 1.55 29.45 0 27.5556 0ZM9.47222 5.16667C10.0432 5.16667 10.5907 5.39348 10.9945 5.7972C11.3982 6.20092 11.625 6.74849 11.625 7.31944C11.625 7.8904 11.3982 8.43796 10.9945 8.84169C10.5907 9.24541 10.0432 9.47222 9.47222 9.47222C8.90127 9.47222 8.3537 9.24541 7.94998 8.84169C7.54625 8.43796 7.31944 7.8904 7.31944 7.31944C7.31944 6.74849 7.54625 6.20092 7.94998 5.7972C8.3537 5.39348 8.90127 5.16667 9.47222 5.16667ZM13.7778 17.2222C13.7778 18.1694 13.0028 18.9444 12.0556 18.9444V24.1111C12.0556 25.0583 11.2806 25.8333 10.3333 25.8333H8.61111C7.66389 25.8333 6.88889 25.0583 6.88889 24.1111V18.9444C5.94167 18.9444 5.16667 18.1694 5.16667 17.2222V14.6389C5.16667 12.7444 6.71667 11.1944 8.61111 11.1944H10.3333C12.2278 11.1944 13.7778 12.7444 13.7778 14.6389V17.2222ZM25.0067 18.5311L22.2511 22.94C21.9067 23.4739 21.1317 23.4739 20.7872 22.94L18.0317 18.5311C17.6872 17.9628 18.1006 17.2222 18.7722 17.2222H24.2833C24.955 17.2222 25.3683 17.9628 25.0067 18.5311ZM24.2833 13.7778H18.7722C18.1006 13.7778 17.6872 13.0372 18.0489 12.4517L20.8044 8.04278C21.1489 7.50889 21.9239 7.50889 22.2683 8.04278L25.0239 12.4517C25.3683 13.0372 24.955 13.7778 24.2833 13.7778Z" fill="#CBCBCB"/>
</svg>
